<?xml version="1.0" encoding="utf-8"?>
<!-- Generator: Adobe Illustrator 19.2.1, SVG Export Plug-In . SVG Version: 6.00 Build 0)  -->
<svg version="1.1" id="Capa_1" xmlns="http://www.w3.org/2000/svg" xmlns:xlink="http://www.w3.org/1999/xlink" x="0px" y="0px"
	 viewBox="0 0 187.5 187.5" style="enable-background:new 0 0 187.5 187.5;" xml:space="preserve">
<style type="text/css">
	.st0{fill:#333333;}
</style>
<path class="st0" d="M0,93.8C0,42,42,0,93.8,0c51.8,0,93.8,42.1,93.7,93.9c-0.1,51.7-42,93.6-93.7,93.7C42.1,187.6,0,145.5,0,93.8z
	 M151.4,93.8c0,0-0.1,0-0.1,0c0-9.4,0.6-18.9-0.2-28.2c-0.8-10.5-5.6-19.1-15.1-24.5c-6-3.4-12.6-4.7-19.4-4.7
	c-15.2-0.1-30.5-0.2-45.7,0c-7.8,0.1-15.3,1.6-21.8,6.2C39.4,49.6,36,59.6,35.9,70.9c-0.2,15.2-0.1,30.5,0,45.7
	c0,6,1.2,11.8,3.8,17.2c5.5,11,15,16.1,26.8,16.9c9.7,0.7,19.5,0.4,29.2,0.4c8.5,0,17,0.2,25.5-0.4c17.4-1.2,28.9-12.5,30.1-29.9
	C151.9,111.9,151.4,102.8,151.4,93.8z"/>
<path class="st0" d="M141,93.8c0,7.2,0,14.5,0,21.7c0,5.3-0.9,10.3-3.7,14.8c-4.4,7.2-11.4,9.6-19.2,9.7c-16.2,0.2-32.5,0.2-48.7,0
	c-7.8-0.1-14.8-2.5-19.2-9.7c-2.6-4.3-3.7-9.1-3.7-14.1c0-14.9,0-29.8,0-44.7c0-5.1,1-9.9,3.7-14.3c4.4-7.3,11.5-9.7,19.4-9.8
	c16.2-0.2,32.3-0.2,48.5,0c7.9,0.1,15,2.5,19.4,9.8c2.7,4.5,3.7,9.4,3.7,14.6C141,79.1,141,86.5,141,93.8z M93.7,124.3
	c16.7,0.1,30.5-13.6,30.6-30.2c0.1-16.9-13.5-30.7-30.2-30.8c-16.9-0.1-30.7,13.5-30.8,30.2C63.2,110.4,76.8,124.2,93.7,124.3z
	 M130.5,63.6c0.1-3.3-2.6-6.1-5.9-6.3c-3.3-0.1-6.3,2.7-6.3,6.1c0,3.4,2.6,6,6,6.1C127.7,69.5,130.4,66.9,130.5,63.6z"/>
<path class="st0" d="M113.4,93.8c0,10.9-8.8,19.7-19.7,19.6c-10.9,0-19.7-8.9-19.6-19.8c0.1-10.8,8.8-19.5,19.6-19.5
	C104.6,74.1,113.4,82.8,113.4,93.8z"/>
</svg>
