<?xml version="1.0" encoding="utf-8"?>
<!-- Generator: Adobe Illustrator 19.2.1, SVG Export Plug-In . SVG Version: 6.00 Build 0)  -->
<svg version="1.1" id="Capa_1" xmlns="http://www.w3.org/2000/svg" xmlns:xlink="http://www.w3.org/1999/xlink" x="0px" y="0px"
	 viewBox="0 0 192 192" style="enable-background:new 0 0 192 192;" xml:space="preserve">
<style type="text/css">
	.st0{fill:#333333;}
</style>
<path class="st0" d="M96.1,0c52.7,0,95.8,43,95.9,95.7c0.1,53.5-42.9,96.3-96.7,96.3C43.1,192,0,148.7,0,96.2C0,42.9,42.9,0,96.1,0z
	 M146.4,146.4c0.1-0.8,0.1-1.2,0.1-1.7c0-12.8,0.1-25.7-0.1-38.5c-0.1-4.2-0.7-8.5-1.6-12.6c-1.2-5.5-3.9-10.2-9-12.9
	c-8.1-4.2-16.7-4.8-25-0.8c-3.5,1.7-6.3,4.8-9.5,7.3c0-2.4,0-5.2,0-8c-6.8,0-13.3,0-19.8,0c0,22.5,0,44.8,0,67.1
	c6.9,0,13.6,0,20.6,0c0-1.1,0-2,0-2.9c0-10.2-0.2-20.3,0.1-30.5c0.1-3.8,0.8-7.6,2.1-11.2c1.6-4.4,6-6.3,11.6-5.9
	c4.6,0.3,7.5,2.4,8.7,7.2c0.7,2.7,0.9,5.6,1,8.4c0.1,10.7,0.1,21.5,0.1,32.2c0,0.9,0,1.8,0,2.7C132.7,146.4,139.4,146.4,146.4,146.4
	z M67.9,146.4c0-22.5,0-44.8,0-67.1c-7,0-13.8,0-20.6,0c0,22.5,0,44.7,0,67.1C54.2,146.4,60.9,146.4,67.9,146.4z M45.5,57.7
	c0,6.7,5.4,12.1,12,12.1c6.8,0,12.2-5.5,12.2-12.3c0-6.7-5.4-12-12.1-12.1C50.8,45.5,45.4,50.9,45.5,57.7z"/>
</svg>
