<?xml version="1.0" encoding="utf-8"?>
<!-- Generator: Adobe Illustrator 19.2.1, SVG Export Plug-In . SVG Version: 6.00 Build 0)  -->
<svg version="1.1" id="Capa_1" xmlns="http://www.w3.org/2000/svg" xmlns:xlink="http://www.w3.org/1999/xlink" x="0px" y="0px"
	 viewBox="0 0 192 192" style="enable-background:new 0 0 192 192;" xml:space="preserve">
<style type="text/css">
	.st0{fill:#333333;}
</style>
<path class="st0" d="M0,95.9c0-53,43.2-96,96.2-95.9c53,0.1,95.9,43.2,95.8,96.2c-0.1,52.9-43.2,95.8-96.1,95.8
	C42.9,192,0,148.9,0,95.9z M40.2,152.7c1.6-0.3,2.7-0.5,3.7-0.8c8.3-2.2,16.6-4.4,24.9-6.5c1-0.3,2.3-0.2,3.3,0.3
	c15.4,7.4,31,8.2,47,2.2c29.2-11,44.3-45.8,32.5-74.6c-10.6-25.8-36.2-40.4-63.7-35.2c-23.4,4.4-38.5,18.8-45.2,41.6
	c-4.1,14.3-2.2,28.2,4.5,41.5c0.5,1,0.9,2.4,0.6,3.5c-0.8,3.7-2,7.4-3,11.1C43.3,141.2,41.8,146.7,40.2,152.7z"/>
<path class="st0" d="M53.9,139.2c1.4-5.3,2.6-10.1,4.1-14.9c0.6-1.9,0.3-3.4-0.7-5.1c-12.9-21.1-7.4-48.6,12.6-63.3
	c28.7-21,69.6-4.4,75.2,30.7c3.1,19.6-3.7,35.7-19.9,46.9c-15.9,11.1-33,11.5-50.3,2.6c-2.1-1.1-3.9-1.5-6.3-0.7
	C64,136.8,59.2,137.9,53.9,139.2z M114.4,122.3c1.8-0.7,4.8-1.6,7.6-3c3.9-2,5.3-5.6,5.1-9.8c0-0.8-0.7-1.9-1.4-2.3
	c-3.6-1.9-7.3-3.6-11-5.3c-1.5-0.7-2.7-0.5-3.7,0.9c-1.2,1.6-2.5,3.1-3.7,4.7c-1.1,1.5-2.3,1.7-3.9,1c-7-3-12.8-7.4-17.1-13.7
	c-3-4.3-3-4.3,0.1-8.4c0.5-0.6,1.1-1.2,1.3-1.8c0.3-1.2,0.7-2.6,0.3-3.7c-1.3-3.6-2.8-7.1-4.4-10.6c-0.3-0.8-1-1.7-1.7-2
	c-2.1-1.1-6.4-0.1-8.1,1.6c-5.1,5.1-6.5,12.5-3.1,19.4c5.6,11.4,13.8,20.6,24.8,26.9C100.8,119.3,106.7,121.6,114.4,122.3z"/>
</svg>
