<?xml version="1.0" encoding="utf-8"?>
<!-- Generator: Adobe Illustrator 19.2.1, SVG Export Plug-In . SVG Version: 6.00 Build 0)  -->
<svg version="1.1" id="Capa_1" xmlns="http://www.w3.org/2000/svg" xmlns:xlink="http://www.w3.org/1999/xlink" x="0px" y="0px"
	 viewBox="0 0 409.6 409.6" style="enable-background:new 0 0 409.6 409.6;" xml:space="preserve">
<style type="text/css">
	.st0{fill:#FF9900;stroke:#000000;stroke-width:0.5;stroke-miterlimit:10;}
</style>
<path class="st0" d="M0,409.6C0,273.1,0,136.7,0,0c136.5,0,273.1,0,409.6,0c0,136.5,0,272.9,0,409.4c-35,0-69.5,0-104.6,0
	c0-101.4,0-202.7,0-303.9c-67.1,0-133.7,0-200.7,0c0,101.5,0,202.6,0,304.1C69.3,409.6,34.6,409.6,0,409.6z M301.3,27
	c-23.2,17.7-46.3,35.5-70.1,53.7c47.5,0,94,0,141.1,0C348.3,62.5,324.9,44.9,301.3,27z M37.3,80.8c47.4,0,93.8,0,141.1,0
	c-23.9-18.3-46.9-35.9-70-53.6C84.9,44.9,61.4,62.6,37.3,80.8z M385.3,270.1c0-44.1,0-87.1,0-131c-18.5,22.6-36.5,44.6-54.5,66.6
	C349,227.2,366.9,248.3,385.3,270.1z M24.2,268.7c18.5-21.4,36.4-42.1,54.5-63c-18.1-21.7-36-43.1-54.5-65.1
	C24.2,183.6,24.2,225.7,24.2,268.7z M80.1,364.2c0-41.5,0-81.9,0-123.4c-17.9,20.8-35.2,40.7-52.5,60.7
	C45.1,322.4,62.3,342.9,80.1,364.2z M329.5,241.3c0,41.2,0,81.2,0,122.4c17.4-21.2,34.1-41.7,51-62.2
	C363.5,281.5,346.8,261.8,329.5,241.3z M144.3,24.1c20.8,15.7,40.7,30.7,60.5,45.6c20.1-15.2,39.9-30.1,60.5-45.6
	C224.6,24.1,185.1,24.1,144.3,24.1z M80,169.8c0-22.1,0-43.2,0-64.2c-18,0-35.5,0-53.7,0C44.3,127.2,61.9,148.2,80,169.8z
	 M329.6,105.5c0,21.1,0,42,0,63.8c17.7-21.6,34.7-42.4,52.3-63.8C363.9,105.5,346.8,105.5,329.6,105.5z M385.2,385.4
	c0-17.2,0-34.2,0-51.9C370.9,351,357,368,342.7,385.4C357.4,385.4,371.2,385.4,385.2,385.4z M66.6,385.5
	c-14.3-17.1-28.1-33.6-42.3-50.5c0,17.4,0,34,0,50.5C38.3,385.5,52,385.5,66.6,385.5z M72.3,24.3c-16.8,0-32.4,0-48.1,0
	c0,12.1,0,23.8,0,36.3C40.3,48.4,56,36.6,72.3,24.3z M337.2,24.2c16.5,12.4,32.1,24.1,48.2,36.2c0-12.5,0-24.3,0-36.2
	C369.6,24.2,354,24.2,337.2,24.2z"/>
</svg>
