<?xml version="1.0" encoding="utf-8"?>
<!-- Generator: Adobe Illustrator 19.2.1, SVG Export Plug-In . SVG Version: 6.00 Build 0)  -->
<svg version="1.1" id="Capa_1" xmlns="http://www.w3.org/2000/svg" xmlns:xlink="http://www.w3.org/1999/xlink" x="0px" y="0px"
	 viewBox="0 0 266 384" style="enable-background:new 0 0 266 384;" xml:space="preserve">
<style type="text/css">
	.st0{fill:#FFFFFF;}
	.st1{fill:#F7931E;}
</style>
<path class="st0" d="M54.7,174.8c-2.4,0-4.4-0.1-6.4,0c-6,0.3-11.2,2.7-14,8c-1.9,3.5-4.1,4.5-7.6,4c-0.7-0.1-1.5,0-2.2,0
	c-9.6,0.4-17.3,8-17.4,17.6c-0.1,16.2-0.1,32.5,0,48.7c0.1,8.3,5.7,15.2,13.8,17c2.6,0.6,5.4,0.6,8.2,0.6c2.1,0,3.2,0.5,4.3,2.5
	c3.4,6.4,9,9.5,16.2,9.5c1.7,0,3.4,0,5.2,0c0,8.2,0,16,0,24c-1.4,0-2.5,0-3.6,0c-6.4,0-8.2,1.9-8.2,8.3c0,5.4,0,10.7,0,16.1
	c-1,0.4-1.8,0.6-2.6,0.9c-12,4-19.1,12.4-21,24.9c-0.6,3.9-0.3,8-0.3,12c0,8.5,1.3,9.8,9.7,9.8c46.1,0,92.2,0,138.4,0
	c24.1,0,48.2,0,72.4,0c5.4,0,7.5-2.1,7.6-7.4c0-3.6,0.1-7.3,0-10.9c-0.2-13.1-8.4-24.2-20.8-28.2c-1-0.3-2.1-0.7-3.2-1
	c0-6.1,0.1-12,0-17.8c-0.1-4.2-2.3-6.4-6.5-6.6c-1.7-0.1-3.4,0-5.5,0c0-4.2,0-8.1,0-11.9c0-4,0-7.9,0-12.1c2.3,0,4.2,0.1,6,0
	c6.6-0.2,12-3,15.1-8.8c1.4-2.6,3-3.6,5.8-3.2c1.2,0.2,2.5,0.1,3.7,0c9.4-0.4,17.1-7.9,17.2-17.4c0.2-16.4,0.2-32.7,0-49.1
	c-0.1-8.1-5.7-14.9-13.6-16.8c-2.8-0.6-5.7-0.6-8.5-0.6c-1.9,0-3.1-0.5-4-2.3c-3.4-6.4-8.9-9.5-16.1-9.7c-1.8,0-3.6,0-5.5,0
	c0-8.2,0-15.9,0-24c1.5,0,2.9,0,4.2,0c5.6-0.1,7.6-2.1,7.6-7.8c0-6.9,0-13.7,0-20.6c0-5.6-2.1-7.6-7.8-7.6c-1.4,0-2.9,0-4.1,0
	c-0.3-0.7-0.5-0.9-0.5-1.2c-0.1-0.5-0.2-1-0.2-1.5c-3-24.4-14.8-43.5-35.4-56.8c-4.6-2.9-6.6-5.7-6-11.1c0.7-6.5-1.8-12.5-7.5-15.7
	c-4-2.3-4.5-5-4.5-8.9c0.1-7.7-5-12.7-12.6-12.7c-7-0.1-14,0-21,0c-9.9,0-14.4,4.5-14.3,14.5c0.1,3-0.5,4.9-3.4,6.5
	c-2.4,1.3-4.4,3.7-6,6c-3.1,4.3-2.8,9.5-2.6,14.5c0.1,2.6-0.8,3.9-3,5.2C78,62.6,66.5,75.8,60.2,93.1c-2.5,6.8-3.9,14.1-5.9,21.6
	c-1.5,0-3.4-0.1-5.4,0c-3.6,0.2-5.9,2.4-6,5.9c-0.1,8-0.1,16,0,24c0.1,3.7,2.5,5.8,6.3,6c1.8,0.1,3.6,0,5.5,0
	C54.7,159,54.7,166.7,54.7,174.8z"/>
<path class="st1" d="M54.7,174.8c0-8.1,0-15.8,0-24c-1.8,0-3.7,0.1-5.5,0c-3.8-0.2-6.2-2.3-6.3-6c-0.1-8-0.1-16,0-24
	c0.1-3.6,2.4-5.7,6-5.9c2-0.1,4,0,5.4,0c2-7.5,3.4-14.8,5.9-21.6C66.5,75.8,78,62.6,93.9,53.4c2.3-1.3,3.2-2.7,3-5.2
	c-0.3-5-0.5-10.1,2.6-14.5c1.6-2.3,3.6-4.6,6-6c2.9-1.6,3.5-3.5,3.4-6.5c-0.2-10,4.4-14.5,14.3-14.5c7,0,14,0,21,0
	c7.6,0.1,12.7,5.1,12.6,12.7c-0.1,3.9,0.5,6.6,4.5,8.9c5.7,3.3,8.1,9.2,7.5,15.7c-0.6,5.4,1.5,8.2,6,11.1
	c20.6,13.3,32.4,32.4,35.4,56.8c0.1,0.5,0.1,1,0.2,1.5c0.1,0.2,0.2,0.5,0.5,1.2c1.2,0,2.7,0,4.1,0c5.7,0,7.7,2,7.8,7.6
	c0,6.9,0,13.7,0,20.6c0,5.7-2,7.7-7.6,7.8c-1.3,0-2.7,0-4.2,0c0,8.1,0,15.8,0,24c1.8,0,3.6,0,5.5,0c7.2,0.2,12.8,3.3,16.1,9.7
	c1,1.9,2.1,2.3,4,2.3c2.9,0,5.8,0,8.5,0.6c7.9,1.8,13.5,8.7,13.6,16.8c0.2,16.4,0.2,32.7,0,49.1c-0.1,9.5-7.8,17-17.2,17.4
	c-1.2,0.1-2.5,0.2-3.7,0c-2.8-0.4-4.3,0.6-5.8,3.2c-3.2,5.8-8.6,8.5-15.1,8.8c-1.9,0.1-3.7,0-6,0c0,4.2,0,8.2,0,12.1
	c0,3.8,0,7.7,0,11.9c2.1,0,3.8-0.1,5.5,0c4.2,0.2,6.4,2.4,6.5,6.6c0.1,5.9,0,11.7,0,17.8c1.1,0.4,2.2,0.7,3.2,1
	c12.4,4,20.6,15.2,20.8,28.2c0.1,3.6,0,7.2,0,10.9c-0.1,5.3-2.2,7.4-7.6,7.4c-24.1,0-48.2,0-72.4,0c-46.1,0-92.2,0-138.4,0
	c-8.4,0-9.7-1.3-9.7-9.8c0-4-0.3-8.1,0.3-12c1.9-12.5,9-20.8,21-24.9c0.8-0.3,1.6-0.6,2.6-0.9c0-5.4,0-10.7,0-16.1
	c0-6.4,1.8-8.3,8.2-8.3c1.1,0,2.2,0,3.6,0c0-8,0-15.8,0-24c-1.8,0-3.5,0-5.2,0c-7.2-0.1-12.8-3.2-16.2-9.5c-1.1-2-2.3-2.5-4.3-2.5
	c-2.7,0-5.5,0-8.2-0.6c-8.1-1.8-13.7-8.7-13.8-17c-0.1-16.2-0.1-32.5,0-48.7c0.1-9.7,7.8-17.3,17.4-17.6c0.7,0,1.5-0.1,2.2,0
	c3.5,0.5,5.7-0.5,7.6-4c2.9-5.2,8-7.6,14-8C50.2,174.7,52.2,174.8,54.7,174.8z M198.7,151c-44.1,0-87.9,0-131.5,0
	c0,52,0,103.8,0,155.5c44,0,87.7,0,131.5,0C198.7,254.7,198.7,203,198.7,151z M31,366.5c68,0,135.8,0,203.8,0c0-2.2,0.1-4.2,0-6.1
	c-0.3-9.8-7.9-17.6-17.8-17.6c-56.1-0.1-112.2-0.1-168.2,0c-9,0-16.4,6.4-17.7,15.3C30.7,360.7,31,363.5,31,366.5z M55,138.5
	c52,0,103.8,0,155.5,0c0-4,0-7.8,0-11.6c-52,0-103.7,0-155.5,0C55,130.8,55,134.5,55,138.5z M55,330.5c52.1,0,103.8,0,155.5,0
	c0-4.1,0-7.8,0-11.6c-52,0-103.7,0-155.5,0C55,322.8,55,326.5,55,330.5z M126.6,114.6c0-19.4,0-38.5,0-57.6
	c-18.7,14.8-21.5,35.9-23.7,57.6C111,114.6,118.7,114.6,126.6,114.6z M162.8,114.6c-0.5-5-0.8-9.6-1.6-14.1
	c-2.1-12.8-5.4-25.1-13.3-35.7c-2.3-3.1-5.3-5.6-8.1-8.4c-0.3,0.2-0.6,0.5-0.9,0.7c0,19.1,0,38.2,0,57.5
	C146.9,114.6,154.6,114.6,162.8,114.6z M54.6,270.7c0-28.2,0-56,0-83.9c-1,0-1.7-0.1-2.4-0.1c-7.7-0.1-9.3,1.5-9.3,9
	c0,7.6,0,15.2,0,22.8c0,15,0,30,0,44.9c0,4.9,2.2,7.1,7,7.2C51.4,270.8,52.9,270.7,54.6,270.7z M211,270.7c2.1,0,3.9,0.1,5.6,0
	c3.9-0.2,6.2-2.4,6.3-6.4c0.1-23.7,0-47.4,0-71.1c0-3.5-1.8-5.7-5.2-6.3c-2.1-0.3-4.4-0.1-6.6-0.1C211,214.9,211,242.6,211,270.7z
	 M90.9,114.5c0.5-18.8,5.1-36.4,14.4-53.2C86.3,67.5,67,95,67.6,114.5C75.3,114.5,83,114.5,90.9,114.5z M160.4,61.4
	c9.3,16.7,13.9,34.3,14.4,53.1c8,0,15.7,0,23.4,0C197.5,93.6,181.1,69.1,160.4,61.4z M30.6,258.7c0-20.3,0-40,0-60
	c-2,0-3.7-0.1-5.5,0c-3.8,0.2-6.2,2.3-6.2,6c-0.1,16-0.1,31.9,0,47.9c0,3.6,2.4,5.7,5.9,6C26.7,258.8,28.5,258.7,30.6,258.7z
	 M235,258.7c2.1,0,4.1,0.1,6,0c3.5-0.3,5.7-2.3,5.7-5.8c0.1-16.1,0.1-32.2,0-48.3c0-3.5-2.2-5.5-5.7-5.8c-1.9-0.2-3.9,0-6.1,0
	C235,218.9,235,238.6,235,258.7z M156.5,46.4c0.8-7.4-1.2-9.7-8.2-9.7c-10.3,0-20.7,0-31,0c-7,0-9,2.4-8.1,9.7
	C124.9,41.5,140.8,41.6,156.5,46.4z M121.1,18.9c0,2,0,3.8,0,5.6c8,0,15.8,0,23.5,0c0-2,0-3.8,0-5.6
	C136.6,18.9,128.9,18.9,121.1,18.9z"/>
<path class="st0" d="M198.7,151c0,51.9,0,103.6,0,155.5c-43.9,0-87.5,0-131.5,0c0-51.7,0-103.5,0-155.5
	C110.8,151,154.6,151,198.7,151z M133,282.7c29.8,0,53.9-24.4,53.8-54.3c-0.1-29.4-24.4-53.6-53.8-53.6c-30,0-54.3,24.2-54.2,54
	C78.9,258.6,103.1,282.8,133,282.7z"/>
<path class="st0" d="M31,366.5c0-3-0.3-5.8,0.1-8.5c1.3-8.8,8.7-15.3,17.7-15.3c56.1-0.1,112.2-0.1,168.2,0
	c9.9,0,17.5,7.8,17.8,17.6c0.1,2,0,3.9,0,6.1C166.8,366.5,99.1,366.5,31,366.5z"/>
<path class="st0" d="M55,138.5c0-4,0-7.7,0-11.6c51.9,0,103.5,0,155.5,0c0,3.7,0,7.5,0,11.6C158.9,138.5,107.1,138.5,55,138.5z"/>
<path class="st0" d="M55,330.5c0-4,0-7.7,0-11.6c51.9,0,103.5,0,155.5,0c0,3.7,0,7.5,0,11.6C158.9,330.5,107.1,330.5,55,330.5z"/>
<path class="st0" d="M126.6,114.6c-7.9,0-15.6,0-23.7,0c2.2-21.7,5.1-42.7,23.7-57.6C126.6,76.1,126.6,95.2,126.6,114.6z"/>
<path class="st0" d="M162.8,114.6c-8.3,0-15.9,0-23.8,0c0-19.3,0-38.4,0-57.5c0.3-0.2,0.6-0.5,0.9-0.7c2.7,2.8,5.8,5.3,8.1,8.4
	c7.9,10.6,11.3,22.9,13.3,35.7C162,105,162.3,109.6,162.8,114.6z"/>
<path class="st0" d="M54.6,270.7c-1.7,0-3.2,0-4.7,0c-4.9-0.1-7-2.3-7-7.2c0-15,0-30,0-44.9c0-7.6,0-15.2,0-22.8
	c0-7.5,1.7-9.1,9.3-9c0.7,0,1.5,0.1,2.4,0.1C54.6,214.7,54.6,242.5,54.6,270.7z"/>
<path class="st0" d="M211,270.7c0-28.1,0-55.8,0-83.9c2.3,0,4.5-0.3,6.6,0.1c3.4,0.5,5.2,2.8,5.2,6.3c0,23.7,0,47.4,0,71.1
	c0,4-2.3,6.2-6.3,6.4C214.8,270.8,213.1,270.7,211,270.7z"/>
<path class="st0" d="M90.9,114.5c-7.9,0-15.6,0-23.3,0C67,95,86.3,67.5,105.3,61.4C96,78.1,91.4,95.7,90.9,114.5z"/>
<path class="st0" d="M160.4,61.4c20.7,7.7,37.1,32.2,37.8,53.1c-7.7,0-15.4,0-23.4,0C174.3,95.8,169.7,78.2,160.4,61.4z"/>
<path class="st0" d="M30.6,258.7c-2.1,0-3.9,0.1-5.8,0c-3.6-0.2-5.9-2.4-5.9-6c-0.1-16-0.1-31.9,0-47.9c0-3.7,2.4-5.9,6.2-6
	c1.7-0.1,3.5,0,5.5,0C30.6,218.7,30.6,238.5,30.6,258.7z"/>
<path class="st0" d="M235,258.7c0-20.1,0-39.9,0-59.9c2.1,0,4.1-0.1,6.1,0c3.5,0.3,5.6,2.4,5.7,5.8c0.1,16.1,0.1,32.2,0,48.3
	c0,3.5-2.2,5.5-5.7,5.8C239.1,258.9,237.2,258.7,235,258.7z"/>
<path class="st0" d="M156.5,46.4c-15.8-4.8-31.6-4.9-47.4,0c-0.9-7.3,1.1-9.7,8.1-9.7c10.3,0,20.7,0,31,0
	C155.4,36.8,157.4,39,156.5,46.4z"/>
<path class="st0" d="M121.1,18.9c7.8,0,15.5,0,23.5,0c0,1.8,0,3.5,0,5.6c-7.7,0-15.5,0-23.5,0C121.1,22.7,121.1,20.9,121.1,18.9z"/>
<path class="st1" d="M133,282.7c-29.9,0-54.1-24.1-54.1-54c0-29.8,24.2-54,54.2-54c29.4,0,53.7,24.3,53.8,53.6
	C186.9,258.4,162.8,282.7,133,282.7z M174.8,228.7c0.1-22.9-18.7-41.9-41.5-42c-23.4-0.1-42.3,18.6-42.4,41.8
	c-0.1,23.1,18.7,42.1,41.7,42.2C155.9,270.8,174.8,252,174.8,228.7z"/>
<path class="st0" d="M174.8,228.7c-0.1,23.3-19,42.1-42.3,42c-23-0.1-41.8-19.1-41.7-42.2c0.1-23.3,19.1-41.9,42.4-41.8
	C156.1,186.9,174.9,205.9,174.8,228.7z M133.1,198.8c-16.4-0.2-30.1,13.1-30.3,29.4c-0.2,16.6,13,30.4,29.5,30.6
	c16.6,0.2,30.4-13.1,30.5-29.6C163,212.5,149.7,198.9,133.1,198.8z"/>
<path class="st1" d="M133.1,198.8c16.5,0.2,29.8,13.8,29.7,30.4c-0.1,16.5-13.8,29.8-30.5,29.6c-16.5-0.2-29.7-13.9-29.5-30.6
	C103.1,211.8,116.7,198.6,133.1,198.8z M150.8,228.7c0-10-8.2-18.1-18.2-18c-9.8,0.1-17.8,8.2-17.8,18c0,9.9,8.2,18,18.2,18
	C142.8,246.7,150.9,238.5,150.8,228.7z"/>
<path class="st0" d="M150.8,228.7c0,9.8-8,17.9-17.8,18c-10,0.1-18.2-8-18.2-18c0-9.8,8-17.9,17.8-18
	C142.6,210.7,150.8,218.8,150.8,228.7z"/>
</svg>
