<?xml version="1.0" encoding="utf-8"?>
<!-- Generator: Adobe Illustrator 19.2.1, SVG Export Plug-In . SVG Version: 6.00 Build 0)  -->
<svg version="1.1" id="Capa_1" xmlns="http://www.w3.org/2000/svg" xmlns:xlink="http://www.w3.org/1999/xlink" x="0px" y="0px"
	 viewBox="0 0 442.8 512" style="enable-background:new 0 0 442.8 512;" xml:space="preserve">
<style type="text/css">
	.st0{fill:#FF9933;stroke:#000000;stroke-miterlimit:10;}
</style>
<path class="st0" d="M229.6,0c4.8,2.2,10,3.8,14.2,6.8c8.4,6,12.1,14.8,12.2,25.1c0,2.5,0,5,0,8.2c2.1,0,3.9,0,5.6,0c23,0,46,0,69,0
	c17.5,0,27.5,10,27.5,27.7c0,1.2,0.1,2.3,0,3.5c-0.5,3.4,0.9,5.2,4.2,6.8c6.8,3.1,13.2,7,20.9,11.2c2.4-2.7,5.1-6.1,8.2-9.1
	c10.7-10.4,25.8-10.6,35.7-0.4c9.7,9.9,9.4,25-0.9,35.4c-29.4,29.5-58.9,59-88.4,88.4c-10.9,10.9-25.5,10.8-36.4-0.1
	c-13.5-13.4-26.9-26.8-40.3-40.3c-10.6-10.7-11-25.7-1-35.7c9.9-10,25.1-9.8,35.7,0.7c7.7,7.6,15.4,15.2,23.1,22.9
	c0.1,0.1,0.3,0.2-0.3-0.1c17.2-17.2,34.2-34.2,51.5-51.4c-9-6.8-20.1-11.4-32.2-13.3c-48.4-7.7-91,26.6-94,75.6
	c-2.8,46.6,38.3,87.1,84.9,83.7c41.9-3,72.8-33.9,75.7-75.7c0.4-5.9,3.2-9,8-8.7c4.7,0.2,7.5,3.7,7,9.6
	c-3.1,37.5-21.6,64.7-55.4,81.2c-4.8,2.3-5.9,4.7-5.9,9.6c0.1,73.1-0.1,146.3,0.3,219.4c0.1,15.3-4.9,26.1-19.8,31.2
	c-104.7,0-209.3,0-314,0c-9.7-3.3-17.1-8.8-19.3-19.5c-0.5-2.3-0.6-4.6-0.6-6.9c0-139.7,0-279.3,0-419c0-16.2,10.3-26.5,26.6-26.5
	c15.5,0,31,0,46.5,0c5.8,0,9.1,3,9,7.8c-0.1,4.3-3.3,7.2-8.5,7.2c-15.3,0.1-30.7,0-46,0c-9.3,0-12.6,3.3-12.6,12.7
	c0,138.8,0,277.6,0,416.5c0,9.5,3.2,12.7,12.5,12.7c99.5,0,199,0,298.5,0c9.3,0,12.6-3.3,12.6-12.7c0-73.5,0-147,0-220.5
	c0-1.5-0.1-3-0.2-4.8c-34.5,5.4-64.4-3.5-88.4-28.8c-17.9-18.9-26.4-41.8-25.7-67.8c1.7-58.8,56.1-102.5,113.6-91.3
	c2.7-10.1-1.6-16-11.8-16c-23.2,0-46.3,0-69.5,0c-1.5,0-2.9,0.1-5.1,0.3c0,3.8,0.1,7.4,0,11C256,77.9,249,85,237.6,85
	c-37.3,0.1-74.7,0.1-112,0c-11.5,0-18.7-7.5-18.7-18.9c-0.1-10.7,0-21.3,0-32C106.9,16.9,115,6,131.6,1c0.4-0.1,0.8-0.5,1.2-0.8
	C165,0,197.3,0,229.6,0z M181.6,69.7c18,0,36-0.1,53.9,0.1c4.1,0,5.6-1.3,5.6-5.5c-0.2-10.7,0.1-21.3-0.1-32
	c-0.2-10.8-6.9-17.3-17.7-17.4c-28-0.1-55.9-0.1-83.9,0c-10.9,0-17.7,6.9-17.7,17.9c-0.1,10.3,0.2,20.7-0.1,31c-0.1,4.7,1.6,6,6.1,6
	C145.7,69.6,163.7,69.7,181.6,69.7z M278.8,134.7c-2.1,0.5-3.1,0.6-4.1,0.9c-7.3,2.5-8.9,10.9-2.9,16.9c12.9,13,25.9,26,38.9,38.9
	c6.8,6.8,11.3,6.8,18.2-0.1c28.4-28.4,56.8-56.8,85.2-85.2c1.1-1.1,2.2-2.1,3.1-3.3c2.9-4,2.5-9.5-0.9-12.8
	c-3.5-3.4-8.7-3.7-12.7-0.5c-1.4,1.1-2.7,2.5-4,3.8c-24.3,24.3-48.5,48.6-72.8,72.8c-5.3,5.3-8.7,5.3-14,0c-9-8.9-17.8-18-26.9-26.8
	C283.6,137.2,280.7,136,278.8,134.7z"/>
<path class="st0" d="M98.8,304.9c-0.2,16.6-13.7,30-30.3,30c-16.8-0.1-30.3-13.8-30.1-30.7c0.2-16.6,13.8-30.1,30.3-30
	C85.6,274.3,99,288,98.8,304.9z M53.4,304.7c0,8.4,6.9,15.3,15.3,15.2c8.3-0.1,15.1-7,15.1-15.4s-7-15.3-15.3-15.3
	C60.2,289.3,53.4,296.3,53.4,304.7z"/>
<path class="st0" d="M38.4,212.5c-0.1-16.7,13.3-30.3,29.8-30.5c16.9-0.2,30.6,13.3,30.6,30.2c0.1,16.9-13.6,30.6-30.3,30.5
	C51.9,242.7,38.5,229.2,38.4,212.5z M83.8,212.5c0.1-8.4-6.7-15.4-15-15.5c-8.4-0.1-15.3,6.7-15.4,15.1c-0.1,8.4,6.7,15.4,15,15.5
	C76.7,227.8,83.7,220.9,83.8,212.5z"/>
<path class="st0" d="M38.4,395.2c0.3-16.6,14-30,30.6-29.7c16.9,0.3,30.1,13.9,29.8,30.9c-0.3,16.8-14,30-31.1,29.6
	C51.3,425.7,38.1,411.9,38.4,395.2z M83.8,396c0.1-8.5-6.6-15.4-15-15.5s-15.3,6.7-15.4,15.1c-0.1,8.5,6.6,15.3,15,15.4
	C76.9,411.1,83.7,404.4,83.8,396z"/>
<path class="st0" d="M179.7,279.8c19.6,0,39.3-0.1,58.9,0.1c2.7,0,6.1,1.1,7.9,3c3.5,3.5,1.5,9.7-3.4,11.2c-1.8,0.6-3.9,0.6-5.9,0.6
	c-38.8,0-77.5,0-116.3,0c-1,0-2,0-3,0c-4.7-0.4-7.8-3.4-7.8-7.5c0-4.4,3.1-7.4,8.2-7.4C138.8,279.7,159.2,279.8,179.7,279.8z"/>
<path class="st0" d="M179.1,405.8c19.8,0,39.6-0.1,59.4,0.1c2.7,0,6.1,1.1,7.9,2.9c3.5,3.5,1.5,9.7-3.3,11.3c-2,0.7-4.2,0.7-6.4,0.7
	c-38.4,0-76.9,0-115.3,0c-1.2,0-2.3,0.1-3.5,0c-4.9-0.4-8.1-3.7-7.8-8c0.2-4.1,3.2-7,8.1-7c18-0.1,35.9-0.1,53.9-0.1
	C174.5,405.7,176.8,405.8,179.1,405.8z"/>
<path class="st0" d="M163.1,370.9c14.7,0,29.3,0,44,0c5.9,0,9.3,2.7,9.4,7.3c0.1,4.7-3.5,7.7-9.6,7.7c-29.2,0-58.3,0-87.5,0
	c-5.8,0-9.3-2.8-9.4-7.4c-0.1-4.8,3.3-7.6,9.6-7.6C134.2,370.9,148.6,370.9,163.1,370.9z"/>
<path class="st0" d="M163.4,238.3c-15.2,0-30.3,0.1-45.5,0c-4.8,0-7.8-3.1-7.8-7.3c0-4.1,3-7.1,7.7-7.5c1.2-0.1,2.3-0.1,3.5-0.1
	c7.3,0,14.7,0,22,0c20.5,0,41,0,61.5,0c1.7,0,3.3-0.1,5,0.2c4.3,0.6,7.2,4,6.8,7.8c-0.5,4.2-2.9,6.7-7.2,6.9
	c-4.5,0.2-9,0.1-13.5,0.1C185,238.3,174.2,238.3,163.4,238.3L163.4,238.3z"/>
<path class="st0" d="M162.8,203.6c-14,0-28,0-42,0c-1.8,0-4.2,0.4-5.3-0.6c-2.2-1.9-4.6-4.4-5.2-7c-0.7-3.5,1.8-6.3,5.6-7.1
	c1.8-0.4,3.6-0.3,5.5-0.3c28,0,56,0,83.9,0c0.3,0,0.7,0,1,0c6.7,0.1,10.3,2.7,10.3,7.5c0,4.9-3.5,7.5-10.3,7.5
	C191.8,203.6,177.3,203.6,162.8,203.6z"/>
<path class="st0" d="M148,329.6c-9.5,0-19,0.1-28.5,0c-6-0.1-9.3-2.8-9.5-7.3c-0.1-4.8,3.4-7.7,9.6-7.7c19.2-0.1,38.3-0.1,57.5,0
	c6,0,9.3,2.8,9.5,7.3c0.1,4.7-3.4,7.7-9.6,7.7C167.4,329.6,157.7,329.6,148,329.6z"/>
<path class="st0" d="M77.8,126c-7.8,0-15.7,0-23.5,0c-5.8,0-9.1-2.9-9-7.7c0.1-4.5,3.3-7.3,8.9-7.3c15.8-0.1,31.6-0.1,47.5,0
	c5.8,0,9.1,3,9,7.7c-0.1,4.5-3.4,7.3-8.9,7.3C93.8,126.1,85.8,126,77.8,126z"/>
</svg>
