<?xml version="1.0" encoding="utf-8"?>
<!-- Generator: Adobe Illustrator 19.2.1, SVG Export Plug-In . SVG Version: 6.00 Build 0)  -->
<svg version="1.1" id="Capa_1" xmlns="http://www.w3.org/2000/svg" xmlns:xlink="http://www.w3.org/1999/xlink" x="0px" y="0px"
	 viewBox="0 0 507.9 102" style="enable-background:new 0 0 507.9 102;" xml:space="preserve">
<style type="text/css">
	.st0{fill:#F7931E;}
</style>
<path class="st0" d="M253.9,102c-82.2,0-164.3,0-246.5,0c-7.3,0-7.3,0-7.3-7.3c0-29.5,0.1-59-0.1-88.5C0,1.5,1.2,0,6.1,0
	c165.2,0.1,330.3,0.1,495.5,0c5.1,0,6.4,1.5,6.4,6.5c-0.2,29.7-0.1,59.3-0.1,89c0,6.5,0,6.5-6.5,6.5C418.9,102,336.4,102,253.9,102z
	 M9,90.2C48.6,63.1,87.5,36.5,126.3,9.9c-1.6-1.3-2.7-1.5-3.8-1.5c-36.3,0-72.6,0-108.9-0.1c-3.9,0-5.2,1.1-5.2,5.1
	c0.2,24,0.1,47.9,0.1,71.9C8.5,86.6,8.8,87.9,9,90.2z M499.2,90.3c0.2-2.6,0.5-4,0.5-5.5c0-23.6-0.1-47.3,0.1-70.9
	c0-4.5-1.5-5.6-5.8-5.6c-35.8,0.1-71.6,0.1-107.4,0.1c-1.5,0-3,0.2-4.5,0.4c-0.1,0.4-0.2,0.8-0.2,1.2
	C420.6,36.6,459.4,63.1,499.2,90.3z M493.1,92.9c0.1-0.4,0.3-0.8,0.4-1.2c-38.1-26.1-76.3-52.2-115.3-78.9c-0.2,2.7-0.4,4.3-0.4,5.9
	c0,23,0.1,46-0.1,69c0,4.4,1.4,5.7,5.7,5.6c35.1-0.2,70.3-0.1,105.4-0.1C490.3,93.2,491.7,93,493.1,92.9z M13.2,92.6
	c2.5,0.3,3.4,0.6,4.3,0.6c36,0,71.9,0,107.9,0.1c4.1,0,4.5-1.9,4.5-5.2c-0.1-23.5,0-47,0-70.4c0-1.3-0.3-2.5-0.5-4.6
	C90.7,39.6,52.6,65.7,13.2,92.6z M134.3,12.6c0,3.2,0,4.8,0,6.5c0,22.7,0.2,45.3-0.1,68c-0.1,5.1,1.4,6.4,6.5,6.4
	c34.3-0.2,68.6-0.1,102.9-0.1c1.6,0,3.2-0.2,4.7-0.3c0.1-0.4,0.3-0.7,0.4-1.1C211,65.7,173.3,39.6,134.3,12.6z M373.6,12.7
	c-38.9,26.9-76.5,53-114.2,79.1c1.2,1.2,1.8,1.4,2.4,1.4c35.8,0,71.6-0.1,107.4,0.1c4.2,0,4.4-2.1,4.4-5.3c-0.1-20.1,0-40.3,0-60.4
	C373.6,23.1,373.6,18.7,373.6,12.7z M251.7,88.6c0.2-3,0.4-4.6,0.4-6.2c0-22.6-0.1-45.3,0.1-67.9c0.1-4.9-1.5-6.2-6.2-6.2
	c-34.3,0.2-68.6,0.1-102.9,0.1c-1.5,0-3.1,0.2-4.6,0.3c-0.1,0.4-0.2,0.8-0.3,1.2C175.6,35.9,213.2,62,251.7,88.6z M371.1,9.1
	c-2.2-0.4-2.8-0.7-3.5-0.7c-35.7,0-71.3,0-107-0.1c-3.9,0-4.7,1.6-4.7,5.1c0.1,23,0.1,46,0.1,69c0,1.6,0.2,3.2,0.4,6.1
	C294.9,61.9,332.4,35.9,371.1,9.1z"/>
</svg>
