<?xml version="1.0" encoding="utf-8"?>
<!-- Generator: Adobe Illustrator 19.2.1, SVG Export Plug-In . SVG Version: 6.00 Build 0)  -->
<svg version="1.1" id="Capa_1" xmlns="http://www.w3.org/2000/svg" xmlns:xlink="http://www.w3.org/1999/xlink" x="0px" y="0px"
	 viewBox="0 0 412.5 199.2" style="enable-background:new 0 0 412.5 199.2;" xml:space="preserve">
<style type="text/css">
	.st0{fill:#FF9900;stroke:#000000;stroke-width:0.5;stroke-miterlimit:10;}
</style>
<path class="st0" d="M0.8,98.2c2.2-3.7,5.6-4.9,9.8-4.8c5.3,0.2,10.7-0.1,16,0.1c2.9,0.1,4.4-0.8,5.7-3.6C42,68.2,52,46.6,61.7,24.8
	c2.1-4.7,5.1-6.5,10.2-6.5c89.2,0.1,178.4,0.1,267.6,0c5.1,0,8.1,1.9,10.1,6.6c9.7,21.8,19.7,43.4,29.4,65.1
	c1.1,2.5,2.4,3.6,5.3,3.5c6.3-0.2,12.5-0.2,18.8,0c4.4,0.1,7.3,3.2,7.2,7c-0.1,3.9-3,6.4-7.5,6.6c-1.1,0-2.1,0-3.2,0
	c-15.3,0-30.7,0-46,0c-1.4,0-2.9,0-4.5,0c0,13.8,0,27,0,40.7c2.1,0.1,4.2,0.1,6.3,0.3c4.7,0.4,7.1,2.7,7.1,7.4
	c0.1,8.7,0.1,17.3,0,26c-0.1,4.7-2.4,7.3-7.1,7.5c-8.8,0.2-17.6,0.2-26.4,0c-4.8-0.1-7.3-2.8-7.4-7.7c-0.1-8.5-0.1-17.1,0-25.6
	c0.1-4.9,2.5-7.3,7.4-7.6c1.8-0.1,3.7,0,5.9,0c0-13.7,0-27.1,0-40.7c-86.1,0-172.3,0-258.8,0c0,13.5,0,26.9,0,40.8
	c2.2,0,4.3-0.2,6.4,0c4.4,0.4,6.8,2.8,6.9,7.2c0.2,8.8,0.2,17.6,0,26.4c-0.1,4.4-2.6,7-7,7.2c-8.9,0.2-17.9,0.2-26.8,0
	c-4.7-0.1-6.9-2.8-7-7.5c-0.1-8.4-0.1-16.8,0-25.2c0-5.6,2.4-7.9,8.1-8.2c1.7-0.1,3.4,0,5.4,0c0-13.7,0-27,0-40.8
	c-1.4-0.1-2.8-0.2-4.2-0.2c-16,0-32-0.1-48,0c-4.2,0-7.3-1.2-9.1-5C0.8,100.9,0.8,99.5,0.8,98.2z M103.2,83.9
	c8-17.7,15.6-34.4,23.4-51.5c-15.8,0-31.1,0-46.8,0C87.6,49.5,95.1,66.1,103.2,83.9z M171.5,83.9c8-17.6,15.6-34.4,23.3-51.4
	c-16,0-31.1,0-46.7,0C155.9,49.7,163.6,66.5,171.5,83.9z M239.7,83.9c8-17.7,15.7-34.5,23.4-51.6c-15.9,0-31,0-46.8,0
	C224.1,49.6,231.7,66.3,239.7,83.9z M284.5,32.2c7.9,17.3,15.5,34.1,23.5,51.6c8.1-17.8,15.7-34.5,23.4-51.6
	C315.5,32.2,300.4,32.2,284.5,32.2z M69.1,41.8c-8,17.6-15.6,34.4-23.3,51.3c15.8,0,31,0,46.7,0C84.6,76,77,59.3,69.1,41.8z
	 M160.7,93.3c-7.8-17.2-15.5-34-23.4-51.4c-7.9,17.5-15.6,34.3-23.4,51.4C129.8,93.3,145,93.3,160.7,93.3z M250.5,93.3
	c15.7,0,31,0,46.8,0c-7.8-17.2-15.4-34-23.4-51.5C265.9,59.4,258.3,76.1,250.5,93.3z M318.8,93.2c15.9,0,31.1,0,46.8,0
	C357.7,76,350,59.2,342.1,41.8C334.1,59.4,326.6,76,318.8,93.2z M205.6,41.8c-8.1,17.8-15.7,34.5-23.3,51.4c15.9,0,31.1,0,46.7,0
	C221.2,76.1,213.6,59.5,205.6,41.8z M75.7,162.1c-4.5,0-8.8,0-13.2,0c0,4.5,0,8.7,0,13.1c4.5,0,8.8,0,13.2,0
	C75.7,170.7,75.7,166.5,75.7,162.1z M335.5,175.3c4.6,0,8.8,0,13.1,0c0-4.6,0-8.9,0-13.2c-4.5,0-8.7,0-13.1,0
	C335.5,166.5,335.5,170.7,335.5,175.3z"/>
</svg>
