<?xml version="1.0" encoding="utf-8"?>
<!-- Generator: Adobe Illustrator 19.2.1, SVG Export Plug-In . SVG Version: 6.00 Build 0)  -->
<svg version="1.1" id="Capa_1" xmlns="http://www.w3.org/2000/svg" xmlns:xlink="http://www.w3.org/1999/xlink" x="0px" y="0px"
	 viewBox="0 0 371.6 372.1" style="enable-background:new 0 0 371.6 372.1;" xml:space="preserve">
<style type="text/css">
	.st0{fill:#FF9900;stroke:#000000;stroke-width:0.75;stroke-miterlimit:10;}
</style>
<path class="st0" d="M347.9,330c0,8.3,0,15.9,0,23.9c7.8,0,15.6,0,23.7,0c0,4.2,0,8,0,12c-7.8,0-15.5,0-23.4,0
	c-1,5.2-4.5,6.4-9.1,6.2c-6.4-0.2-12.7,0-19.1-0.1c-5.3,0-6.4-0.8-8.4-6c-1.5,0-3.1,0-4.7,0c-54.1,0-108.2,0-162.4,0
	c-26.2,0-47.8-17.4-53.3-42.9c-0.9-4.1-1.2-8.4-1.2-12.6c-0.1-34-0.1-68-0.1-102c0-1.3,0-2.7,0-4.3c-30,0-59.7,0-89.7,0
	c0-4.1,0-7.9,0-12.1c1.3,0,2.6,0,4,0c50,0,100,0,150,0c12.5,0,19.7,7.3,19.8,19.8c0.1,9.6-0.4,19.3,0.8,28.8
	c2.4,19.1,18.6,33.9,37.8,35.1c8.9,0.6,17.9,0.1,27.2,0.1c0-7.9,0-15.7,0-23.9c-7.5,0-14.8,0-22.1,0c-12.2,0-19.5-7.4-19.6-19.6
	c-0.1-9.6,0.5-19.3-0.8-28.8c-2.6-20.4-20-35.3-40.6-35.5c-18.9-0.2-37.7-0.1-56.6-0.1c-31.7,0-63.5,0-95.2,0c-1.5,0-2.9,0-4.6,0
	c0-4.1,0-7.8,0-11.9c29.8,0,59.6,0,89.6,0c0-8.1,0-15.8,0-23.9c-29.7,0-59.5,0-89.5,0c0-4.2,0-8,0-12.1c29.7,0,59.5,0,89.4,0
	c0-8.1,0-15.9,0-24.1c-29.7,0-59.5,0-89.5,0c0-4.1,0-7.8,0-11.9c29.7,0,59.5,0,89.7,0c0-8.6,0.2-16.8-0.1-25
	c-0.1-3.4-2.8-5.1-6.3-5.1c-7.6,0-15.2,0-23.2,0c-1.1,5.4-5,6.2-9.8,6.1c-6.2-0.2-12.5-0.2-18.7,0c-4.3,0.1-7-1.5-8-6.1
	C15.8,54,8,54,0,54c0-4,0-7.7,0-11.9c7.8,0,15.6,0,23.6,0c0-8.1,0-15.8,0-23.9c-7.7,0-15.5,0-23.5,0c0-4.2,0-8,0-12
	c7.8,0,15.5,0,23.5,0C24.5,1,28-0.2,32.7,0c6.4,0.2,12.7,0,19.1,0.1c5.3,0,6.4,0.8,8.4,6c7.5,0,15.1,0,22.7,0
	c31.1,0.1,54.8,23.7,54.9,54.8c0,7.6,0,15.2,0,23c46,0,91.7,0,137.9,0c0-27.8,0-55.5,0-83.6c4.2,0,8,0,12.1,0
	c0,63.8,0,127.5,0,191.5c8.1,0,15.9,0,23.9,0c0-63.7,0-127.4,0-191.4c4.1,0,7.8,0,12.1,0c0,27.7,0,55.5,0,83.5c16.1,0,31.8,0,47.8,0
	c0,4.1,0,7.8,0,12.1c-15.7,0-31.5,0-47.5,0c0,8.1,0,15.8,0,23.9c15.7,0,31.5,0,47.6,0c0,4.2,0,8,0,12.1c-15.8,0-31.5,0-47.5,0
	c0,20.1,0,39.9,0,59.9c4.7,0.9,5.9,4.3,5.8,8.8c-0.2,6.2,0,12.5-0.1,18.7c0,5.8-0.6,6.8-5.9,9.1c0,2.8,0,5.6,0,7.6
	c2.9-0.7,5.9-1.8,8.9-1.9c6.1-0.3,12.2-0.1,18.4-0.1c5.9,0,6.8,0.6,9.1,6c3.6,0,7.3,0,11.3,0c0,4,0,7.8,0,11.9c-3.8,0-7.5,0-11.5,0
	c0,8.1,0,15.9,0,23.9c3.7,0,7.4,0,11.4,0c0,4.1,0,7.8,0,12c-3.7,0-7.6,0-11.2,0c-2.2,5.4-3.3,6.1-8.8,6.2c-6.2,0-12.5,0-18.7,0
	s-7-0.5-9.4-5.9c-15.7,0-31.4,0-47.1,0c-2.1,5.2-3.2,5.9-8.7,5.9c-6.6,0-13.2,0-19.9,0c-5,0-6.2-0.9-8.1-6c-7.7,0-15.6,0-23.4,0
	c-26.1-0.2-48.1-17.6-52.9-43.2c-1.7-9.2-1.1-18.9-1.3-28.4c-0.2-12-0.4-12.4-12.4-12.4c-3.7,0-7.5,0-11.4,0
	c-0.1,1.5-0.2,2.7-0.2,3.9c0,33.9,0,67.7,0,101.6c0,6.7,1.8,8.5,8.4,8.5c54,0,108,0,162,0c1,0,2,0,3.4,0c0.9-5.4,4.6-6.2,9.4-6.1
	c6.2,0.2,12.5,0,18.7,0.1c5.3,0,6.5,0.8,8.4,5.9c7.6,0,15.4,0,23.4,0c0,4,0,7.8,0,12C363.8,330,356,330,347.9,330z M275.6,132.3
	c-46.1,0-91.8,0-137.6,0c0,8,0,15.8,0,23.8c5.8,0,11.4,0,17,0c30.9,0.1,54.6,23.8,54.7,54.6c0,7.5,0,15,0,22.5
	c0,4.2,2.1,6.7,5.8,6.8c8,0.2,15.9,0,23.8,0c2-5.2,3.1-6,8.4-6c6,0,12-0.2,18,0.1c3.3,0.2,6.6,1.2,9.9,1.9c0-0.5,0-1.8,0-3.2
	c0-1.5,0-3,0-4.4c-5.2-2-6-3.1-6-8.4c0-6.4,0.2-12.7-0.1-19.1c-0.2-4.6,0.9-8.2,5.9-9.1C275.6,171.9,275.6,152.2,275.6,132.3z
	 M311.7,330.1c-1.9,0-3.4,0-4.9,0c-53.5,0-107,0-160.5,0c-13.5,0-20.5-7.1-20.5-20.6c0-33.6,0-67.2,0-100.9c0-1.4,0-2.9,0-4.3
	c-8.2,0-15.9,0-24,0c0,1.4,0,2.6,0,3.8c0,34,0,68,0,102c0,26,18.1,44,44.1,44c53.9,0,107.7,0,161.6,0c1.3,0,2.7,0,4.1,0
	C311.7,345.9,311.7,338.2,311.7,330.1z M60,42.1c7.7,0,14.9,0,22.1,0c12.4,0,19.7,7.3,19.7,19.9c0,29.9,0,59.7,0,89.6
	c0,1.4,0,2.9,0,4.3c8.2,0,15.9,0,23.7,0c0.1-0.5,0.3-0.9,0.3-1.2c0-32.4,0.3-64.7-0.2-97.1c-0.2-17.5-13.4-33.3-30.2-37.8
	C83.7,16.6,71.9,18.7,60,18C60,26.2,60,33.9,60,42.1z M275.6,119.9c0-8.1,0-15.8,0-23.6c-46,0-91.7,0-137.6,0c0,8,0,15.8,0,23.6
	C184,119.9,229.7,119.9,275.6,119.9z M287.8,228.2c0,5.9,0.1,11.5,0,17.1c-0.1,4.4-2.3,6.6-6.7,6.8c-1.7,0.1-3.4,0-5,0
	c0,8.3,0,16.1,0,23.8c16,0,31.7,0,47.4,0c0-8,0-15.8,0-23.7c-0.9,0-1.5-0.1-2.1-0.1c-8.5-0.1-9.7-1.3-9.7-9.8c0-4.7,0-9.4,0-14.1
	C303.6,228.2,296,228.2,287.8,228.2z M47.6,47.9c0-12.1,0-23.9,0-35.5c-4.1,0-7.8,0-11.5,0c0,12,0,23.7,0,35.5
	C39.9,47.9,43.6,47.9,47.6,47.9z M282,215.8c12.1,0,23.8,0,35.5,0c0-4.1,0-7.8,0-11.5c-12,0-23.7,0-35.5,0
	C282,208.2,282,211.8,282,215.8z M252.1,246.2c0,12.2,0,23.9,0,35.7c4,0,7.7,0,11.5,0c0-12,0-23.7,0-35.7
	C259.7,246.2,256,246.2,252.1,246.2z M347.7,246.3c-4.1,0-7.8,0-11.6,0c0,12,0,23.8,0,35.5c4,0,7.8,0,11.6,0
	C347.7,269.8,347.7,258.2,347.7,246.3z M324,359.9c4.1,0,7.8,0,11.6,0c0-12,0-23.8,0-35.5c-4,0-7.8,0-11.6,0
	C324,336.3,324,348,324,359.9z"/>
</svg>
