<?xml version="1.0" encoding="utf-8"?>
<!-- Generator: Adobe Illustrator 19.2.1, SVG Export Plug-In . SVG Version: 6.00 Build 0)  -->
<svg version="1.1" id="Capa_1" xmlns="http://www.w3.org/2000/svg" xmlns:xlink="http://www.w3.org/1999/xlink" x="0px" y="0px"
	 viewBox="0 0 389.8 281" style="enable-background:new 0 0 389.8 281;" xml:space="preserve">
<style type="text/css">
	.st0{fill:#FF9933;stroke:#000000;stroke-miterlimit:10;}
</style>
<path class="st0" d="M5.8,136.3c5.8-17.7,11.5-35.3,17.3-53c6.8-20.9,13.5-41.8,20.2-62.7C47,9.2,56.2,4.4,67.6,8
	c8.4,2.7,16.8,5.6,25.3,8.1c8,2.4,12.8,7.3,14.4,15.7c8.7,1.1,17.1-0.7,25.5-2.5c14.6-3,29.2-4.5,43.5,1.2c4.2,1.6,8.1,3.9,12.2,5.7
	c1.1,0.5,3,0.6,3.9,0c18.9-11.3,38.4-11.8,58.6-3.9c8.2,3.2,16.5,6.3,25,8.9c2.6,0.8,5.8,0.1,8.9,0.1c-0.5-2.7-1-4.6-1.1-6.6
	c-0.6-7.7,3.4-14.8,10.6-17.7c10-4,20-7.8,30.2-11.2c9.5-3.2,18.7,1.9,22.4,11.8c8.3,22.3,16.6,44.7,24.9,67c6,16,12,32,18,47.9
	c0,2.3,0,4.5,0,6.8c-2.3,8.3-7.9,12.8-15.9,15.3c-7.6,2.4-15,5.5-22.5,8.3c-11,4-19.6,0.4-24.7-10.2c-0.2-0.4-0.5-0.8-1.5-1.1
	c0,1-0.1,1.9,0,2.9c0.7,5.9,0.1,11.7-2.5,17.2c-4.8,10-13.3,13.4-26.6,10.4c0.6,9.3-2.1,17.3-9.5,23.1c-7.4,5.9-15.8,6.8-25.2,3.9
	c0.5,7.7-1.4,14.5-6.5,20.2c-5.2,5.7-11.8,8.1-19.7,8.4c1.1,9.5-1.5,17.5-9.5,22.9c-8.3,5.6-16.6,3.9-25-1.3
	c-5.2,9.8-12.2,17.4-24.3,15.6c-11.4-1.7-18.1-9.3-22-20.1c-6.7,2.7-13.5,3.4-20.3,0.6c-6.7-2.8-11.2-7.7-13.8-14.6
	c-9.8,5.7-19.3,6-28.3-0.5s-11.2-15.7-9.2-26.3c-2.8-0.3-5.5-0.3-8.2-0.9c-15.6-3.3-23.8-19.8-17-34.3c1.9-4.1,4.2-7.9,6.3-11.9
	c0.6-1.2,0.9-2.7,1.7-4.9c-1.6,0.8-2.2,1-2.7,1.4c-4.9,3.5-10.3,4.4-16,2.7c-9.6-3-19.2-6.2-28.8-9.3c-6.7-2.2-10.2-7.2-12.3-13.6
	C5.8,140.8,5.8,138.5,5.8,136.3z M189,215.8c-1.9-1.2-3.1-1.8-4.1-2.7c-2-1.7-2.7-4-1.3-6.4c1.4-2.5,3.6-3.4,6.3-2.4
	c1,0.4,2,1,3,1.5c12.1,6.4,24.2,13,36.4,19.3c8.7,4.5,18.7,0.2,21.3-8.9c1.8-6.5-0.9-13.1-7.4-16.8c-9.2-5.2-18.7-10.1-28-15.1
	c-2.5-1.4-5.1-2.6-7.5-4.1s-3.2-3.8-1.9-6.5c1.4-2.8,3.8-3.5,6.6-2.6c1.1,0.3,2,1,3,1.5c15.8,8.5,31.6,17,47.5,25.5
	c8.2,4.4,17,2,21.1-5.5s1.3-16.2-6.8-20.6c-5.2-2.9-10.5-5.7-15.8-8.6c-10.2-5.5-20.4-11.1-30.6-16.6c-2.8-1.5-4.6-3.6-3.3-7
	c1.2-3.2,4.5-4.1,8.1-2.2c8.3,4.4,16.5,8.9,24.7,13.4c12.5,6.7,25,13.6,37.6,20.2c8.6,4.5,15.2,1,17-8.6c1.5-8.4-1.7-15-8.4-19.5
	c-9.5-6.4-19.3-12.4-29.3-18c-13.2-7.3-26.7-14.1-40.1-21c-2.5-1.3-5.5-2.4-8.2-2.2c-6.1,0.6-12.3,1.6-18.3,3.3
	c-9.9,2.9-19.5,7-29.5,9.5c-15.1,3.9-28.7,0.6-39.9-10.9c-8-8.2-8.4-10.4-0.9-19.1c7.3-8.4,15.3-16.2,23.1-24.1
	c5.6-5.7,11.4-11.1,17.3-16.8c-0.6-0.4-1.1-0.7-1.6-1c-12.1-6.3-24.8-6.9-37.9-4.5c-11.2,2-22.2,4.9-33.7,4.2
	c-0.9-0.1-2.4,1.5-2.8,2.5c-9.6,29.5-19.2,59.1-28.6,88.7c-1.5,4.8-1.9,10.1-2.7,15.1c19.7-14.8,40.4-2.5,43.2,17.2
	c20.1-0.1,25.7,4.1,30.9,23.1c16.6-3.4,31.8,7.6,31.2,26.6C181.8,215.8,185,215.8,189,215.8z M146.2,93.7c4.6,5.5,9.6,9.5,16.1,11.2
	c8.9,2.3,17.3,0.2,25.7-2.6c8.7-2.9,17.3-6.4,26.2-9c9.4-2.8,18.9-3.2,28,1.7c10.2,5.5,20.5,10.9,30.7,16.3
	c16.4,8.7,33.6,16.1,46.6,30.1c0.4,0.4,1.2,0.4,1.9,0.6c0.2-0.7,0.6-1.4,0.6-2.2c0-0.6-0.4-1.2-0.6-1.8
	c-8.6-23.1-17.2-46.3-25.8-69.4c-2.2-5.9-4.4-11.9-6.7-18c-9.3,3.3-17.8,0.8-26.1-2.4c-5.1-2-10.2-4.1-15.3-6.2
	c-20.3-8.3-39.5-6-56.3,7.9c-13.3,11.1-25.3,23.7-37.8,35.7C150.8,88,148.7,90.8,146.2,93.7z M16.2,138.6c-0.2,4.4,1.7,7,5.8,8.4
	c8.9,3,17.8,5.8,26.7,8.7c5.8,1.8,9.3,0,11.2-5.9C72,112.4,84,75,96.1,37.7c1.9-6,0.1-9.5-5.9-11.5c-8.3-2.7-16.6-5.4-24.9-8
	c-6.9-2.2-10.1-0.6-12.4,6.5C41,61.4,29.1,98.2,17.2,134.9C16.8,136.4,16.5,137.8,16.2,138.6z M329.2,15.4c-0.7,0.2-1.9,0.4-3.1,0.8
	c-8.7,3.2-17.3,6.4-26,9.6c-5.5,2.1-7.2,5.7-5.2,11.2c13.7,37,27.4,73.9,41.2,110.9c2.1,5.8,5.7,7.3,11.5,5.2
	c8.2-3,16.4-6.1,24.6-9.1c7-2.6,8.4-5.8,5.9-12.7c-7.7-20.8-15.5-41.6-23.2-62.5C349,53,343.1,37.2,337.3,21.4
	C336,17.9,333.8,15.5,329.2,15.4z M92.1,220.3c0.5,6.9,4.3,11.9,10.7,13.7c6.2,1.7,12.6-0.8,15.9-6.8c5.4-9.8,10.7-19.8,15.9-29.7
	c4-7.6,1.7-16-5.4-19.7c-7.1-3.8-15.2-1.1-19.4,6.5c-5.2,9.5-10.3,19.1-15.3,28.7C93.5,215.3,92.9,217.9,92.1,220.3z M79.6,203.1
	c5.1,0,9.6-2.3,12.1-6.9c4.3-7.7,8.5-15.5,12.5-23.5c3.5-6.9,0.6-14.6-6.5-18.5c-5.9-3.2-14.1-1.2-17.8,4.9
	c-4.7,8-9.2,16.1-13.1,24.4C62.6,192.9,69.5,203.1,79.6,203.1z M145.6,246.7c3.1-0.1,7.2-2.1,9.7-6.4c4.1-7.1,8.1-14.4,11.6-21.8
	c3.1-6.5,0.1-14.3-6.1-17.7c-6.4-3.5-14.7-1.6-18.4,4.8c-4.1,7-8,14.1-11.5,21.4C126.4,236.5,133.3,246.7,145.6,246.7z M184.3,226.2
	c-9.7-0.1-21.5,14.5-19.8,24.6c0.1,0.4,0.1,0.7,0.2,1.1c1.4,6.2,7.2,11.9,12.8,12.7c6.8,0.9,10.3-3.4,13-8.6c2.1-3.9,4.3-7.9,6-12
	C200.4,234.6,194.6,226.2,184.3,226.2z M202.4,222.7c8.1,8.3,7.2,17.5,3.2,27.1c6.8,4.8,12.5,4.9,16.6,0.3c5.1-5.7,3.8-14.2-3-18.3
	C213.6,228.5,207.9,225.7,202.4,222.7z"/>
</svg>
