<?xml version="1.0" encoding="utf-8"?>
<!-- Generator: Adobe Illustrator 19.2.1, SVG Export Plug-In . SVG Version: 6.00 Build 0)  -->
<svg version="1.1" id="Capa_1" xmlns="http://www.w3.org/2000/svg" xmlns:xlink="http://www.w3.org/1999/xlink" x="0px" y="0px"
	 viewBox="0 0 384 384" style="enable-background:new 0 0 384 384;" xml:space="preserve">
<style type="text/css">
	.st0{fill:#FF9900;stroke:#000000;stroke-width:0.5;stroke-miterlimit:10;}
</style>
<path class="st0" d="M322.5,42c-68.9,0-137.2,0-206.1,0c0,1.5,0,2.8,0,4.2c0,8.9,0.1,17.7,0,26.6c-0.1,12.8-8.6,21.4-21.4,21.5
	c-8.9,0.1-17.7,0-26.6,0c-1.3,0-2.7,0-4.4,0c0,1.9,0,3.4,0,4.8c0,28.7,0,57.5,0,86.2c0,1.4,0.1,2.8-0.1,4.1c-0.4,2.8-2.2,4.5-5,4.7
	s-4.9-1.2-5.7-3.9c-0.4-1.3-0.4-2.7-0.4-4.1c0-31.7,0-63.5-0.1-95.2c0-3.2,1-5.7,3.3-8C72.4,66.7,88.7,50.4,105,34
	c2.5-2.5,5.1-3.5,8.6-3.5c68.5,0.1,137,0,205.5,0.1c3.1,0,5-0.5,6.6-3.7c5-9.8,16.2-14.5,27-11.9c10.6,2.5,18.4,12.1,18.5,23.1
	c0.2,15.2,0.1,30.5,0.1,45.7c0,47.9,0,95.7-0.1,143.6c0,3-0.8,6.2-2,8.9c-4.2,9.5-8.7,18.8-13,28.2c-1.9,4-4.5,6.9-9.3,6.9
	s-7.4-2.9-9.3-6.9c-4.4-9.6-9-19.2-13.3-28.9c-1.1-2.4-1.7-5.2-1.7-7.9c-0.1-60.4-0.1-120.7-0.1-181.1
	C322.5,45.3,322.5,43.8,322.5,42z M346.9,257.8c4.1-8.8,7.9-16.8,11.5-24.9c0.9-2.1,1.5-4.5,1.5-6.8c0.1-46.7,0.1-93.5,0.1-140.2
	c0-1.3,0-2.6,0-3.9c-9.1,0-17.6,0-26.1,0c0,0.8-0.1,1.3-0.1,1.8c0,47.9,0,95.7,0,143.6c0,1,0,2.1,0.4,2.9
	C338.3,239.3,342.4,248.2,346.9,257.8z M72.8,82.9c8.3,0,16.2,0.2,24.1-0.1c4.1-0.2,7.5-2.8,7.8-6.9c0.5-8.3,0.2-16.7,0.2-25
	C94.3,61.5,83.7,72,72.8,82.9z M360,47.9c0-3.5,0.1-6.6,0-9.7c-0.3-6.7-5.5-12.1-12-12.6c-6.6-0.5-12.8,3.9-13.8,10.5
	c-0.6,3.8-0.1,7.8-0.1,11.8C342.7,47.9,351.1,47.9,360,47.9z M333.9,70.2c8.8,0,17.4,0,25.8,0c0-3.8,0-7.3,0-10.8
	c-8.7,0-17.2,0-25.8,0C333.9,63.1,333.9,66.5,333.9,70.2z"/>
<path class="st0" d="M259.5,332.8c-23.7,0-47.5,0-71.2,0c-2.4,0-4,0.6-5.7,2.5c-5.3,5.8-10.9,11.4-16.6,16.8
	c-4.8,4.5-11.5,4.6-16.8,0.6c-3-2.3-5.8-4.8-8.7-7.1c-2.3-1.8-6.7-0.2-7.1,2.7c-0.5,3.7-0.7,7.5-1.2,11.2c-0.8,6.8-6,11.7-12.8,11.8
	c-7.5,0.1-15,0.1-22.5,0c-6.9-0.1-12.1-5-12.9-11.7c-0.4-3.2-0.7-6.5-0.9-9.7c-0.1-2.6-1.4-3.8-3.7-4.8c-2.4-1-3.4,0.3-4.8,1.5
	c-2.4,2-4.8,4-7.2,6c-5.7,4.4-12.6,4.2-17.7-0.8c-5.3-5.1-10.5-10.3-15.6-15.6c-5-5.2-5.3-12-0.9-17.7c1.9-2.5,4-4.8,6-7.2
	c1.3-1.5,2.5-2.7,1.4-5.2s-2.6-3.3-5.1-3.4c-3.2-0.2-6.5-0.5-9.7-0.9c-6.4-0.8-11.3-6-11.4-12.4c-0.2-7.7-0.2-15.5,0-23.2
	c0.1-6.6,5.1-11.7,11.7-12.5c3.3-0.4,6.7-0.8,10.1-0.9c2.6-0.1,3.5-1.6,4.5-3.7c1-2.1,0-3.2-1.2-4.6c-2.1-2.5-4.2-5-6.2-7.5
	c-4.5-5.6-4.2-12.5,0.7-17.7c5.2-5.4,10.5-10.7,15.9-15.9c4.9-4.7,11.7-5,17.1-0.9c2.6,2,5,4.1,7.5,6.2c1.5,1.2,2.7,2.6,5.2,1.5
	s3.3-2.6,3.5-5c0.2-3.2,0.5-6.5,0.9-9.7c0.8-6.4,5.9-11.3,12.3-11.4c7.7-0.2,15.5-0.2,23.2,0c6.6,0.1,11.8,5,12.5,11.7
	c0.4,3.5,0.8,7,1,10.4c0.1,2.6,1.6,3.6,3.6,3.9c1.3,0.2,3.1-0.1,4.2-0.8c2.9-2,5.4-4.5,8.1-6.6c5.4-4.2,12.2-4,17.1,0.7
	c5.5,5.3,10.9,10.7,16.2,16.2c4.7,4.9,5,11.7,0.9,17.1c-2.1,2.8-4.4,5.5-6.7,8.1c-1.3,1.4-1.8,2.6-0.9,4.6c0.9,2,1.8,3.3,4.2,3.4
	c3.4,0.1,6.7,0.5,10.1,0.9c7,0.8,11.8,6,11.9,13.1c0.1,7.2,0.1,14.5,0,21.7c-0.1,7.3-4.8,12.5-12,13.3c-3.2,0.4-6.5,0.8-9.7,0.9
	c-2.6,0.1-3.5,1.5-4.5,3.6c-0.9,2.1,0,3.2,1.1,4.6c2.6,3.1,4.9,6.3,7.6,9.3c0.8,0.9,2.2,1.6,3.4,1.6c47.7,0.1,95.5,0.1,143.2,0
	c6.8,0,10.4-3.8,10.4-10.5c0.1-8.5,0-17,0-25.5c0-4.6,2.1-7.3,5.7-7.2c3.5,0.1,5.5,2.7,5.5,7.4c0,8.1,0,16.2,0,24.4
	c0,14.3-8.5,22.8-22.9,22.8C306.2,332.8,282.9,332.8,259.5,332.8z M174.9,326.6c-0.7-0.9-1.2-1.8-1.8-2.5c-2.9-3.6-5.9-7.2-8.9-10.7
	c-2-2.4-2.3-4.8-0.9-7.6c1.4-2.9,2.7-5.9,3.7-9c1.1-3.3,3.3-4.8,6.6-5c4.6-0.3,9.2-0.9,13.8-1.2c2.1-0.2,3.1-1.1,3.1-3.3
	c-0.1-6.5-0.1-13,0-19.5c0-2.2-0.9-3.2-3-3.3c-4.6-0.4-9.2-0.9-13.8-1.2c-3.3-0.2-5.6-1.6-6.6-5c-1-3-2.2-5.8-3.6-8.6
	c-1.5-3.1-1.3-5.7,0.9-8.3c3-3.5,5.9-7.2,8.9-10.6c1.6-1.8,1.6-3.1-0.1-4.7c-4.7-4.5-9.3-9.1-13.8-13.8c-1.5-1.6-2.8-1.6-4.4-0.2
	c-3.7,3.2-7.5,6.2-11.2,9.4c-2.3,1.9-4.6,2.1-7.3,0.9c-2.9-1.4-5.9-2.8-9-3.8c-3.5-1.1-5-3.3-5.2-6.9c-0.3-4.5-0.8-9-1.2-13.4
	c-0.2-2.3-1.1-3.3-3.5-3.2c-6.4,0.1-12.7,0.1-19.1,0c-2.4,0-3.4,0.9-3.6,3.2c-0.3,4.5-0.9,9-1.2,13.4c-0.2,3.5-1.7,5.8-5.2,6.9
	c-3,0.9-5.8,2.2-8.6,3.6c-2.9,1.4-5.4,1.2-7.9-0.9c-3.6-3.1-7.3-6-10.9-9.2c-1.6-1.4-2.9-1.5-4.5,0.1c-4.5,4.7-9.1,9.3-13.8,13.8
	c-1.7,1.7-1.8,2.9-0.2,4.7c3.1,3.6,6.1,7.3,9.1,10.9c2,2.4,2.2,4.8,0.9,7.6c-1.4,2.9-2.7,5.9-3.7,9c-1.1,3.3-3.3,4.8-6.6,5
	c-4.6,0.3-9.2,0.9-13.8,1.2c-2.1,0.2-3.1,1.1-3,3.3c0.1,6.5,0.1,13,0,19.5c0,2.2,0.9,3.2,3,3.3c4.6,0.4,9.2,0.9,13.8,1.2
	c3.4,0.2,5.5,1.6,6.6,5c1,3.1,2.3,6,3.7,9c1.3,2.8,1.2,5.2-0.9,7.6c-3.2,3.7-6.2,7.5-9.4,11.2c-1.3,1.5-1.3,2.7,0.1,4.2
	c4.7,4.6,9.4,9.3,14,14.1c1.6,1.6,2.8,1.6,4.5,0.2c3.7-3.2,7.5-6.2,11.2-9.4c2.3-1.9,4.6-2.1,7.3-0.9c2.9,1.4,5.9,2.8,9,3.7
	c3.5,1.1,5,3.4,5.2,6.9c0.3,4.5,0.8,9,1.2,13.4c0.2,2.3,1.1,3.3,3.5,3.2c6.4-0.1,12.7-0.1,19.1,0c2.4,0,3.4-0.9,3.5-3.2
	c0.3-4.6,0.8-9.2,1.2-13.8c0.3-3.2,1.6-5.3,4.8-6.4c3.1-1,6.1-2.3,9-3.7c2.9-1.4,5.4-1.2,7.9,0.9c3.6,3.1,7.3,6,10.9,9.1
	c1.7,1.4,2.9,1.5,4.5-0.1c4.6-4.7,9.4-9.4,14-14.1C174,328.1,174.4,327.4,174.9,326.6z"/>
<path class="st0" d="M247.8,131.5c0-3.7-0.1-6.9,0-10c0.2-6.6,3.7-10.1,10.4-10.3c5.1-0.1,10.2,0,15.9,0c0-3.1-0.1-6,0-8.8
	c0.2-7.1,3.7-10.6,10.7-10.7c5.5-0.1,11-0.1,16.5,0c6.6,0.1,10.3,3.6,10.3,10.3c0.1,29.6,0.1,59.2,0,88.8c0,6.9-3.5,10.3-10.5,10.3
	c-31.7,0.1-63.5,0.1-95.2,0c-6.8,0-10.4-3.6-10.5-10.5c-0.1-9.7-0.1-19.5,0-29.2c0.1-6.8,3.7-10.4,10.5-10.5c5.1-0.1,10.2,0,15.7,0
	c0-2.9,0-5.3,0-7.8c0.1-8.3,3.4-11.7,11.6-11.7C237.8,131.5,242.5,131.5,247.8,131.5z M300,189.8c0-29,0-57.7,0-86.8
	c-3.7,0-7.2,0.2-10.7-0.1c-3.4-0.3-4.2,1-4.1,4.2c0.1,26.2,0.1,52.5,0.1,78.7c0,1.2,0,2.4,0,3.9C290.4,189.8,295,189.8,300,189.8z
	 M273.7,189.8c0-22.6,0-44.8,0-67.3c-3.8,0-7.3,0.2-10.7-0.1c-3-0.2-4.1,0.7-4,3.9c0.1,20,0.1,40,0.1,60c0,1.1,0.1,2.2,0.2,3.5
	C264.2,189.8,268.8,189.8,273.7,189.8z M247.8,189.8c0-8.2,0-15.9,0-23.7c0-7.7,0-15.4,0-23.4c-4.1,0-7.6,0.2-11-0.1
	c-3.1-0.2-4.1,0.7-4,3.9c0.2,13.2,0.1,26.5,0.1,39.7c0,1.1,0.1,2.2,0.2,3.5C237.9,189.8,242.6,189.8,247.8,189.8z M221.3,162.3
	c-4.6,0-8.7-0.1-12.8,0.1c-0.7,0-1.9,1-1.9,1.6c-0.1,8.6-0.1,17.2-0.1,25.8c5.2,0,10,0,14.8,0C221.3,180.5,221.3,171.6,221.3,162.3z
	"/>
<path class="st0" d="M257.5,255.8c12.9,0,25.7,0,38.6,0c1.1,0,2.3-0.1,3.4,0.1c2.7,0.6,4.4,2.3,4.5,5.2c0.1,3.1-1.5,4.9-4.4,5.7
	c-0.9,0.3-2,0.2-3,0.2c-26.2,0-52.4,0-78.7,0c-0.4,0-0.7,0-1.1,0c-4-0.1-6.5-2.4-6.4-5.8c0.1-3.2,2.5-5.4,6.3-5.5
	c8.1-0.1,16.2,0,24.3,0C246.5,255.7,252,255.8,257.5,255.8z"/>
<path class="st0" d="M133.8,147.1c-13.2,0-26.5,0-39.7,0c-4.2,0-6.6-2-6.6-5.5c-0.1-3.4,2.3-5.7,6.4-5.8c6.9-0.1,13.7,0,20.6,0
	c19.7,0,39.5-0.1,59.2,0.1c2,0,4.6,0.8,6,2.2c1.1,1.1,1.6,4.1,0.9,5.4c-0.9,1.6-3.3,3.3-5.1,3.4c-6.8,0.4-13.7,0.2-20.6,0.2
	C147.8,147.1,140.8,147.1,133.8,147.1z"/>
<path class="st0" d="M267.4,241.5c-9.6,0-19.2,0-28.8,0c-4.6,0-7.3-2.1-7.2-5.7c0.1-3.4,2.6-5.5,7-5.5c19.5,0,38.9,0,58.4,0
	c4.7,0,7.2,2.1,7.1,5.7c-0.1,3.5-2.5,5.5-7,5.5C287.1,241.5,277.2,241.5,267.4,241.5z"/>
<path class="st0" d="M144.8,121.6c-9.9,0-19.7,0-29.6,0c-4.3,0-6.6-1.9-6.7-5.3c-0.1-3.6,2.4-5.9,6.7-5.9c19.7,0,39.4,0,59.2,0
	c4.3,0,6.8,2.3,6.7,5.8c-0.1,3.4-2.5,5.4-6.7,5.4C164.5,121.6,154.7,121.6,144.8,121.6z"/>
<path class="st0" d="M261.1,281.3c4.5,0,9,0,13.5,0c4.4,0,6.8,2.1,6.8,5.7c0,3.4-2.4,5.5-6.6,5.5c-9.1,0-18.2,0-27.3,0
	c-4,0-6.6-2.2-6.7-5.5c-0.1-3.4,2.6-5.7,6.8-5.7C252.2,281.2,256.6,281.3,261.1,281.3z"/>
<path class="st0" d="M138.4,172.6c-4.7,0-9.5,0.1-14.2,0c-3.8-0.1-6.2-2.3-6.3-5.5c0-3.2,2.4-5.6,6.1-5.7c9.5-0.1,18.9-0.1,28.4,0
	c3.8,0,6,2.4,6,5.7c-0.1,3.3-2.3,5.4-6.2,5.4C147.6,172.6,143,172.6,138.4,172.6z"/>
<path class="st0" d="M222.3,281.3c2.2,0,4.5-0.1,6.7,0c3.3,0.2,5.5,2.4,5.6,5.4c0.1,3.1-2.2,5.6-5.6,5.8c-4.4,0.2-8.7,0.2-13.1,0
	c-3.4-0.1-5.7-2.6-5.6-5.8c0.1-3,2.3-5.2,5.6-5.4C218.1,281.2,220.2,281.3,222.3,281.3z"/>
<path class="st0" d="M99.6,172.6c-2.2,0-4.5,0.1-6.7,0c-3.3-0.2-5.4-2.4-5.4-5.5c0-3.2,1.9-5.3,4.9-5.6c4.7-0.3,9.5-0.3,14.2,0
	c3.2,0.2,5.3,2.9,5,5.9c-0.3,3.1-2.1,5-5.3,5.2C104.1,172.7,101.9,172.5,99.6,172.6z"/>
<path class="st0" d="M98.6,121.5c-3,0-5.5-2.4-5.6-5.4c-0.1-3.1,2.5-5.8,5.6-5.8s5.7,2.7,5.6,5.8
	C104.1,119.2,101.7,121.6,98.6,121.5z"/>
<path class="st0" d="M175.5,166.8c0.1,3-2.2,5.5-5.2,5.7c-3.2,0.2-5.9-2.2-5.9-5.4c-0.1-3.1,2.6-5.8,5.6-5.8
	C172.9,161.4,175.4,163.9,175.5,166.8z"/>
<path class="st0" d="M227.2,236c-0.1,3-2.6,5.5-5.6,5.5c-3.1,0-5.7-2.6-5.6-5.7c0.1-3.1,2.8-5.6,5.9-5.5
	C224.8,230.5,227.3,233.1,227.2,236z"/>
<path class="st0" d="M292.7,281.3c3.1-0.1,5.8,2.5,5.8,5.6c0,2.9-2.5,5.5-5.5,5.6s-5.5-2.3-5.7-5.3
	C287.1,284.1,289.5,281.4,292.7,281.3z"/>
<path class="st0" d="M131.5,50.9c3,0,5.5,2.4,5.5,5.4c0.1,3-2.7,5.8-5.7,5.7c-3.1-0.1-5.6-2.7-5.4-5.9
	C126.1,53.1,128.4,50.8,131.5,50.9z"/>
<path class="st0" d="M196.3,56.5c-0.1,3-2.9,5.6-5.9,5.5c-3-0.2-5.3-2.7-5.2-5.7c0.1-3.2,2.6-5.5,5.8-5.4
	C194,51,196.4,53.6,196.3,56.5z"/>
<path class="st0" d="M249.9,50.9c3.2,0,5.8,2.5,5.7,5.6c-0.1,2.9-2.7,5.5-5.6,5.5c-3.1,0-5.6-2.5-5.6-5.7
	C244.5,53.2,246.8,50.9,249.9,50.9z"/>
<path class="st0" d="M309.4,62c-3,0.1-5.5-2.2-5.7-5.2c-0.2-3.2,2.1-5.8,5.3-5.9c3.2-0.1,5.8,2.4,5.8,5.5
	C314.8,59.3,312.3,61.9,309.4,62z"/>
<path class="st0" d="M108.1,324.6c-19.9-0.2-37.7-12.6-44.3-31.3c-6.6-18.6-0.7-39.7,14.6-52.1c15.5-12.5,37.1-14,54-3.6
	c0.6,0.4,1.3,0.8,1.9,1.2c2.9,2.2,3.6,5.2,1.9,7.8c-1.7,2.6-4.9,3.4-7.9,1.6c-5.5-3.4-11.3-5.7-17.9-6.1
	c-20.1-1.5-37.2,14.1-38,34.5c-0.7,20.1,15.8,36.9,35.9,36.7c20.1-0.3,36-17,35.2-36.9c-0.3-6.1-2-11.8-5-17.1
	c-1.4-2.4-1.7-5.1,0.5-6.8c1.4-1.2,3.9-1.9,5.7-1.6c1.5,0.3,3,2.1,3.9,3.6c15.7,26.8,0.2,62.1-30.1,68.8
	C115.1,323.9,111.6,324.1,108.1,324.6z"/>
<path class="st0" d="M132.3,277.3c0.1,13.6-10.8,24.5-24.4,24.5c-13.4,0-24.2-10.9-24.2-24.3s10.8-24.2,24.2-24.3
	C121.3,253.1,132.2,263.9,132.3,277.3z M121.1,277.3c-0.1-7.2-6-13-13.2-12.9c-7.3,0.1-13,5.9-12.9,13.2c0.1,7.3,5.9,13,13.2,12.9
	C115.4,290.5,121.1,284.6,121.1,277.3z"/>
</svg>
