<?xml version="1.0" encoding="utf-8"?>
<!-- Generator: Adobe Illustrator 19.2.1, SVG Export Plug-In . SVG Version: 6.00 Build 0)  -->
<svg version="1.1" id="Capa_1" xmlns="http://www.w3.org/2000/svg" xmlns:xlink="http://www.w3.org/1999/xlink" x="0px" y="0px"
	 viewBox="0 0 414.6 410.9" style="enable-background:new 0 0 414.6 410.9;" xml:space="preserve">
<style type="text/css">
	.st0{fill:#FF9900;stroke:#000000;stroke-width:0.5;stroke-miterlimit:10;}
</style>
<path class="st0" d="M4.6,276.5c1.8-2.1,3.5-4.3,5.5-6.3C97.9,182.4,185.7,94.6,273.5,6.8c2-2,4.2-3.7,6.3-5.5c1.3,0,2.7,0,4,0
	c4.4,4.1,8.8,8.1,13.1,12.3c7.4,7.3,14.7,14.7,22.1,22c4.2,4.3,4.5,6.5,1.2,11.6c-2.1,3.2-2.4,6.3,0.4,9.1c2.7,2.7,5.9,2.5,9.1,0.5
	c5.3-3.3,7.4-3.1,11.9,1.4c5.5,5.4,11,10.9,16.4,16.4c3.8,3.9,4,6.4,1.1,11c-2.4,3.7-2.3,6.9,0.2,9.4s5.7,2.5,9.4,0.2
	c4.6-2.9,7.1-2.7,10.9,1.1c10.5,10.4,21,20.9,31.4,31.4c4.3,4.3,4.3,7.7,0,12c-6.1,6.2-12.2,12.3-18.4,18.4
	C310.1,240.6,227.5,323.2,145,405.7c-1,1-2,2.1-3.2,3.1c-3.3,2.8-6.6,3-9.7-0.1c-11.3-11.1-22.5-22.3-33.6-33.6
	c-3.1-3.2-2.3-6.7,0.1-10.1c2.3-3.3,2.2-6.8-0.3-9.1c-2.9-2.6-6-2.6-9.1-0.4c-0.4,0.3-0.9,0.6-1.3,0.9c-3.1,2-6.2,1.8-8.8-0.7
	c-6.5-6.3-12.9-12.7-19.2-19.2c-2.8-2.9-2.3-6-0.4-9.5c1.2-2.2,2-5.4,1.3-7.7c-1.1-4.1-6.1-5-10.3-2.3c-5.1,3.2-7.3,3-11.6-1.2
	C28.6,305.6,18.3,295.3,8.1,285c-1.3-1.3-2.3-2.9-3.5-4.3C4.6,279.2,4.6,277.8,4.6,276.5z M21.6,279c7.2,7.2,14.7,14.6,22.1,22.1
	c1.7,1.8,3.2,2,5.6,1.3c14.3-4.1,28,7.3,25.6,22c-1,6,0.6,9.4,4.8,12.6c0.9,0.7,1.8,1.6,2.5,2.5c1.6,2.1,3.3,2.2,5.8,1.5
	c14.6-4.3,28.8,8.5,25.4,23.3c-1.2,5.3,0.5,7.9,4,10.1C204.2,287.6,291,200.8,377.8,114c-2.3-3.5-5-5.2-10.3-3.9
	c-13.3,3.1-25.9-8.3-23.5-22c1.1-6.5-0.9-9.8-5.2-13.3c-1-0.8-1.8-2.1-2.9-2.7c-1.2-0.7-2.8-1.4-4-1c-8,2.2-15.2,0.9-21.1-5
	c-5.8-5.9-7.4-13-5-21c0.3-1.1,0.2-2.8-0.5-3.5c-7.7-7.9-15.6-15.7-23.1-23.2C195.3,105.3,108.6,192.1,21.6,279z M156,374.6
	c74.1-74.1,148-148,221.6-221.6c-2.9-2.9-6-6-8.5-8.5c-73.7,73.7-147.6,147.6-221.6,221.6C150.1,368.7,153.1,371.7,156,374.6z
	 M397.3,133.6c-3-3-6.1-6.1-9.1-9.1c-3.1,3.1-6.2,6.2-9.2,9.3c2.9,2.9,5.9,6,8.9,8.9C391,139.7,394.1,136.7,397.3,133.6z
	 M136.4,393.5c3.4-3.1,6.6-6.1,9.1-8.4c-2.9-3.2-5.7-6.5-7.9-9c-3.3,3.2-6.4,6.2-9.4,9.1C130.9,388,133.9,391,136.4,393.5z"/>
<path class="st0" d="M199.4,153.1c2-3.7,3.1-7.5,5.5-9.9c23.8-24.1,47.7-48,71.7-71.9c6-6,13.9-6,19.9,0
	c12.7,12.5,25.3,25.2,37.9,37.9c6,6.1,6.1,13.9,0.1,20c-23.8,24-47.8,47.9-71.8,71.8c-6.1,6-13.9,6-19.9,0
	c-12.7-12.5-25.4-25.1-37.8-37.9C202.7,160.4,201.5,156.7,199.4,153.1z M324.6,119.6c-12.8-12.8-25.6-25.6-38.1-38
	c-23.7,23.7-47.7,47.7-71.3,71.3c12.6,12.5,25.4,25.3,37.6,37.6c4.4-4.4,9.1-9,13.8-13.7c-6.6-7.5-7.7-10.6-4.2-13.7
	c6.8-6.1,10.2,1.1,14,3.8c3.4-3.2,6.6-6.2,9.7-9.1c-6.8-8.1-7.9-10.8-4.4-14c6.7-6.1,10.2,1,14.1,3.8c3.4-3.1,6.6-6.1,9.8-9.1
	c-3.2-4.2-10.3-7.8-4.5-13.9c6.2-6.5,10.1,0.8,14.4,4.1C318.8,125.3,321.9,122.3,324.6,119.6z"/>
<path class="st0" d="M195.3,264.1c-2,3.7-3.4,7.2-5.7,9.9c-4.2,4.8-8.9,9.2-13.5,13.6c-6.3,6-14,6.1-20.3,0
	c-12.6-12.4-25.1-25-37.6-37.6c-6.3-6.3-6.1-14.1,0.1-20.5c4.4-4.5,8.8-8.9,13.3-13.3c6.3-6,14-6.1,20.2,0
	c12.7,12.5,25.4,25.1,37.8,37.9C192.1,256.7,193.3,260.5,195.3,264.1z M179.9,264.1c-12.8-12.8-25.5-25.5-37.9-37.9
	c-4.6,4.5-9.3,9.1-13.6,13.3c12.7,12.7,25.4,25.4,38,38C170.6,273.3,175.3,268.7,179.9,264.1z"/>
<path class="st0" d="M185.4,167.3c3.7,2.1,7.5,3.3,10.1,5.8c12.7,12.3,25.2,24.9,37.6,37.5c6.1,6.2,5.9,14-0.1,20.3
	c-4.4,4.6-8.9,9.1-13.6,13.5c-6.2,5.9-13.9,6-20,0c-12.8-12.6-25.5-25.3-38.1-38.1c-5.8-5.9-5.6-13.7,0.1-19.7
	c4.5-4.7,9-9.5,13.9-13.8C178,170.5,181.6,169.3,185.4,167.3z M171.8,195.9c12.8,12.8,25.6,25.5,37.6,37.6c4.3-4.2,9-8.8,13.3-13
	c-12.5-12.5-25.1-25.2-37.8-37.8C180.6,187.1,176,191.7,171.8,195.9z"/>
<path class="st0" d="M151.8,307.4c-2,3.7-3.3,7.3-5.6,10c-4.2,4.9-9,9.4-13.8,13.9c-6.2,5.9-13.9,5.9-20,0
	c-12.7-12.5-25.3-25.2-37.9-37.9c-6-6.1-6-13.8-0.2-19.9c4.5-4.7,9.1-9.3,13.8-13.8c6.1-5.8,13.9-5.9,20,0
	c12.7,12.5,25.4,25.1,37.8,37.9C148.5,300,149.7,303.7,151.8,307.4z M84.9,283.3c12.4,12.4,25.2,25.2,37.6,37.6
	c4.4-4.4,9.1-9.1,13.5-13.5c-12.4-12.4-25.1-25.1-37.7-37.7C93.9,274.2,89.2,278.9,84.9,283.3z"/>
<path class="st0" d="M56.8,278.3c0.1,3.7-3,6.9-6.7,6.9c-3.5,0-6.6-3.1-6.7-6.6c-0.1-3.6,3.1-7,6.8-7
	C53.6,271.8,56.7,274.8,56.8,278.3z"/>
<path class="st0" d="M282,40.1c3.6,0.1,6.6,3.1,6.6,6.6c0,3.7-3.2,6.8-6.9,6.8c-3.7,0-6.8-3.3-6.6-7C275.3,42.9,278.4,40.1,282,40.1
	z"/>
<path class="st0" d="M275,128.4c-1.4,2.4-2,4.4-3.3,5.7c-6,6.2-12.1,12.3-18.3,18.4c-3.2,3.1-7.2,3.2-10,0.5s-2.8-6.9,0.2-10
	c6.1-6.3,12.4-12.5,18.7-18.6c2.3-2.2,5.1-3.4,8-1.5C272.1,124.2,273.3,126.4,275,128.4z"/>
<path class="st0" d="M293.4,109.7c-0.1,3.7-3.4,6.8-7.1,6.6c-3.5-0.2-6.5-3.5-6.4-6.9c0.1-3.7,3.4-6.7,7.1-6.5
	C290.6,103,293.5,106.1,293.4,109.7z"/>
</svg>
