<?xml version="1.0" encoding="utf-8"?>
<!-- Generator: Adobe Illustrator 19.2.1, SVG Export Plug-In . SVG Version: 6.00 Build 0)  -->
<svg version="1.1" id="Capa_1" xmlns="http://www.w3.org/2000/svg" xmlns:xlink="http://www.w3.org/1999/xlink" x="0px" y="0px"
	 viewBox="0 0 416 410" style="enable-background:new 0 0 416 410;" xml:space="preserve">
<style type="text/css">
	.st0{fill:#FF9900;stroke:#000000;stroke-width:0.5;stroke-miterlimit:10;}
</style>
<g>
	<path class="st0" d="M402.8,49.3c0,2.5,0,5,0,7.5c-2,6-6.1,10.4-10.5,14.7c-9.9,9.7-19.6,19.6-29.4,29.4c-0.9,0.9-1.8,1.9-3.3,3.5
		c8.2,0,15.5,0,22.8,0c6.9,0,12.8,2.3,16.8,8.2c1.5,2.2,2.4,4.8,3.6,7.3c0,87.8,0,175.5,0,263.3c-2.3,8.2-7.6,13.4-15.8,15.8
		c-107.3,0-214.5,0-321.8,0c-0.7-0.2-1.4-0.5-2.1-0.7c-21.8-4.1-35.9-16.8-42.6-37.9c-0.7-2.4-1.2-4.8-1.8-7.2
		c0-97.8,0-195.5,0-293.3c0.2-0.7,0.6-1.4,0.7-2.1c4.2-21.1,16.7-34.8,37.1-41.2c2.3-0.7,4.8-1.2,7.2-1.8c7.5,0,15,0,22.5,0
		c12.5,5,15.7,9.9,15.7,23.5c0,20.6,0,41.2,0,61.8c0,1.3,0,2.6,0,4.2c1.5,0,2.5,0,3.5,0c52.8,0,105.7,0,158.5-0.1
		c1.8,0,4.1-1.1,5.4-2.4c25.8-25.6,51.5-51.3,77.2-77.1c4.2-4.2,8.4-8.1,14.1-10c2.5,0,5,0,7.5,0c5.7,1.6,10,5.2,14,9.4
		c3.5,3.7,7.1,7.3,10.8,10.8C397.4,39,401.1,43.4,402.8,49.3z M102,117.4c0,1.9,0,3.4,0,4.8c0,55.2,0,110.5,0,165.7
		c0,13.4-7.8,21.1-21.2,21.3c-5,0-10-0.1-15,0.3c-21,1.6-37.3,22.6-33.7,43.3c3.4,19.8,19.6,33.1,40.7,33.1c102.9,0,205.7,0,308.6,0
		c6.5,0,8.6-2.1,8.6-8.5c0-84,0-168,0-252c0-6.2-2.1-8.3-8.3-8.3c-10.4,0-20.7,0.1-31.1-0.1c-2.8,0-4.9,0.7-6.9,2.8
		c-18.8,19-37.8,37.9-56.6,56.8c-4.1,4.1-8.8,7.3-14.5,7.9c-9.7,1.2-19.4,2.6-29.1,2.7c-28.5,0.4-57,0.1-85.5,0.1
		c-1.5,0-2.9,0-4.6,0c0,23.6,0,46.8,0,70.1c51.2,0,102.2,0,153.4,0c0-1.5,0-2.8,0-4c0-8.7,0-17.5,0-26.2c0-4.7,2.5-7.7,6.3-7.8
		c4-0.1,6.4,2.9,6.5,7.9c0,0.6,0,1.2,0,1.9c0,29.9,0,59.7,0,89.6c0,11.3-4.6,15.9-15.9,15.9c-40.5,0-81,0-121.5,0
		c-1.9,0-3.8,0-5.5-0.6c-2.9-1-4.3-3.3-4.1-6.4c0.3-3.1,2-5.1,5.1-5.6c1.3-0.2,2.7-0.2,4.1-0.2c12.5,0,25,0,37.5,0
		c1.3,0,2.7,0,4.1,0c0-17.3,0-34.1,0-51c-23.5,0-46.7,0-70.2,0c0,1.8,0,3.3,0,4.8c0,27.1,0,54.2,0,81.4c0,1.2,0.1,2.5-0.1,3.7
		c-0.3,3.3-2.7,5.5-5.9,5.7c-3.2,0.2-5.9-1.8-6.6-4.9c-0.3-1.4-0.2-3-0.2-4.5c0-55,0-110,0-165c0-1.5,0-2.9,0-4.7
		c-6.6,0-12.7,0.1-18.8,0c-4-0.1-6.6-2.5-6.8-6.1c-0.2-3.6,2.5-6.4,6.6-6.7c1.1-0.1,2.2,0,3.4,0c33.6,0,67.2,0,100.9,0
		c1.5,0,2.9,0,4.2,0c0.4-5.3,0.8-10.1,1.2-14.9c1.8-21.1,1.8-21.1,16.8-36.2c1.9-1.9,3.8-3.8,6.2-6.2
		C202.9,117.4,152.7,117.4,102,117.4z M31.5,312.4c5.3-3.7,10.2-7.4,15.4-10.5c10-5.8,21.2-5.8,32.4-5.7c8.2,0.1,9.8-1.6,9.8-9.8
		c0-83,0-165.9,0-248.9c0-1.4,0.1-2.8-0.1-4.1c-0.5-3.4-2.5-5.8-5.9-5.8c-7.3,0-14.9-0.4-22,1.1c-18.2,3.8-29.7,19.4-29.7,38.9
		c0,80.5,0,160.9,0,241.4C31.5,310.2,31.5,311.4,31.5,312.4z M323.4,67.5c-23.1,23.1-46.2,46.2-68.9,68.9c8.8,8.8,18,18,26.8,26.9
		c22.9-22.9,46-45.9,69-68.9C341.3,85.4,332.1,76.3,323.4,67.5z M236.6,270.9c0,17.2,0,34,0,50.9c23.5,0,46.7,0,70,0
		c0-17,0-33.9,0-50.9C283.2,270.9,260,270.9,236.6,270.9z M378.8,66.8c3.2-3.3,6.4-6.4,9.4-9.7c2.4-2.7,2.5-5.9,0-8.5
		c-6.3-6.6-12.8-13-19.3-19.3c-2.3-2.2-5.5-2.6-7.9-0.5c-3.6,3.2-6.6,7-9.9,10.4C360.2,48.2,369.3,57.2,378.8,66.8z M368.8,76.4
		c-9.4-9.4-18.5-18.6-27.1-27.3c-2.9,2.9-5.9,5.9-8.5,8.4c8.9,8.9,18.1,18.1,27.2,27.2C363.1,82,366.1,79.1,368.8,76.4z
		 M269.2,172.4c-8.1-8-16.2-16.1-24.1-24c-0.7,6.4-1.6,13.6-2.2,20.8c-0.3,4,1.4,5.7,5.2,5.4C255.5,173.9,262.8,173.1,269.2,172.4z"
		/>
</g>
</svg>
