<?xml version="1.0" encoding="utf-8"?>
<!-- Generator: Adobe Illustrator 19.2.1, SVG Export Plug-In . SVG Version: 6.00 Build 0)  -->
<svg version="1.1" id="Capa_1" xmlns="http://www.w3.org/2000/svg" xmlns:xlink="http://www.w3.org/1999/xlink" x="0px" y="0px"
	 viewBox="0 0 96.8 97.1" style="enable-background:new 0 0 96.8 97.1;" xml:space="preserve">
<style type="text/css">
	.st0{fill:#FF9900;stroke:#FFFFFF;stroke-width:0.5;stroke-miterlimit:10;}
	.st1{fill:#FEFEFE;}
	.st2{fill:#FDFEFD;}
	.st3{fill:#FEFEFD;}
	.st4{fill:#FCFDFA;}
	.st5{fill:#F9FBF6;}
	.st6{fill:#F3F8ED;}
</style>
<path class="st0" d="M86.8,22.8c9.6,0.4,10,0.8,10,10.1c0,18.8,0,37.7,0,56.5c0,6.4-1.3,7.7-7.5,7.7c-25,0-50,0-75,0
	C4.7,97.1,0,92.3,0,82.6c0-23,0-46,0-69c0-9,6.8-14.8,15.8-13.5c3.4,0.5,4.9,2.6,5,5.9c0.1,4.3,0.1,8.7,0,13c-0.1,2.6,0.5,4,3.5,3.9
	c11.8-0.1,23.7-0.1,35.5,0c2.5,0,4-1.4,5.5-2.9c5.6-5.7,11.3-11.3,17-17c4.2-4.2,5.6-4,10.6,1.1c5,5,5.1,6.2,0.8,10.6
	c-2.3,2.4-4.6,4.8-6.9,7.2C86.7,22,86.8,22.3,86.8,22.8z"/>
<path class="st1" d="M59.3,26.1c-4.8,3.8-6.6,7.7-6.4,12.4c0.1,2.6-1.8,2.3-3.5,2.3c-7.3,0-14.7,0-22,0c-1.2,0-3.1-0.6-3.3,1.3
	c-0.2,1.8,1.6,1.9,2.9,1.8c3.6-0.3,3,2.2,3,4.3c0,11.5,0,23,0,34.5c0,1,0,2,0,3c0,1.3,0,3,1.7,3.1c1.9,0.1,1.8-1.7,1.8-3
	c0.1-5,0.4-10-0.1-15c-0.4-4.9,1.3-6.7,6.1-5.9c1.5,0.2,3,0,4.5,0c8,0.1,6.9-1,7,6.8c0.1,6.1,0,6-6.7,6.2c-2,0.1-5.5-1.3-5.5,1.4
	c-0.1,2.9,3.4,1.6,5.3,1.6c8.7,0.2,17.3,0,26,0.1c3.5,0.1,5.5-1.1,5.5-4.8c0-7,0-14,0-21c0-1.3,0.2-3-1.7-3.1
	c-1.8,0-2.1,1.7-1.8,2.9c1.3,6.5-2.3,6.8-7.3,6.7c-8.5-0.3-17-0.3-25.5,0c-4.2,0.1-6.7-0.5-5.8-5.6c0.5-2.7,0.3-5.7,0-8.5
	c-0.2-3.1,1.1-3.9,4-3.9c8-0.1,16,0.7,23.9-0.5c2.8-0.4,5-1.5,6.9-3.5c3.7-3.8,7.5-7.6,11.3-11.3c1.3-1.3,2.5-2.4,4.6-2.6
	c8.8-0.6,8.8-0.7,8.8,8.2c0,18.3-0.1,36.7,0.1,55c0,3.7-1,4.9-4.8,4.8C63.7,94,38.9,94.1,14,94c-6.6,0-11-4-11.1-9.6
	c-0.1-5.6,4.3-9.6,10.8-10c6-0.3,7-1.4,7-7.6c0-12.2,0-24.3,0-36.5c0-2.6,0.1-4.4,3.6-4.3C35.5,26.2,46.7,26.1,59.3,26.1z"/>
<path class="st2" d="M2.9,75.4c0-21.5-0.1-42.1,0.1-62.7c0-5.7,5-9.6,10.8-9.4c2.5,0.1,3.5,1.1,3.5,3.6c0,20.3-0.1,40.5,0,60.8
	c0,2.5-0.8,3.7-3.4,3.5C10,71,6.7,72.3,2.9,75.4z"/>
<path class="st3" d="M83.6,19.9c-1.1,1.3-1.7,2.1-2.4,2.7c-3.6,3.7-7.6,7-10.8,11c-3.3,4-5.6,4.1-8.9,0.1c-1.8-2.2-2.7-3.1-0.2-5.3
	c4.2-3.7,8-8,12.1-11.9c1-1,1.8-3.5,3.8-2.2C79.4,15.7,81.3,17.9,83.6,19.9z"/>
<path class="st2" d="M63.5,65c9.6,0,9.6,0,8.7,10c-0.2,2.1-0.8,3-2.9,2.9c-2-0.1-4,0-5.9,0c-8.6,0-8.4,0-8.7-8.4
	c-0.2-3.7,0.7-5.2,4.5-4.6C60.5,65.2,62,65,63.5,65z"/>
<path class="st4" d="M86.9,3.1c2.5,1.9,5,3.6,6.1,6.4c0.6,1.5-1.1,2.6-2.3,3.3c-0.5,0.3-6.7-5.5-6.6-6.3C84.2,4.8,85.7,4.3,86.9,3.1
	z"/>
<path class="st5" d="M81.2,8.9c2.5,2.3,5.1,4.1,6.5,6.9c0.3,0.7-1.1,2.2-1.9,1.7c-2.7-1.5-5-3.7-6.4-6.5
	C78.9,10.1,80.4,9.6,81.2,8.9z"/>
<path class="st6" d="M56.9,34c2,2.1,3.7,3.8,5.6,5.8c-1.9,0.3-4.1,1.8-5.7,0.3C55.2,38.5,56.6,36.3,56.9,34z"/>
</svg>
