<?xml version="1.0" encoding="utf-8"?>
<!-- Generator: Adobe Illustrator 19.2.1, SVG Export Plug-In . SVG Version: 6.00 Build 0)  -->
<svg version="1.1" id="Capa_1" xmlns="http://www.w3.org/2000/svg" xmlns:xlink="http://www.w3.org/1999/xlink" x="0px" y="0px"
	 viewBox="0 0 282 67.5" style="enable-background:new 0 0 282 67.5;" xml:space="preserve">
<style type="text/css">
	.st0{fill:#FF9900;stroke:#0C0600;stroke-width:0.5;stroke-miterlimit:10;}
	.st1{stroke:#000000;stroke-miterlimit:10;}
</style>
<path d="M48.5,51.9c0.9,2.5,1.5,4.9,2.3,7.1c0.2,0.3,0.9,0.5,1.3,0.6c2.2,0.1,4.4,0,6.8,0c0.2,1.1,0.3,2.1,0.6,3.3
	c-1,0.2-1.9,0.4-2.8,0.4c-12.8,0-25.6,0-38.5,0c-1.4,0-2.2-0.3-2.2-1.7c0-1.3,0.5-2.2,2.1-2.1c1.7,0.1,3.4,0,5.2,0
	c0.9,0,1.2-0.3,1.5-1.1c0.7-2.1,1.5-4.2,2.4-6.6c-0.8,0-1.3-0.1-1.9-0.1c-5.2,0-10.4,0-15.7,0c-3,0-5.6-2.4-5.6-5.4
	C4,33.4,4,20.6,4,7.6c0-2.9,2.5-5.3,5.5-5.3c3.9,0,7.7,0.1,11.6,0.1c14.6,0,29.2,0,43.8-0.1c2,0,3.8,0.3,5,2c0.6,0.9,1.3,2,1.3,3.1
	c0.2,12.5,0.2,24.8,0.3,37.3c0,2.3-0.2,4.5-2.5,5.8c-1,0.6-2.2,1.1-3.4,1.1C60.1,52,54.4,51.9,48.5,51.9z M67.5,40.5
	c0-0.5,0-0.9,0-1.3c0-10,0-19.9,0-30c0-2.7-0.3-2.9-3.1-2.9c-17.4,0-34.8,0-52.2,0c-0.8,0-1.6,0-2.4,0c-1,0-1.5,0.5-1.7,1.5
	C8,8.4,8,9,8,9.7C8,19.5,8,29.2,8,39c0,0.5,0,0.9,0.1,1.4c2.8,0,5.3,0,8,0c0-1.1,0-2,0-2.9c0-4.3,0-4.3,4.4-4.6c0.4,0,0.9-0.3,1-0.4
	c0.2-0.4,0-1-0.2-1.5c-0.2-0.3-0.6-0.4-0.9-0.7c-1.7-1.7-2-2.4-0.9-3.5c1.9-1.9,3.8-3.9,5.9-5.6c0.4-0.4,1.5-0.3,2.2-0.1
	c0.6,0.3,1,1.1,1.5,1.4c0.6,0.3,1.3,0.6,2,0.6c0.3,0,0.6-0.8,0.7-1.3c0.2-0.4,0-0.9,0-1.4c0-2.2,0.3-2.5,2.7-2.5
	c2.3,0,4.7,0.1,7.1,0c1.3-0.1,1.8,0.5,1.9,1.6c0.2,0.9,0.1,1.8,0.3,2.7c0.1,0.4,0.4,1,0.7,1.1c0.4,0.1,1-0.2,1.5-0.4
	c0.5-0.3,0.8-0.8,1.3-1.2c1.7-1.3,2.1-1.3,3.6,0.2c1.4,1.3,2.8,2.6,4.1,4c2.4,2.7,2.4,2.1-0.2,4.8c-0.5,0.6-0.8,1.4-1.3,2.4
	c1.6,0,2.8,0,3.8,0c1.4,0,2.2,0.5,2.2,2c-0.1,1.9,0,3.6,0,5.6C62.2,40.5,64.8,40.5,67.5,40.5z M35.7,21.5c0.9,3.2-0.6,4.5-3.4,5.1
	c-0.6,0.2-1.1,0.8-1.7,0.8c-0.8,0.1-1.7-0.1-2.3-0.4c-0.6-0.3-1-1-1.5-1.5c-0.5,0.5-1.1,1-1.6,1.5c0,0-0.1,0.1-0.2,0.1
	c-1.4,0.9-0.9,1.5,0.3,2.1c0.4,0.2,0.9,0.8,0.9,1.1c-0.7,2-1.3,4.1-2.3,6c-0.3,0.5-1.8,0.3-2.8,0.4c-0.3,0-0.6,0.2-0.9,0.3
	c0,1.2,0,2.3,0,3.4c2.7,0,5.2,0,8,0c-0.4-3.1,0.3-5.7,2.3-8c2.1-2.4,4.7-3.3,7.7-3.2c6,0.2,9.4,4.2,9.5,11.2c2.6,0,5.2,0,7.8,0
	c0-1.3,0-2.4,0-3.6c-3.8,0-3.5-0.2-5.2-3.4c-1.2-2.4-0.8-4,1.5-5.1c-0.5-0.7-0.9-1.2-1.4-1.7c-1.1-1.3-2-1.3-2.8,0.2
	c-0.6,1-1.4,1.3-2.4,0.8c-0.9-0.4-1.7-0.8-2.7-1.1c-2.7-1-2.7-1-2.8-4c0-0.3-0.1-0.6-0.2-0.9C38.4,21.5,37.2,21.5,35.7,21.5z
	 M67.5,44.4c-19.9,0-39.7,0-59.4,0c-0.5,3.4-0.3,3.7,3.1,3.7c17.9,0,35.8,0,53.7,0c0.5,0,1.1,0.1,1.5-0.2c0.4-0.2,0.9-0.7,0.9-1.2
	C67.6,46.1,67.5,45.3,67.5,44.4z M46.9,59.6c-0.9-2.5-1.5-4.8-2.4-7c-0.1-0.3-0.8-0.6-1.1-0.6c-3.6,0-7.3-0.1-10.9,0
	c-0.4,0-1,0.4-1.2,0.8c-0.9,2.2-1.6,4.5-2.5,6.8C34.8,59.6,40.8,59.6,46.9,59.6z M43.5,40.4c0.7-2.4-0.2-4.8-2.2-6.3
	c-1.8-1.3-4.5-1.5-6.4-0.4c-2.6,1.5-3.4,3.5-2.8,6.7C35.9,40.4,39.7,40.4,43.5,40.4z"/>
<path class="st0" d="M174.2,31.2c-1.3,0-2.2,0-3.4,0c0-6.9,0-13.8,0-20.7c1.1,0,2.2,0,3.4,0c0,2.6,0.1,5.2,0,7.7
	c0,1.3,0.4,1.8,1.7,1.7c2.5-0.1,5-0.1,7.4,0c1.5,0.1,1.8-0.5,1.7-1.9c-0.2-2.4,0-5,0-7.5c1.2,0,2.4,0,3.7,0c0,2.2,0,4.3,0,6.5
	c0,4-0.1,8.2,0.1,12.2c0.1,1.7-0.5,2.2-2.1,2c-0.5-0.1-1-0.1-1.7-0.1c0-2.3-0.1-4.5,0-6.7c0.1-1.2-0.3-1.6-1.5-1.5
	c-2.7,0.1-5.2,0.1-7.9,0c-1.1,0-1.4,0.4-1.4,1.4C174.2,26.6,174.2,28.8,174.2,31.2z"/>
<path class="st0" d="M218.3,10.4c-3.5,7.3-6.9,14.4-10.5,21.9c-4.1-7.3-7.4-14.6-10.7-21.8c0.2-0.1,0.3-0.2,0.3-0.2
	c3.2-0.6,4.5,1.3,5.4,3.9c1.3,3.3,2.8,6.5,4.3,9.7c0.2,0.3,0.4,0.5,0.8,1c0.3-0.5,0.5-0.8,0.7-1.2c1.6-3.8,3.3-7.6,4.8-11.4
	c0.7-1.5,1.5-2.3,3.3-1.9C217.1,10.5,217.6,10.4,218.3,10.4z"/>
<path class="st0" d="M151.7,31.2c0-5.4-0.1-10.6,0-15.8c0-1.5-0.4-2-1.9-1.9c-1.8,0.1-3.5,0-5.4,0c0-1,0-1.9,0-2.9
	c5.9,0,11.7,0,17.7,0c0,0.3,0.2,0.7,0.2,1c0.1,2,0.1,2-2.1,1.9c-1,0-2.2,0.1-3.3,0c-1.2-0.1-1.8,0.3-1.8,1.6c0,4.5,0,9.1,0,13.6
	c0,2.5,0.2,2.5-2.4,2.6C152.4,31.2,152.2,31.2,151.7,31.2z"/>
<path d="M57.3,21.5c-2.9,0.4-5.8-3.2-5.7-5.5c0.2-3.4,2.8-6,6-6c3.1,0,5.9,2.9,5.9,5.8C63.5,19.1,60.8,21.5,57.3,21.5z M57.9,18.1
	c0.7-1,2.3-1.6,1.3-3.1c-0.4-0.6-1.5-1.1-2.1-0.9s-1.3,1.1-1.5,1.8C55.4,17.3,56.8,17.4,57.9,18.1z"/>
<g>
	<g>
		<path class="st1" d="M84.6,49c0.8,0.5,1.8,0.8,3,0.8c2,0,3.1-0.9,3.1-2.2c0-1.3-0.7-1.9-2.8-2.4c-2.8-0.7-3.4-1.5-3.4-2.8
			c0-1.4,1.5-2.6,3.5-2.6c1.2,0,2.2,0.3,2.6,0.5c-0.1,0.2-0.2,0.3-0.3,0.5c-0.3-0.2-1.1-0.6-2.3-0.6c-2.2,0-2.9,1.2-2.9,2
			c0,1.1,0.7,1.8,2.8,2.3c2.2,0.5,3.4,1.2,3.4,2.9c0,1.3-1,2.9-3.9,2.9c-1.1,0-2.4-0.3-3.2-0.8C84.5,49.4,84.6,49.3,84.6,49z"/>
		<path class="st1" d="M95.1,46.4c0,2.4,1.5,3.5,3.5,3.5c1.4,0,2-0.3,2.5-0.4c0.1,0.2,0.1,0.3,0.2,0.4c-0.3,0.2-1.2,0.5-2.8,0.5
			c-2.5,0-4.1-1.6-4.1-3.8c0-2.6,1.8-4.1,4-4.1c2.8,0,3.4,2.2,3.4,3.4c0,0.2,0,0.3,0,0.5C99.1,46.4,97.7,46.4,95.1,46.4z
			 M101.2,45.8c0-0.9-0.4-2.9-2.8-2.9c-2.1,0-3,1.5-3.2,2.9C97.5,45.8,98.7,45.8,101.2,45.8z"/>
		<path class="st1" d="M104.7,45.3c0-0.8,0-1.7-0.1-2.6c0.3,0,0.3,0,0.6,0c0,1,0,1.5,0,2.6l0,0c0.5-1.9,1.8-2.8,3.4-2.8
			c0.3,0,0.6,0,0.9,0.2c0,0.3-0.1,0.3-0.1,0.5c-0.3-0.1-0.6-0.1-0.9-0.1c-1.5,0-2.7,0.9-3.2,3.2c-0.1,0.3-0.1,0.9-0.1,1.3
			c0,1,0,1.6,0,2.6c-0.3,0-0.4,0-0.7,0C104.7,48.3,104.7,47.2,104.7,45.3z"/>
		<path class="st1" d="M111.2,42.7c0.9,1.9,1.3,2.9,2.1,4.8c0.3,0.8,0.6,1.4,0.9,2.1l0,0c0.3-0.7,0.6-1.3,0.9-2.1
			c0.9-1.9,1.3-2.9,2.1-4.8c0.3,0,0.4,0,0.7,0c-1.4,3-2.1,4.5-3.4,7.6c-0.3,0-0.3,0-0.5,0c-1.3-3-2-4.5-3.4-7.6
			C110.9,42.7,111,42.7,111.2,42.7z"/>
		<path class="st1" d="M121.3,40.5c0,0.3-0.3,0.6-0.6,0.6s-0.6-0.3-0.6-0.6s0.3-0.7,0.6-0.7S121.3,40.1,121.3,40.5z M120.3,50.2
			c0-3,0-4.5,0-7.6c0.3,0,0.4,0,0.7,0c0,3,0,4.5,0,7.6C120.7,50.2,120.6,50.2,120.3,50.2z"/>
		<path class="st1" d="M131.1,49.8c-0.3,0.2-1.3,0.6-2.7,0.6c-2.5,0-4.2-1.6-4.2-3.9c0-2.5,2-4,4.5-4c1.2,0,2.2,0.3,2.4,0.5
			c-0.1,0.2-0.2,0.3-0.3,0.5c-0.5-0.3-1.2-0.5-2.2-0.5c-2.5,0-3.8,1.6-3.8,3.4c0,2,1.5,3.4,3.6,3.4c1.2,0,1.9-0.3,2.4-0.5
			C130.9,49.5,131,49.7,131.1,49.8z"/>
		<path class="st1" d="M135.2,40.5c0,0.3-0.3,0.6-0.6,0.6s-0.6-0.3-0.6-0.6s0.3-0.7,0.6-0.7C135,39.9,135.2,40.1,135.2,40.5z
			 M134.3,50.2c0-3,0-4.5,0-7.6c0.3,0,0.4,0,0.7,0c0,3,0,4.5,0,7.6C134.6,50.2,134.5,50.2,134.3,50.2z"/>
		<path class="st1" d="M146,46.4c0,2.6-2.1,4-4.3,4c-2.3,0-4-1.7-4-3.9c0-2.6,2.1-4,4.1-4C144.3,42.5,146,44.2,146,46.4z
			 M138.3,46.5c0,2.1,1.7,3.4,3.5,3.4c2.4,0,3.6-1.7,3.6-3.4c0-2.1-1.7-3.4-3.5-3.4C139.5,43,138.3,44.8,138.3,46.5z"/>
		<path class="st1" d="M148.8,49.3c0.5,0.3,1.6,0.6,2.5,0.6c1.5,0,2.6-0.7,2.6-1.6c0-1-0.9-1.3-2.2-1.7c-0.3-0.1-0.3-0.1-0.6-0.2
			c-1.5-0.4-2.2-0.9-2.2-1.9c0-1.2,1.2-2.1,3-2.1c0.8,0,1.8,0.2,2.3,0.5c-0.2,0.2-0.2,0.3-0.3,0.5c-0.3-0.2-1.2-0.5-2.2-0.5
			c-1.2,0-2.2,0.6-2.2,1.5s1,1.2,2.2,1.5c0.2,0.1,0.3,0.1,0.5,0.2c1.5,0.4,2.3,0.9,2.3,2.1c0,1.3-1.3,2.1-3.2,2.1
			c-0.9,0-2.1-0.3-2.8-0.6C148.7,49.6,148.7,49.5,148.8,49.3z"/>
		<path class="st1" d="M174.9,38.9c0,3.2,0,6.3,0,9.5c0,0.6,0,1.2,0.1,1.8c-0.3,0-0.3,0-0.6,0c0-0.7,0-0.9-0.1-1.6l0,0
			c-0.4,0.9-1.5,1.8-3.3,1.8c-2.2,0-3.8-1.7-3.8-3.8c0-2.4,1.8-4.1,4-4.1c1.7,0,2.7,0.8,3,1.4l0,0c0-2,0-3,0-5
			C174.6,38.9,174.6,38.9,174.9,38.9z M174.3,45.7c0-0.3,0-0.5-0.1-0.8c-0.3-1.1-1.5-1.9-3-1.9c-2,0-3.4,1.4-3.4,3.5
			c0,1.7,1,3.4,3.4,3.4c1.4,0,2.7-0.9,3-2.2c0.1-0.2,0.1-0.4,0.1-0.7C174.3,46.5,174.3,46.3,174.3,45.7z"/>
		<path class="st1" d="M178.3,46.4c0,2.4,1.5,3.5,3.5,3.5c1.4,0,2-0.3,2.5-0.4c0.1,0.2,0.1,0.3,0.2,0.4c-0.3,0.2-1.2,0.5-2.8,0.5
			c-2.5,0-4.1-1.6-4.1-3.8c0-2.6,1.8-4.1,4-4.1c2.8,0,3.4,2.2,3.4,3.4c0,0.2,0,0.3,0,0.5C182.3,46.4,181,46.4,178.3,46.4z
			 M184.4,45.8c0-0.9-0.4-2.9-2.8-2.9c-2.1,0-3,1.5-3.2,2.9C180.7,45.8,181.9,45.8,184.4,45.8z"/>
		<path class="st1" d="M199.2,40.5c0,0.3-0.3,0.6-0.6,0.6s-0.6-0.3-0.6-0.6s0.3-0.7,0.6-0.7C198.9,39.9,199.2,40.1,199.2,40.5z
			 M198.2,50.2c0-3,0-4.5,0-7.6c0.3,0,0.4,0,0.7,0c0,3,0,4.5,0,7.6C198.6,50.2,198.5,50.2,198.2,50.2z"/>
		<path class="st1" d="M202.4,44.4c0-0.6,0-1.1-0.1-1.8c0.3,0,0.3,0,0.6,0c0,0.6,0,0.9,0.1,1.5l0,0c0.5-1,1.7-1.7,3.1-1.7
			c0.7,0,3.1,0.3,3.1,3.4c0,1.7,0,2.6,0,4.3c-0.3,0-0.4,0-0.7,0c0-1.8,0-2.6,0-4.4c0-1.5-0.7-2.9-2.6-2.9c-1.3,0-2.5,0.8-2.8,1.9
			c-0.1,0.2-0.2,0.4-0.2,0.7c0,1.9,0,2.8,0,4.6c-0.3,0-0.4,0-0.7,0C202.4,47.9,202.4,46.8,202.4,44.4z"/>
		<path class="st1" d="M219.5,49.1c0,1.3-0.2,2.2-0.5,2.9c-0.7,1.2-2.2,1.6-3.4,1.6c-1.1,0-2.2-0.3-3-0.8c0.1-0.2,0.2-0.3,0.3-0.4
			c0.7,0.4,1.6,0.8,2.8,0.8c1.9,0,3.3-0.9,3.3-3.3c0-0.5,0-0.7,0-1.2l0,0c-0.5,0.8-1.5,1.7-3.3,1.7c-2.3,0-3.8-1.8-3.8-3.7
			c0-2.6,2-4,4-4c1.8,0,2.8,0.9,3.1,1.6l0,0c0-0.6,0-0.8,0.1-1.4c0.3,0,0.3,0,0.6,0c0,0.6-0.1,1.2-0.1,1.8
			C219.5,46.4,219.5,47.3,219.5,49.1z M218.9,45.7c0-0.3,0-0.6-0.2-0.8c-0.4-1-1.5-1.9-2.9-1.9c-2,0-3.4,1.4-3.4,3.4
			c0,1.6,1,3.3,3.4,3.3c1.3,0,2.5-0.8,2.9-1.9c0.1-0.3,0.2-0.6,0.2-0.8C218.9,46.5,218.9,46.2,218.9,45.7z"/>
		<path class="st1" d="M222.9,46.4c0,2.4,1.5,3.5,3.5,3.5c1.4,0,2-0.3,2.5-0.4c0.1,0.2,0.1,0.3,0.2,0.4c-0.3,0.2-1.2,0.5-2.8,0.5
			c-2.5,0-4.1-1.6-4.1-3.8c0-2.6,1.8-4.1,4-4.1c2.8,0,3.4,2.2,3.4,3.4c0,0.2,0,0.3,0,0.5C226.9,46.4,225.6,46.4,222.9,46.4z
			 M229,45.8c0-0.9-0.4-2.9-2.8-2.9c-2.1,0-3,1.5-3.2,2.9C225.4,45.8,226.6,45.8,229,45.8z"/>
		<path class="st1" d="M232.5,44.4c0-0.6,0-1.1-0.1-1.8c0.3,0,0.3,0,0.6,0c0,0.6,0,0.9,0.1,1.5l0,0c0.5-1,1.7-1.7,3.1-1.7
			c0.7,0,3.1,0.3,3.1,3.4c0,1.7,0,2.6,0,4.3c-0.3,0-0.4,0-0.7,0c0-1.8,0-2.6,0-4.4c0-1.5-0.7-2.9-2.6-2.9c-1.3,0-2.5,0.8-2.8,1.9
			c-0.1,0.2-0.2,0.4-0.2,0.7c0,1.9,0,2.8,0,4.6c-0.3,0-0.4,0-0.7,0C232.5,47.9,232.5,46.8,232.5,44.4z"/>
		<path class="st1" d="M243.7,40.5c0,0.3-0.3,0.6-0.6,0.6c-0.3,0-0.6-0.3-0.6-0.6s0.3-0.7,0.6-0.7C243.6,39.9,243.7,40.1,243.7,40.5
			z M242.9,50.2c0-3,0-4.5,0-7.6c0.3,0,0.4,0,0.7,0c0,3,0,4.5,0,7.6C243.2,50.2,243.1,50.2,242.9,50.2z"/>
		<path class="st1" d="M247.1,46.4c0,2.4,1.5,3.5,3.5,3.5c1.4,0,2-0.3,2.5-0.4c0.1,0.2,0.1,0.3,0.2,0.4c-0.3,0.2-1.2,0.5-2.8,0.5
			c-2.5,0-4.1-1.6-4.1-3.8c0-2.6,1.8-4.1,4-4.1c2.8,0,3.4,2.2,3.4,3.4c0,0.2,0,0.3,0,0.5C251.1,46.4,249.7,46.4,247.1,46.4z
			 M253.2,45.8c0-0.9-0.4-2.9-2.8-2.9c-2.1,0-3,1.5-3.2,2.9C249.6,45.8,250.8,45.8,253.2,45.8z"/>
		<path class="st1" d="M256.7,45.3c0-0.8,0-1.7-0.1-2.6c0.3,0,0.3,0,0.6,0c0,1,0,1.5,0,2.6l0,0c0.5-1.9,1.8-2.8,3.4-2.8
			c0.3,0,0.6,0,0.9,0.2c0,0.3-0.1,0.3-0.1,0.5c-0.3-0.1-0.6-0.1-0.9-0.1c-1.5,0-2.7,0.9-3.2,3.2c-0.1,0.3-0.1,0.9-0.1,1.3
			c0,1,0,1.6,0,2.6c-0.3,0-0.4,0-0.7,0C256.7,48.3,256.7,47.2,256.7,45.3z"/>
		<path class="st1" d="M266.1,39.4c-0.9,0.8-1.3,1.3-2.2,2.2c-0.2,0-0.3,0-0.5,0c0.6-0.8,0.9-1.3,1.5-2.2
			C265.4,39.4,265.7,39.4,266.1,39.4z M263.8,50.2c0-3,0-4.5,0-7.6c0.3,0,0.4,0,0.7,0c0,3,0,4.5,0,7.6
			C264.2,50.2,264,50.2,263.8,50.2z"/>
		<path class="st1" d="M275.5,50.2c-0.3,0.1-0.4,0.1-0.6,0.1c-0.8,0-1.2-0.3-1.2-1.3l0,0c-0.4,0.6-1.5,1.4-3.2,1.4
			c-2,0-2.6-1.2-2.6-2.1c0-1.7,1.6-2.8,5.5-2.8c0.1,0,0.2,0,0.3,0c0-0.1,0-0.1,0-0.2c0-0.5-0.2-2.4-2.5-2.4c-0.9,0-1.7,0.3-2.5,0.7
			c-0.1-0.2-0.2-0.3-0.3-0.4c1-0.6,2.1-0.8,2.8-0.8c3,0,3.1,2.3,3.1,3.3c0,1,0,1.6,0,2.6s0.3,1.3,0.9,1.3c0.2,0,0.3,0,0.4,0
			C275.5,49.9,275.5,50,275.5,50.2z M273.6,46.1c-0.1,0-0.2,0-0.3,0c-2.3,0-4.9,0.4-4.9,2.1c0,1.1,0.9,1.7,2,1.7
			c1.8,0,2.8-0.9,3.1-1.6c0.1-0.2,0.1-0.3,0.1-0.4C273.6,47.2,273.6,46.9,273.6,46.1z"/>
	</g>
</g>
</svg>
