<?xml version="1.0" encoding="utf-8"?>
<!-- Generator: Adobe Illustrator 19.2.1, SVG Export Plug-In . SVG Version: 6.00 Build 0)  -->
<svg version="1.1" id="Capa_1" xmlns="http://www.w3.org/2000/svg" xmlns:xlink="http://www.w3.org/1999/xlink" x="0px" y="0px"
	 viewBox="0 0 204 84.8" style="enable-background:new 0 0 204 84.8;" xml:space="preserve">
<style type="text/css">
	.st0{fill:#FF9900;stroke:#0C0600;stroke-width:1.5;stroke-miterlimit:10;}
	.st1{stroke:#000000;stroke-miterlimit:10;}
	.st2{fill:#FF6600;stroke:#000000;stroke-width:1.5;stroke-miterlimit:10;}
</style>
<path d="M48.8,51.9c0.9,2.5,1.5,4.9,2.3,7.1c0.2,0.3,0.9,0.5,1.3,0.6c2.2,0.1,4.4,0,6.8,0c0.2,1.1,0.3,2.1,0.6,3.3
	c-1,0.2-1.9,0.4-2.8,0.4c-12.8,0-25.6,0-38.5,0c-1.4,0-2.2-0.3-2.2-1.7c0-1.3,0.5-2.2,2.1-2.1c1.7,0.1,3.4,0,5.2,0
	c0.9,0,1.2-0.3,1.5-1.1c0.7-2.1,1.5-4.2,2.4-6.6c-0.8,0-1.3-0.1-1.9-0.1c-5.2,0-10.4,0-15.7,0c-3,0-5.6-2.4-5.6-5.4
	c0-12.9,0-25.7,0-38.7c0-2.9,2.5-5.3,5.5-5.3c3.9,0,7.7,0.1,11.6,0.1c14.6,0,29.2,0,43.8-0.1c2,0,3.8,0.3,5,2c0.6,0.9,1.3,2,1.3,3.1
	c0.2,12.5,0.2,24.8,0.3,37.3c0,2.3-0.2,4.5-2.5,5.8c-1,0.6-2.2,1.1-3.4,1.1C60.3,52,54.7,51.9,48.8,51.9z M67.8,40.5
	c0-0.5,0-0.9,0-1.3c0-10,0-19.9,0-30c0-2.7-0.3-2.9-3.1-2.9c-17.4,0-34.8,0-52.2,0c-0.8,0-1.6,0-2.4,0c-1,0-1.5,0.5-1.7,1.5
	C8.3,8.4,8.3,9,8.3,9.7c0,9.8,0,19.5,0,29.3c0,0.5,0,0.9,0.1,1.4c2.8,0,5.3,0,8,0c0-1.1,0-2,0-2.9c0-4.3,0-4.3,4.4-4.6
	c0.4,0,0.9-0.3,1-0.4c0.2-0.4,0-1-0.2-1.5c-0.2-0.3-0.6-0.4-0.9-0.7c-1.7-1.7-2-2.4-0.9-3.5c1.9-1.9,3.8-3.9,5.9-5.6
	c0.4-0.4,1.5-0.3,2.2-0.1c0.6,0.3,1,1.1,1.5,1.4c0.6,0.3,1.3,0.6,2,0.6c0.3,0,0.6-0.8,0.7-1.3c0.2-0.4,0-0.9,0-1.4
	c0-2.2,0.3-2.5,2.7-2.5c2.3,0,4.7,0.1,7.1,0c1.3-0.1,1.8,0.5,1.9,1.6c0.2,0.9,0.1,1.8,0.3,2.7c0.1,0.4,0.4,1,0.7,1.1
	c0.4,0.1,1-0.2,1.5-0.4c0.5-0.3,0.8-0.8,1.3-1.2c1.7-1.3,2.1-1.3,3.6,0.2c1.4,1.3,2.8,2.6,4.1,4c2.4,2.7,2.4,2.1-0.2,4.8
	c-0.5,0.6-0.8,1.4-1.3,2.4c1.6,0,2.8,0,3.8,0c1.4,0,2.2,0.5,2.2,2c-0.1,1.9,0,3.6,0,5.6C62.5,40.5,65.1,40.5,67.8,40.5z M36,21.5
	c0.9,3.2-0.6,4.5-3.4,5.1c-0.6,0.2-1.1,0.8-1.7,0.8c-0.8,0.1-1.7-0.1-2.3-0.4c-0.6-0.3-1-1-1.5-1.5c-0.5,0.5-1.1,1-1.6,1.5
	c0,0-0.1,0.1-0.2,0.1c-1.4,0.9-0.9,1.5,0.3,2.1c0.4,0.2,0.9,0.8,0.9,1.1c-0.7,2-1.3,4.1-2.3,6c-0.3,0.5-1.8,0.3-2.8,0.4
	c-0.3,0-0.6,0.2-0.9,0.3c0,1.2,0,2.3,0,3.4c2.7,0,5.2,0,8,0c-0.4-3.1,0.3-5.7,2.3-8c2.1-2.4,4.7-3.3,7.7-3.2c6,0.2,9.4,4.2,9.5,11.2
	c2.6,0,5.2,0,7.8,0c0-1.3,0-2.4,0-3.6c-3.8,0-3.5-0.2-5.2-3.4c-1.2-2.4-0.8-4,1.5-5.1c-0.5-0.7-0.9-1.2-1.4-1.7
	c-1.1-1.3-2-1.3-2.8,0.2c-0.6,1-1.4,1.3-2.4,0.8c-0.9-0.4-1.7-0.8-2.7-1.1c-2.7-1-2.7-1-2.8-4c0-0.3-0.1-0.6-0.2-0.9
	C38.7,21.5,37.5,21.5,36,21.5z M67.8,44.4c-19.9,0-39.7,0-59.4,0c-0.5,3.4-0.3,3.7,3.1,3.7c17.9,0,35.8,0,53.7,0
	c0.5,0,1.1,0.1,1.5-0.2c0.4-0.2,0.9-0.7,0.9-1.2C67.8,46.1,67.8,45.3,67.8,44.4z M47.2,59.6c-0.9-2.5-1.5-4.8-2.4-7
	C44.7,52.3,44,52,43.7,52c-3.6,0-7.3-0.1-10.9,0c-0.4,0-1,0.4-1.2,0.8c-0.9,2.2-1.6,4.5-2.5,6.8C35,59.6,41,59.6,47.2,59.6z
	 M43.8,40.4c0.7-2.4-0.2-4.8-2.2-6.3c-1.8-1.3-4.5-1.5-6.4-0.4c-2.6,1.5-3.4,3.5-2.8,6.7C36.2,40.4,40,40.4,43.8,40.4z"/>
<path class="st0" d="M188.8-44.3c-2.2,0-3.7,0-5.7,0c0-11.6,0-23.2,0-34.8c1.9,0,3.7,0,5.7,0c0,4.4,0.2,8.7,0,12.9
	c0,2.2,0.7,3,2.9,2.9c4.2-0.2,8.5-0.2,12.5,0c2.5,0.2,3-0.8,2.9-3.2c-0.3-4,0-8.4,0-12.6c2,0,4.1,0,6.3,0c0,3.7,0,7.2,0,10.9
	c0,6.7-0.2,13.8,0.2,20.5c0.2,2.9-0.8,3.7-3.6,3.4c-0.8-0.2-1.7-0.2-2.9-0.2c0-3.9-0.2-7.6,0-11.3c0.2-2-0.5-2.7-2.5-2.5
	c-4.6,0.2-8.8,0.2-13.4,0c-1.9,0-2.4,0.7-2.4,2.4C188.8-52,188.8-48.3,188.8-44.3z"/>
<path class="st0" d="M263.4-79.2c-5.9,12.3-11.7,24.2-17.8,36.8c-6.9-12.3-12.5-24.5-18.1-36.6c0.3-0.2,0.5-0.3,0.5-0.3
	c5.4-1,7.6,2.2,9.1,6.6c2.2,5.5,4.7,10.9,7.3,16.3c0.3,0.5,0.7,0.8,1.4,1.7c0.5-0.8,0.8-1.3,1.2-2c2.7-6.4,5.6-12.8,8.1-19.2
	c1.2-2.5,2.5-3.9,5.6-3.2C261.3-79.1,262.2-79.2,263.4-79.2z"/>
<path class="st0" d="M150.8-44.3c0-9.1-0.2-17.8,0-26.6c0-2.5-0.7-3.4-3.2-3.2c-3,0.2-5.9,0-9.1,0c0-1.7,0-3.2,0-4.9
	c10,0,19.8,0,29.9,0c0,0.5,0.3,1.2,0.3,1.7c0.2,3.4,0.2,3.4-3.6,3.2c-1.7,0-3.7,0.2-5.6,0c-2-0.2-3,0.5-3,2.7c0,7.6,0,15.3,0,22.9
	c0,4.2,0.3,4.2-4.1,4.4C152-44.3,151.6-44.3,150.8-44.3z"/>
<path d="M57.5,21.5c-2.9,0.4-5.8-3.2-5.7-5.5c0.2-3.4,2.8-6,6-6c3.1,0,5.9,2.9,5.9,5.8C63.8,19.1,61,21.5,57.5,21.5z M58.2,18.1
	c0.7-1,2.3-1.6,1.3-3.1c-0.4-0.6-1.5-1.1-2.1-0.9s-1.3,1.1-1.5,1.8C55.7,17.3,57,17.4,58.2,18.1z"/>
<g>
	<g>
		<path class="st1" d="M5.4,77.6c0.8,0.5,1.8,0.8,3,0.8c2,0,3.1-0.9,3.1-2.2c0-1.3-0.7-1.9-2.8-2.4c-2.8-0.7-3.4-1.5-3.4-2.8
			c0-1.4,1.5-2.6,3.5-2.6c1.2,0,2.2,0.3,2.6,0.5c-0.1,0.2-0.2,0.3-0.3,0.5c-0.3-0.2-1.1-0.6-2.3-0.6c-2.2,0-2.9,1.2-2.9,2
			c0,1.1,0.7,1.8,2.8,2.3c2.2,0.5,3.4,1.2,3.4,2.9c0,1.3-1,2.9-3.9,2.9c-1.1,0-2.4-0.3-3.2-0.8C5.3,78,5.4,77.9,5.4,77.6z"/>
		<path class="st1" d="M15.9,75c0,2.4,1.5,3.5,3.5,3.5c1.4,0,2-0.3,2.5-0.4c0.1,0.2,0.1,0.3,0.2,0.4c-0.3,0.2-1.2,0.5-2.8,0.5
			c-2.5,0-4.1-1.6-4.1-3.8c0-2.6,1.8-4.1,4-4.1c2.8,0,3.4,2.2,3.4,3.4c0,0.2,0,0.3,0,0.5C19.9,75,18.5,75,15.9,75z M22,74.4
			c0-0.9-0.4-2.9-2.8-2.9c-2.1,0-3,1.5-3.2,2.9C18.3,74.4,19.5,74.4,22,74.4z"/>
		<path class="st1" d="M25.5,73.9c0-0.8,0-1.7-0.1-2.6c0.3,0,0.3,0,0.6,0c0,1,0,1.5,0,2.6l0,0c0.5-1.9,1.8-2.8,3.4-2.8
			c0.3,0,0.6,0,0.9,0.2c0,0.3-0.1,0.3-0.1,0.5c-0.3-0.1-0.6-0.1-0.9-0.1c-1.5,0-2.7,0.9-3.2,3.2C26,75.2,26,75.8,26,76.2
			c0,1,0,1.6,0,2.6c-0.3,0-0.4,0-0.7,0C25.5,76.9,25.5,75.8,25.5,73.9z"/>
		<path class="st1" d="M32,71.3c0.9,1.9,1.3,2.9,2.1,4.8c0.3,0.8,0.6,1.4,0.9,2.1l0,0c0.3-0.7,0.6-1.3,0.9-2.1
			c0.9-1.9,1.3-2.9,2.1-4.8c0.3,0,0.4,0,0.7,0c-1.4,3-2.1,4.5-3.4,7.6c-0.3,0-0.3,0-0.5,0c-1.3-3-2-4.5-3.4-7.6
			C31.7,71.3,31.8,71.3,32,71.3z"/>
		<path class="st1" d="M42.1,69.1c0,0.3-0.3,0.6-0.6,0.6c-0.3,0-0.6-0.3-0.6-0.6c0-0.3,0.3-0.7,0.6-0.7S42.1,68.7,42.1,69.1z
			 M41.1,78.8c0-3,0-4.5,0-7.6c0.3,0,0.4,0,0.7,0c0,3,0,4.5,0,7.6C41.5,78.8,41.4,78.8,41.1,78.8z"/>
		<path class="st1" d="M51.9,78.4c-0.3,0.2-1.3,0.6-2.7,0.6c-2.5,0-4.2-1.6-4.2-3.9c0-2.5,2-4,4.5-4c1.2,0,2.2,0.3,2.4,0.5
			c-0.1,0.2-0.2,0.3-0.3,0.5c-0.5-0.3-1.2-0.5-2.2-0.5c-2.5,0-3.8,1.6-3.8,3.4c0,2,1.5,3.4,3.6,3.4c1.2,0,1.9-0.3,2.4-0.5
			C51.7,78.1,51.8,78.3,51.9,78.4z"/>
		<path class="st1" d="M56,69.1c0,0.3-0.3,0.6-0.6,0.6s-0.6-0.3-0.6-0.6c0-0.3,0.3-0.7,0.6-0.7C55.8,68.5,56,68.7,56,69.1z
			 M55.1,78.8c0-3,0-4.5,0-7.6c0.3,0,0.4,0,0.7,0c0,3,0,4.5,0,7.6C55.4,78.8,55.3,78.8,55.1,78.8z"/>
		<path class="st1" d="M66.8,75c0,2.6-2.1,4-4.3,4c-2.3,0-4-1.7-4-3.9c0-2.6,2.1-4,4.1-4C65.1,71.1,66.8,72.8,66.8,75z M59.1,75.1
			c0,2.1,1.7,3.4,3.5,3.4c2.4,0,3.6-1.7,3.6-3.4c0-2.1-1.7-3.4-3.5-3.4C60.3,71.6,59.1,73.4,59.1,75.1z"/>
		<path class="st1" d="M69.6,77.9c0.5,0.3,1.6,0.6,2.5,0.6c1.5,0,2.6-0.7,2.6-1.6c0-1-0.9-1.3-2.2-1.7c-0.3-0.1-0.3-0.1-0.6-0.2
			c-1.5-0.4-2.2-0.9-2.2-1.9c0-1.2,1.2-2.1,3-2.1c0.8,0,1.8,0.2,2.3,0.5c-0.2,0.2-0.2,0.3-0.3,0.5c-0.3-0.2-1.2-0.5-2.2-0.5
			c-1.2,0-2.2,0.6-2.2,1.5s1,1.2,2.2,1.5c0.2,0.1,0.3,0.1,0.5,0.2c1.5,0.4,2.3,0.9,2.3,2.1c0,1.3-1.3,2.1-3.2,2.1
			c-0.9,0-2.1-0.3-2.8-0.6C69.5,78.2,69.5,78.1,69.6,77.9z"/>
		<path class="st1" d="M95.7,67.5c0,3.2,0,6.3,0,9.5c0,0.6,0,1.2,0.1,1.8c-0.3,0-0.3,0-0.6,0c0-0.7,0-0.9-0.1-1.6l0,0
			c-0.4,0.9-1.5,1.8-3.3,1.8c-2.2,0-3.8-1.7-3.8-3.8c0-2.4,1.8-4.1,4-4.1c1.7,0,2.7,0.8,3,1.4l0,0c0-2,0-3,0-5
			C95.4,67.5,95.4,67.5,95.7,67.5z M95.1,74.3c0-0.3,0-0.5-0.1-0.8c-0.3-1.1-1.5-1.9-3-1.9c-2,0-3.4,1.4-3.4,3.5
			c0,1.7,1,3.4,3.4,3.4c1.4,0,2.7-0.9,3-2.2c0.1-0.2,0.1-0.4,0.1-0.7C95.1,75.1,95.1,74.9,95.1,74.3z"/>
		<path class="st1" d="M99.1,75c0,2.4,1.5,3.5,3.5,3.5c1.4,0,2-0.3,2.5-0.4c0.1,0.2,0.1,0.3,0.2,0.4c-0.3,0.2-1.2,0.5-2.8,0.5
			c-2.5,0-4.1-1.6-4.1-3.8c0-2.6,1.8-4.1,4-4.1c2.8,0,3.4,2.2,3.4,3.4c0,0.2,0,0.3,0,0.5C103.1,75,101.8,75,99.1,75z M105.2,74.4
			c0-0.9-0.4-2.9-2.8-2.9c-2.1,0-3,1.5-3.2,2.9C101.5,74.4,102.7,74.4,105.2,74.4z"/>
		<path class="st1" d="M120,69.1c0,0.3-0.3,0.6-0.6,0.6s-0.6-0.3-0.6-0.6c0-0.3,0.3-0.7,0.6-0.7C119.7,68.5,120,68.7,120,69.1z
			 M119,78.8c0-3,0-4.5,0-7.6c0.3,0,0.4,0,0.7,0c0,3,0,4.5,0,7.6C119.4,78.8,119.3,78.8,119,78.8z"/>
		<path class="st1" d="M123.2,73c0-0.6,0-1.1-0.1-1.8c0.3,0,0.3,0,0.6,0c0,0.6,0,0.9,0.1,1.5l0,0c0.5-1,1.7-1.7,3.1-1.7
			c0.7,0,3.1,0.3,3.1,3.4c0,1.7,0,2.6,0,4.3c-0.3,0-0.4,0-0.7,0c0-1.8,0-2.6,0-4.4c0-1.5-0.7-2.9-2.6-2.9c-1.3,0-2.5,0.8-2.8,1.9
			c-0.1,0.2-0.2,0.4-0.2,0.7c0,1.9,0,2.8,0,4.6c-0.3,0-0.4,0-0.7,0C123.2,76.5,123.2,75.4,123.2,73z"/>
		<path class="st1" d="M140.3,77.7c0,1.3-0.2,2.2-0.5,2.9c-0.7,1.2-2.2,1.6-3.4,1.6c-1.1,0-2.2-0.3-3-0.8c0.1-0.2,0.2-0.3,0.3-0.4
			c0.7,0.4,1.6,0.8,2.8,0.8c1.9,0,3.3-0.9,3.3-3.3c0-0.5,0-0.7,0-1.2l0,0c-0.5,0.8-1.5,1.7-3.3,1.7c-2.3,0-3.8-1.8-3.8-3.7
			c0-2.6,2-4,4-4c1.8,0,2.8,0.9,3.1,1.6l0,0c0-0.6,0-0.8,0.1-1.4c0.3,0,0.3,0,0.6,0c0,0.6-0.1,1.2-0.1,1.8
			C140.3,75,140.3,75.9,140.3,77.7z M139.7,74.3c0-0.3,0-0.6-0.2-0.8c-0.4-1-1.5-1.9-2.9-1.9c-2,0-3.4,1.4-3.4,3.4
			c0,1.6,1,3.3,3.4,3.3c1.3,0,2.5-0.8,2.9-1.9c0.1-0.3,0.2-0.6,0.2-0.8C139.7,75.1,139.7,74.8,139.7,74.3z"/>
		<path class="st1" d="M143.7,75c0,2.4,1.5,3.5,3.5,3.5c1.4,0,2-0.3,2.5-0.4c0.1,0.2,0.1,0.3,0.2,0.4c-0.3,0.2-1.2,0.5-2.8,0.5
			c-2.5,0-4.1-1.6-4.1-3.8c0-2.6,1.8-4.1,4-4.1c2.8,0,3.4,2.2,3.4,3.4c0,0.2,0,0.3,0,0.5C147.7,75,146.4,75,143.7,75z M149.8,74.4
			c0-0.9-0.4-2.9-2.8-2.9c-2.1,0-3,1.5-3.2,2.9C146.2,74.4,147.4,74.4,149.8,74.4z"/>
		<path class="st1" d="M153.3,73c0-0.6,0-1.1-0.1-1.8c0.3,0,0.3,0,0.6,0c0,0.6,0,0.9,0.1,1.5l0,0c0.5-1,1.7-1.7,3.1-1.7
			c0.7,0,3.1,0.3,3.1,3.4c0,1.7,0,2.6,0,4.3c-0.3,0-0.4,0-0.7,0c0-1.8,0-2.6,0-4.4c0-1.5-0.7-2.9-2.6-2.9c-1.3,0-2.5,0.8-2.8,1.9
			c-0.1,0.2-0.2,0.4-0.2,0.7c0,1.9,0,2.8,0,4.6c-0.3,0-0.4,0-0.7,0C153.3,76.5,153.3,75.4,153.3,73z"/>
		<path class="st1" d="M164.5,69.1c0,0.3-0.3,0.6-0.6,0.6c-0.3,0-0.6-0.3-0.6-0.6c0-0.3,0.3-0.7,0.6-0.7
			C164.4,68.5,164.5,68.7,164.5,69.1z M163.7,78.8c0-3,0-4.5,0-7.6c0.3,0,0.4,0,0.7,0c0,3,0,4.5,0,7.6
			C164,78.8,163.9,78.8,163.7,78.8z"/>
		<path class="st1" d="M167.9,75c0,2.4,1.5,3.5,3.5,3.5c1.4,0,2-0.3,2.5-0.4c0.1,0.2,0.1,0.3,0.2,0.4c-0.3,0.2-1.2,0.5-2.8,0.5
			c-2.5,0-4.1-1.6-4.1-3.8c0-2.6,1.8-4.1,4-4.1c2.8,0,3.4,2.2,3.4,3.4c0,0.2,0,0.3,0,0.5C171.9,75,170.5,75,167.9,75z M174,74.4
			c0-0.9-0.4-2.9-2.8-2.9c-2.1,0-3,1.5-3.2,2.9C170.4,74.4,171.6,74.4,174,74.4z"/>
		<path class="st1" d="M177.5,73.9c0-0.8,0-1.7-0.1-2.6c0.3,0,0.3,0,0.6,0c0,1,0,1.5,0,2.6l0,0c0.5-1.9,1.8-2.8,3.4-2.8
			c0.3,0,0.6,0,0.9,0.2c0,0.3-0.1,0.3-0.1,0.5c-0.3-0.1-0.6-0.1-0.9-0.1c-1.5,0-2.7,0.9-3.2,3.2c-0.1,0.3-0.1,0.9-0.1,1.3
			c0,1,0,1.6,0,2.6c-0.3,0-0.4,0-0.7,0C177.5,76.9,177.5,75.8,177.5,73.9z"/>
		<path class="st1" d="M186.9,68c-0.9,0.8-1.3,1.3-2.2,2.2c-0.2,0-0.3,0-0.5,0c0.6-0.8,0.9-1.3,1.5-2.2C186.2,68,186.5,68,186.9,68z
			 M184.6,78.8c0-3,0-4.5,0-7.6c0.3,0,0.4,0,0.7,0c0,3,0,4.5,0,7.6C185,78.8,184.8,78.8,184.6,78.8z"/>
		<path class="st1" d="M196.3,78.8c-0.3,0.1-0.4,0.1-0.6,0.1c-0.8,0-1.2-0.3-1.2-1.3l0,0c-0.4,0.6-1.5,1.4-3.2,1.4
			c-2,0-2.6-1.2-2.6-2.1c0-1.7,1.6-2.8,5.5-2.8c0.1,0,0.2,0,0.3,0c0-0.1,0-0.1,0-0.2c0-0.5-0.2-2.4-2.5-2.4c-0.9,0-1.7,0.3-2.5,0.7
			c-0.1-0.2-0.2-0.3-0.3-0.4c1-0.6,2.1-0.8,2.8-0.8c3,0,3.1,2.3,3.1,3.3s0,1.6,0,2.6s0.3,1.3,0.9,1.3c0.2,0,0.3,0,0.4,0
			C196.3,78.5,196.3,78.6,196.3,78.8z M194.4,74.7c-0.1,0-0.2,0-0.3,0c-2.3,0-4.9,0.4-4.9,2.1c0,1.1,0.9,1.7,2,1.7
			c1.8,0,2.8-0.9,3.1-1.6c0.1-0.2,0.1-0.3,0.1-0.4C194.4,75.8,194.4,75.5,194.4,74.7z"/>
	</g>
</g>
<path class="st2" d="M147.8,13.1c3,0,5.8,0,8.6,0c0,13.3,0,26.5,0,39.8c-2.8,0-5.7,0-8.6,0c0-5.3,0-10.5,0-15.8c-6.6,0-13,0-19.6,0
	c0,5.2,0,10.5,0,15.8c-2.9,0-5.7,0-8.6,0c0-13.2,0-26.5,0-39.8c2.8,0,5.6,0,8.6,0c0,5.3,0,10.5,0,15.9c6.6,0,13,0,19.6,0
	C147.8,23.7,147.8,18.4,147.8,13.1z"/>
<path class="st2" d="M199.1,13c-0.8,2.3-1.6,4.6-2.4,6.8c-3.8,10.7-7.5,21.5-11.2,32.2c-0.2,0.6-0.5,0.9-1.2,0.9c-2.5,0-5,0-7.4,0
	c-0.6,0-0.9-0.1-1-0.7c-4.5-12.9-9-25.8-13.5-38.7c0-0.1-0.1-0.3-0.1-0.5c0.3,0,0.6,0,0.9,0c2.4,0,4.8,0,7.2,0
	c0.7,0,1.1,0.2,1.3,0.9c2.9,8.3,5.8,16.6,8.7,24.9c0.1,0.3,0.2,0.5,0.4,1c0.2-0.5,0.3-0.7,0.4-1c2.9-8.3,5.8-16.6,8.7-24.9
	c0.2-0.7,0.5-0.9,1.3-0.9c2.4,0,4.8,0,7.2,0C198.4,13,198.7,13,199.1,13z"/>
<path class="st2" d="M91.1,21c-4.8,0-9.4,0-14.1,0c0-2.7,0-5.3,0-8c12.3,0,24.5,0,36.8,0c0,2.6,0,5.2,0,7.9c-4.7,0-9.3,0-14,0
	c0,10.7,0,21.2,0,31.9c-2.9,0-5.8,0-8.7,0C91.1,42.3,91.1,31.7,91.1,21z"/>
</svg>
