<?xml version="1.0" encoding="utf-8"?>
<!-- Generator: Adobe Illustrator 19.2.1, SVG Export Plug-In . SVG Version: 6.00 Build 0)  -->
<svg version="1.1" id="Capa_1" xmlns="http://www.w3.org/2000/svg" xmlns:xlink="http://www.w3.org/1999/xlink" x="0px" y="0px"
	 viewBox="0 0 752.1 102.2" style="enable-background:new 0 0 752.1 102.2;" xml:space="preserve">
<style type="text/css">
	.st0{fill:none;stroke:#000000;stroke-linecap:square;stroke-miterlimit:10;}
	.st1{fill:#FF9900;stroke:#0C0600;stroke-width:0.5;stroke-miterlimit:10;}
	.st2{stroke:#000000;stroke-miterlimit:10;}
</style>
<polygon class="st0" points="0,0 752.1,0 752.1,102.2 0,102.2 "/>
<path d="M66.5,69.4c0.9,2.5,1.5,4.9,2.3,7.1c0.2,0.3,0.9,0.5,1.3,0.6c2.2,0.1,4.4,0,6.8,0c0.2,1.1,0.3,2.1,0.6,3.3
	c-1,0.2-1.9,0.4-2.8,0.4c-12.8,0-25.6,0-38.5,0c-1.4,0-2.2-0.3-2.2-1.7c0-1.3,0.5-2.2,2.1-2.1c1.7,0.1,3.4,0,5.2,0
	c0.9,0,1.2-0.3,1.5-1.1c0.7-2.1,1.5-4.2,2.4-6.6c-0.8,0-1.3-0.1-1.9-0.1c-5.2,0-10.4,0-15.7,0c-3,0-5.6-2.4-5.6-5.4
	c0-12.9,0-25.7,0-38.7c0-2.9,2.5-5.3,5.5-5.3c3.9,0,7.7,0.1,11.6,0.1c14.6,0,29.2,0,43.8-0.1c2,0,3.8,0.3,5,2c0.6,0.9,1.3,2,1.3,3.1
	c0.2,12.5,0.2,24.8,0.3,37.3c0,2.3-0.2,4.5-2.5,5.8c-1,0.6-2.2,1.1-3.4,1.1C78.1,69.5,72.4,69.4,66.5,69.4z M85.5,58
	c0-0.5,0-0.9,0-1.3c0-10,0-19.9,0-30c0-2.7-0.3-2.9-3.1-2.9c-17.4,0-34.8,0-52.2,0c-0.8,0-1.6,0-2.4,0c-1,0-1.5,0.5-1.7,1.5
	C26,25.9,26,26.5,26,27.2c0,9.8,0,19.5,0,29.3c0,0.5,0,0.9,0.1,1.4c2.8,0,5.3,0,8,0c0-1.1,0-2,0-2.9c0-4.3,0-4.3,4.4-4.6
	c0.4,0,0.9-0.3,1-0.4c0.2-0.4,0-1-0.2-1.5c-0.2-0.3-0.6-0.4-0.9-0.7c-1.7-1.7-2-2.4-0.9-3.5c1.9-1.9,3.8-3.9,5.9-5.6
	c0.4-0.4,1.5-0.3,2.2-0.1c0.6,0.3,1,1.1,1.5,1.4c0.6,0.3,1.3,0.6,2,0.6c0.3,0,0.6-0.8,0.7-1.3c0.2-0.4,0-0.9,0-1.4
	c0-2.2,0.3-2.5,2.7-2.5c2.3,0,4.7,0.1,7.1,0c1.3-0.1,1.8,0.5,1.9,1.6c0.2,0.9,0.1,1.8,0.3,2.7c0.1,0.4,0.4,1,0.7,1.1
	c0.4,0.1,1-0.2,1.5-0.4c0.5-0.3,0.8-0.8,1.3-1.2c1.7-1.3,2.1-1.3,3.6,0.2c1.4,1.3,2.8,2.6,4.1,4c2.4,2.7,2.4,2.1-0.2,4.8
	c-0.5,0.6-0.8,1.4-1.3,2.4c1.6,0,2.8,0,3.8,0c1.4,0,2.2,0.5,2.2,2c-0.1,1.9,0,3.6,0,5.6C80.2,58,82.8,58,85.5,58z M53.7,39
	c0.9,3.2-0.6,4.5-3.4,5.1c-0.6,0.2-1.1,0.8-1.7,0.8c-0.8,0.1-1.7-0.1-2.3-0.4c-0.6-0.3-1-1-1.5-1.5c-0.5,0.5-1.1,1-1.6,1.5
	c0,0-0.1,0.1-0.2,0.1c-1.4,0.9-0.9,1.5,0.3,2.1c0.4,0.2,0.9,0.8,0.9,1.1c-0.7,2-1.3,4.1-2.3,6c-0.3,0.5-1.8,0.3-2.8,0.4
	c-0.3,0-0.6,0.2-0.9,0.3c0,1.2,0,2.3,0,3.4c2.7,0,5.2,0,8,0c-0.4-3.1,0.3-5.7,2.3-8c2.1-2.4,4.7-3.3,7.7-3.2c6,0.2,9.4,4.2,9.5,11.2
	c2.6,0,5.2,0,7.8,0c0-1.3,0-2.4,0-3.6c-3.8,0-3.5-0.2-5.2-3.4c-1.2-2.4-0.8-4,1.5-5.1c-0.5-0.7-0.9-1.2-1.4-1.7
	c-1.1-1.3-2-1.3-2.8,0.2c-0.6,1-1.4,1.3-2.4,0.8c-0.9-0.4-1.7-0.8-2.7-1.1c-2.7-1-2.7-1-2.8-4c0-0.3-0.1-0.6-0.2-0.9
	C56.4,39,55.2,39,53.7,39z M85.5,61.9c-19.9,0-39.7,0-59.4,0c-0.5,3.4-0.3,3.7,3.1,3.7c17.9,0,35.8,0,53.7,0c0.5,0,1.1,0.1,1.5-0.2
	c0.4-0.2,0.9-0.7,0.9-1.2C85.6,63.6,85.5,62.8,85.5,61.9z M64.9,77.1c-0.9-2.5-1.5-4.8-2.4-7c-0.1-0.3-0.8-0.6-1.1-0.6
	c-3.6,0-7.3-0.1-10.9,0c-0.4,0-1,0.4-1.2,0.8c-0.9,2.2-1.6,4.5-2.5,6.8C52.8,77.1,58.8,77.1,64.9,77.1z M61.5,57.9
	c0.7-2.4-0.2-4.8-2.2-6.3c-1.8-1.3-4.5-1.5-6.4-0.4c-2.6,1.5-3.4,3.5-2.8,6.7C53.9,57.9,57.7,57.9,61.5,57.9z"/>
<path class="st1" d="M192.2,48.7c-1.3,0-2.2,0-3.4,0c0-6.9,0-13.8,0-20.7c1.1,0,2.2,0,3.4,0c0,2.6,0.1,5.2,0,7.7
	c0,1.3,0.4,1.8,1.7,1.7c2.5-0.1,5-0.1,7.4,0c1.5,0.1,1.8-0.5,1.7-1.9c-0.2-2.4,0-5,0-7.5c1.2,0,2.4,0,3.7,0c0,2.2,0,4.3,0,6.5
	c0,4-0.1,8.2,0.1,12.2c0.1,1.7-0.5,2.2-2.1,2c-0.5-0.1-1-0.1-1.7-0.1c0-2.3-0.1-4.5,0-6.7c0.1-1.2-0.3-1.6-1.5-1.5
	c-2.7,0.1-5.2,0.1-7.9,0c-1.1,0-1.4,0.4-1.4,1.4C192.2,44.1,192.2,46.3,192.2,48.7z"/>
<path class="st1" d="M236.3,27.9c-3.5,7.3-6.9,14.4-10.5,21.9c-4.1-7.3-7.4-14.6-10.7-21.8c0.2-0.1,0.3-0.2,0.3-0.2
	c3.2-0.6,4.5,1.3,5.4,3.9c1.3,3.3,2.8,6.5,4.3,9.7c0.2,0.3,0.4,0.5,0.8,1c0.3-0.5,0.5-0.8,0.7-1.2c1.6-3.8,3.3-7.6,4.8-11.4
	c0.7-1.5,1.5-2.3,3.3-1.9C235.1,28,235.6,27.9,236.3,27.9z"/>
<path class="st1" d="M169.7,48.7c0-5.4-0.1-10.6,0-15.8c0-1.5-0.4-2-1.9-1.9c-1.8,0.1-3.5,0-5.4,0c0-1,0-1.9,0-2.9
	c5.9,0,11.7,0,17.7,0c0,0.3,0.2,0.7,0.2,1c0.1,2,0.1,2-2.1,1.9c-1,0-2.2,0.1-3.3,0c-1.2-0.1-1.8,0.3-1.8,1.6c0,4.5,0,9.1,0,13.6
	c0,2.5,0.2,2.5-2.4,2.6C170.4,48.7,170.2,48.7,169.7,48.7z"/>
<path d="M75.3,39c-2.9,0.4-5.8-3.2-5.7-5.5c0.2-3.4,2.8-6,6-6c3.1,0,5.9,2.9,5.9,5.8C81.5,36.6,78.8,39,75.3,39z M75.9,35.6
	c0.7-1,2.3-1.6,1.3-3.1c-0.4-0.6-1.5-1.1-2.1-0.9s-1.3,1.1-1.5,1.8C73.4,34.8,74.8,34.9,75.9,35.6z"/>
<g>
	<g>
		<path class="st2" d="M102.6,66.5c0.8,0.5,1.8,0.8,3,0.8c2,0,3.1-0.9,3.1-2.2c0-1.3-0.7-1.9-2.8-2.4c-2.8-0.7-3.4-1.5-3.4-2.8
			c0-1.4,1.5-2.6,3.5-2.6c1.2,0,2.2,0.3,2.6,0.5c-0.1,0.2-0.2,0.3-0.3,0.5c-0.3-0.2-1.1-0.6-2.3-0.6c-2.2,0-2.9,1.2-2.9,2
			c0,1.1,0.7,1.8,2.8,2.3c2.2,0.5,3.4,1.2,3.4,2.9c0,1.3-1,2.9-3.9,2.9c-1.1,0-2.4-0.3-3.2-0.8C102.5,66.9,102.6,66.8,102.6,66.5z"
			/>
		<path class="st2" d="M113.1,63.9c0,2.4,1.5,3.5,3.5,3.5c1.4,0,2-0.3,2.5-0.4c0.1,0.2,0.1,0.3,0.2,0.4c-0.3,0.2-1.2,0.5-2.8,0.5
			c-2.5,0-4.1-1.6-4.1-3.8c0-2.6,1.8-4.1,4-4.1c2.8,0,3.4,2.2,3.4,3.4c0,0.2,0,0.3,0,0.5C117.1,63.9,115.7,63.9,113.1,63.9z
			 M119.2,63.3c0-0.9-0.4-2.9-2.8-2.9c-2.1,0-3,1.5-3.2,2.9C115.5,63.3,116.7,63.3,119.2,63.3z"/>
		<path class="st2" d="M122.7,62.8c0-0.8,0-1.7-0.1-2.6c0.3,0,0.3,0,0.6,0c0,1,0,1.5,0,2.6l0,0c0.5-1.9,1.8-2.8,3.4-2.8
			c0.3,0,0.6,0,0.9,0.2c0,0.3-0.1,0.3-0.1,0.5c-0.3-0.1-0.6-0.1-0.9-0.1c-1.5,0-2.7,0.9-3.2,3.2c-0.1,0.3-0.1,0.9-0.1,1.3
			c0,1,0,1.6,0,2.6c-0.3,0-0.4,0-0.7,0C122.7,65.8,122.7,64.7,122.7,62.8z"/>
		<path class="st2" d="M129.2,60.2c0.9,1.9,1.3,2.9,2.1,4.8c0.3,0.8,0.6,1.4,0.9,2.1l0,0c0.3-0.7,0.6-1.3,0.9-2.1
			c0.9-1.9,1.3-2.9,2.1-4.8c0.3,0,0.4,0,0.7,0c-1.4,3-2.1,4.5-3.4,7.6c-0.3,0-0.3,0-0.5,0c-1.3-3-2-4.5-3.4-7.6
			C128.9,60.2,129,60.2,129.2,60.2z"/>
		<path class="st2" d="M139.3,58c0,0.3-0.3,0.6-0.6,0.6s-0.6-0.3-0.6-0.6s0.3-0.7,0.6-0.7S139.3,57.6,139.3,58z M138.3,67.7
			c0-3,0-4.5,0-7.6c0.3,0,0.4,0,0.7,0c0,3,0,4.5,0,7.6C138.7,67.7,138.6,67.7,138.3,67.7z"/>
		<path class="st2" d="M149.1,67.3c-0.3,0.2-1.3,0.6-2.7,0.6c-2.5,0-4.2-1.6-4.2-3.9c0-2.5,2-4,4.5-4c1.2,0,2.2,0.3,2.4,0.5
			c-0.1,0.2-0.2,0.3-0.3,0.5c-0.5-0.3-1.2-0.5-2.2-0.5c-2.5,0-3.8,1.6-3.8,3.4c0,2,1.5,3.4,3.6,3.4c1.2,0,1.9-0.3,2.4-0.5
			C148.9,67,149,67.2,149.1,67.3z"/>
		<path class="st2" d="M153.2,58c0,0.3-0.3,0.6-0.6,0.6S152,58.3,152,58s0.3-0.7,0.6-0.7C153,57.4,153.2,57.6,153.2,58z M152.3,67.7
			c0-3,0-4.5,0-7.6c0.3,0,0.4,0,0.7,0c0,3,0,4.5,0,7.6C152.6,67.7,152.5,67.7,152.3,67.7z"/>
		<path class="st2" d="M164,63.9c0,2.6-2.1,4-4.3,4c-2.3,0-4-1.7-4-3.9c0-2.6,2.1-4,4.1-4C162.3,60,164,61.7,164,63.9z M156.3,64
			c0,2.1,1.7,3.4,3.5,3.4c2.4,0,3.6-1.7,3.6-3.4c0-2.1-1.7-3.4-3.5-3.4C157.5,60.5,156.3,62.3,156.3,64z"/>
		<path class="st2" d="M166.8,66.8c0.5,0.3,1.6,0.6,2.5,0.6c1.5,0,2.6-0.7,2.6-1.6c0-1-0.9-1.3-2.2-1.7c-0.3-0.1-0.3-0.1-0.6-0.2
			c-1.5-0.4-2.2-0.9-2.2-1.9c0-1.2,1.2-2.1,3-2.1c0.8,0,1.8,0.2,2.3,0.5c-0.2,0.2-0.2,0.3-0.3,0.5c-0.3-0.2-1.2-0.5-2.2-0.5
			c-1.2,0-2.2,0.6-2.2,1.5s1,1.2,2.2,1.5c0.2,0.1,0.3,0.1,0.5,0.2c1.5,0.4,2.3,0.9,2.3,2.1c0,1.3-1.3,2.1-3.2,2.1
			c-0.9,0-2.1-0.3-2.8-0.6C166.7,67.1,166.7,67,166.8,66.8z"/>
		<path class="st2" d="M192.9,56.4c0,3.2,0,6.3,0,9.5c0,0.6,0,1.2,0.1,1.8c-0.3,0-0.3,0-0.6,0c0-0.7,0-0.9-0.1-1.6l0,0
			c-0.4,0.9-1.5,1.8-3.3,1.8c-2.2,0-3.8-1.7-3.8-3.8c0-2.4,1.8-4.1,4-4.1c1.7,0,2.7,0.8,3,1.4l0,0c0-2,0-3,0-5
			C192.6,56.4,192.6,56.4,192.9,56.4z M192.3,63.2c0-0.3,0-0.5-0.1-0.8c-0.3-1.1-1.5-1.9-3-1.9c-2,0-3.4,1.4-3.4,3.5
			c0,1.7,1,3.4,3.4,3.4c1.4,0,2.7-0.9,3-2.2c0.1-0.2,0.1-0.4,0.1-0.7C192.3,64,192.3,63.8,192.3,63.2z"/>
		<path class="st2" d="M196.3,63.9c0,2.4,1.5,3.5,3.5,3.5c1.4,0,2-0.3,2.5-0.4c0.1,0.2,0.1,0.3,0.2,0.4c-0.3,0.2-1.2,0.5-2.8,0.5
			c-2.5,0-4.1-1.6-4.1-3.8c0-2.6,1.8-4.1,4-4.1c2.8,0,3.4,2.2,3.4,3.4c0,0.2,0,0.3,0,0.5C200.3,63.9,199,63.9,196.3,63.9z
			 M202.4,63.3c0-0.9-0.4-2.9-2.8-2.9c-2.1,0-3,1.5-3.2,2.9C198.7,63.3,199.9,63.3,202.4,63.3z"/>
		<path class="st2" d="M217.2,58c0,0.3-0.3,0.6-0.6,0.6S216,58.3,216,58s0.3-0.7,0.6-0.7C216.9,57.4,217.2,57.6,217.2,58z
			 M216.2,67.7c0-3,0-4.5,0-7.6c0.3,0,0.4,0,0.7,0c0,3,0,4.5,0,7.6C216.6,67.7,216.5,67.7,216.2,67.7z"/>
		<path class="st2" d="M220.4,61.9c0-0.6,0-1.1-0.1-1.8c0.3,0,0.3,0,0.6,0c0,0.6,0,0.9,0.1,1.5l0,0c0.5-1,1.7-1.7,3.1-1.7
			c0.7,0,3.1,0.3,3.1,3.4c0,1.7,0,2.6,0,4.3c-0.3,0-0.4,0-0.7,0c0-1.8,0-2.6,0-4.4c0-1.5-0.7-2.9-2.6-2.9c-1.3,0-2.5,0.8-2.8,1.9
			c-0.1,0.2-0.2,0.4-0.2,0.7c0,1.9,0,2.8,0,4.6c-0.3,0-0.4,0-0.7,0C220.4,65.4,220.4,64.3,220.4,61.9z"/>
		<path class="st2" d="M237.5,66.6c0,1.3-0.2,2.2-0.5,2.9c-0.7,1.2-2.2,1.6-3.4,1.6c-1.1,0-2.2-0.3-3-0.8c0.1-0.2,0.2-0.3,0.3-0.4
			c0.7,0.4,1.6,0.8,2.8,0.8c1.9,0,3.3-0.9,3.3-3.3c0-0.5,0-0.7,0-1.2l0,0c-0.5,0.8-1.5,1.7-3.3,1.7c-2.3,0-3.8-1.8-3.8-3.7
			c0-2.6,2-4,4-4c1.8,0,2.8,0.9,3.1,1.6l0,0c0-0.6,0-0.8,0.1-1.4c0.3,0,0.3,0,0.6,0c0,0.6-0.1,1.2-0.1,1.8
			C237.5,63.9,237.5,64.8,237.5,66.6z M236.9,63.2c0-0.3,0-0.6-0.2-0.8c-0.4-1-1.5-1.9-2.9-1.9c-2,0-3.4,1.4-3.4,3.4
			c0,1.6,1,3.3,3.4,3.3c1.3,0,2.5-0.8,2.9-1.9c0.1-0.3,0.2-0.6,0.2-0.8C236.9,64,236.9,63.7,236.9,63.2z"/>
		<path class="st2" d="M240.9,63.9c0,2.4,1.5,3.5,3.5,3.5c1.4,0,2-0.3,2.5-0.4c0.1,0.2,0.1,0.3,0.2,0.4c-0.3,0.2-1.2,0.5-2.8,0.5
			c-2.5,0-4.1-1.6-4.1-3.8c0-2.6,1.8-4.1,4-4.1c2.8,0,3.4,2.2,3.4,3.4c0,0.2,0,0.3,0,0.5C244.9,63.9,243.6,63.9,240.9,63.9z
			 M247,63.3c0-0.9-0.4-2.9-2.8-2.9c-2.1,0-3,1.5-3.2,2.9C243.4,63.3,244.6,63.3,247,63.3z"/>
		<path class="st2" d="M250.5,61.9c0-0.6,0-1.1-0.1-1.8c0.3,0,0.3,0,0.6,0c0,0.6,0,0.9,0.1,1.5l0,0c0.5-1,1.7-1.7,3.1-1.7
			c0.7,0,3.1,0.3,3.1,3.4c0,1.7,0,2.6,0,4.3c-0.3,0-0.4,0-0.7,0c0-1.8,0-2.6,0-4.4c0-1.5-0.7-2.9-2.6-2.9c-1.3,0-2.5,0.8-2.8,1.9
			c-0.1,0.2-0.2,0.4-0.2,0.7c0,1.9,0,2.8,0,4.6c-0.3,0-0.4,0-0.7,0C250.5,65.4,250.5,64.3,250.5,61.9z"/>
		<path class="st2" d="M261.7,58c0,0.3-0.3,0.6-0.6,0.6c-0.3,0-0.6-0.3-0.6-0.6s0.3-0.7,0.6-0.7C261.6,57.4,261.7,57.6,261.7,58z
			 M260.9,67.7c0-3,0-4.5,0-7.6c0.3,0,0.4,0,0.7,0c0,3,0,4.5,0,7.6C261.2,67.7,261.1,67.7,260.9,67.7z"/>
		<path class="st2" d="M265.1,63.9c0,2.4,1.5,3.5,3.5,3.5c1.4,0,2-0.3,2.5-0.4c0.1,0.2,0.1,0.3,0.2,0.4c-0.3,0.2-1.2,0.5-2.8,0.5
			c-2.5,0-4.1-1.6-4.1-3.8c0-2.6,1.8-4.1,4-4.1c2.8,0,3.4,2.2,3.4,3.4c0,0.2,0,0.3,0,0.5C269.1,63.9,267.7,63.9,265.1,63.9z
			 M271.2,63.3c0-0.9-0.4-2.9-2.8-2.9c-2.1,0-3,1.5-3.2,2.9C267.6,63.3,268.8,63.3,271.2,63.3z"/>
		<path class="st2" d="M274.7,62.8c0-0.8,0-1.7-0.1-2.6c0.3,0,0.3,0,0.6,0c0,1,0,1.5,0,2.6l0,0c0.5-1.9,1.8-2.8,3.4-2.8
			c0.3,0,0.6,0,0.9,0.2c0,0.3-0.1,0.3-0.1,0.5c-0.3-0.1-0.6-0.1-0.9-0.1c-1.5,0-2.7,0.9-3.2,3.2c-0.1,0.3-0.1,0.9-0.1,1.3
			c0,1,0,1.6,0,2.6c-0.3,0-0.4,0-0.7,0C274.7,65.8,274.7,64.7,274.7,62.8z"/>
		<path class="st2" d="M284.1,56.9c-0.9,0.8-1.3,1.3-2.2,2.2c-0.2,0-0.3,0-0.5,0c0.6-0.8,0.9-1.3,1.5-2.2
			C283.4,56.9,283.7,56.9,284.1,56.9z M281.8,67.7c0-3,0-4.5,0-7.6c0.3,0,0.4,0,0.7,0c0,3,0,4.5,0,7.6
			C282.2,67.7,282,67.7,281.8,67.7z"/>
		<path class="st2" d="M293.5,67.7c-0.3,0.1-0.4,0.1-0.6,0.1c-0.8,0-1.2-0.3-1.2-1.3l0,0c-0.4,0.6-1.5,1.4-3.2,1.4
			c-2,0-2.6-1.2-2.6-2.1c0-1.7,1.6-2.8,5.5-2.8c0.1,0,0.2,0,0.3,0c0-0.1,0-0.1,0-0.2c0-0.5-0.2-2.4-2.5-2.4c-0.9,0-1.7,0.3-2.5,0.7
			c-0.1-0.2-0.2-0.3-0.3-0.4c1-0.6,2.1-0.8,2.8-0.8c3,0,3.1,2.3,3.1,3.3c0,1,0,1.6,0,2.6s0.3,1.3,0.9,1.3c0.2,0,0.3,0,0.4,0
			C293.5,67.4,293.5,67.5,293.5,67.7z M291.6,63.6c-0.1,0-0.2,0-0.3,0c-2.3,0-4.9,0.4-4.9,2.1c0,1.1,0.9,1.7,2,1.7
			c1.8,0,2.8-0.9,3.1-1.6c0.1-0.2,0.1-0.3,0.1-0.4C291.6,64.7,291.6,64.4,291.6,63.6z"/>
	</g>
</g>
<polyline class="st0" points="736,89.3 734.7,90.4 733.6,91.8 732.9,93.5 "/>
<polyline class="st0" points="733,90 733.1,90.8 733.2,91.7 733.2,92.2 733.1,92.6 732.9,93.5 "/>
<polyline class="st0" points="736,89.3 735.3,89.6 734.9,89.7 734.6,89.8 733.8,89.9 733,90 "/>
<polyline class="st0" points="732.9,93.5 732.5,94.2 732.3,94.5 732.1,94.8 731.5,95.3 730.9,95.7 "/>
<line class="st0" x1="728.9" y1="94.4" x2="730.9" y2="95.7"/>
<line class="st0" x1="728.9" y1="94.4" x2="730.9" y2="88.7"/>
<line class="st0" x1="730.9" y1="88.7" x2="733" y2="90"/>
<line class="st0" x1="730.9" y1="88.7" x2="735" y2="86.1"/>
<line class="st0" x1="735" y1="86.1" x2="737" y2="87.4"/>
<polyline class="st0" points="737,87.4 737,87.9 736.8,88.4 736.6,88.6 736.5,88.9 736,89.3 "/>
<polyline class="st0" points="736,98.2 737.3,97.1 738.3,95.7 739,94.1 "/>
<polyline class="st0" points="732.9,97.9 733.6,98.5 734.4,98.7 735.2,98.7 736,98.2 "/>
<polyline class="st0" points="732.9,93.5 732.5,94.5 732.4,95.7 732.5,96.8 732.9,97.9 "/>
<polyline class="st0" points="739,89.6 738.4,89 737.6,88.8 736.7,88.9 736,89.3 "/>
<polyline class="st0" points="739,94.1 739.4,93 739.5,91.8 739.4,90.7 739,89.6 "/>
<polyline class="st0" points="730.9,95.7 732.1,96.9 732.5,97.4 732.9,97.9 "/>
<polyline class="st0" points="739,89.6 738.6,89.1 738.2,88.5 737,87.4 "/>
<polyline class="st0" points="732.9,97.9 733.1,98.3 733.2,98.5 733.2,98.6 733.1,98.7 733,98.9 "/>
<line class="st0" x1="730.9" y1="97.6" x2="733" y2="98.9"/>
<line class="st0" x1="730.9" y1="97.6" x2="728.9" y2="94.4"/>
<polyline class="st0" points="720.5,85.6 720.6,85 720.9,84.3 721.3,83.7 721.6,83.1 722.1,82.6 722.3,82.4 722.5,82.3 722.7,82.2 
	722.9,82.1 723.3,82 "/>
<polyline class="st0" points="723.3,82 723.5,82.1 723.7,82.2 723.9,82.3 724,82.6 "/>
<polyline class="st0" points="719.5,86.6 719.3,85.8 719.3,85.4 719.4,84.9 719.5,84.4 719.7,84 719.8,83.5 720.1,83.1 720.3,82.7 
	720.5,82.4 720.8,82.1 721.1,81.8 721.4,81.6 721.7,81.5 722.2,81.3 "/>
<polyline class="st0" points="722.2,81.3 722.5,81.4 722.7,81.5 722.8,81.6 722.9,81.9 "/>
<polyline class="st0" points="719,86.9 718.7,86.7 718.6,86.6 718.5,86.4 718.4,86 718.3,85.5 718.2,85 718.3,84.4 718.4,83.9 
	718.6,83.3 718.8,82.7 719.1,82.2 719.4,81.8 719.7,81.4 720.1,81 720.5,80.8 720.8,80.7 721.1,80.6 "/>
<polyline class="st0" points="721.1,80.6 721.4,80.7 721.6,80.8 721.8,81 721.9,81.2 "/>
<polyline class="st0" points="719.7,81 719.4,81.2 719.2,81.4 718.7,81.9 718.3,82.5 718,83.2 717.8,83.9 717.8,84.3 717.8,84.6 
	717.8,84.9 717.9,85.2 717.9,85.5 718.1,85.7 "/>
<polyline class="st0" points="719.4,81.3 719.7,81 719.9,80.9 720.1,80.8 "/>
<polyline class="st0" points="718.7,86.7 718.5,86.6 718.4,86.4 718.2,86.1 718.1,85.8 718,85.5 718,85.1 718,84.8 718,84.4 
	718.1,83.9 718.2,83.5 718.5,82.7 718.7,82.3 718.9,82 719.4,81.3 "/>
<line class="st0" x1="722" y1="81.1" x2="722.4" y2="81.3"/>
<line class="st0" x1="723.1" y1="81.8" x2="723.4" y2="82"/>
<line class="st0" x1="733" y1="98.9" x2="734.1" y2="98.7"/>
<polyline class="st0" points="721.5,80.7 720.7,80.6 720,80.8 719.4,81.3 "/>
<line class="st0" x1="739.2" y1="90" x2="739" y2="89.6"/>
<polyline class="st0" points="719.4,81.2 718.5,82.1 718,83.1 717.8,84.3 "/>
<polyline class="st0" points="705,82.4 704.4,82.1 702.9,81.4 701.3,81 699.5,81 697.7,81.1 695.8,81.5 693.9,82.2 692,83.2 
	690,84.4 688,85.8 686.1,87.4 684.2,89.3 682.4,91.3 680.6,93.5 678.9,95.9 677.4,98.4 675.9,101 675.3,102.2 "/>
<line class="st0" x1="668.3" y1="102.2" x2="668.3" y2="102.2"/>
<polyline class="st0" points="668.3,102.2 668.5,101.8 668.4,101.4 "/>
<line class="st0" x1="668.4" y1="101.4" x2="666.7" y2="99.2"/>
<line class="st0" x1="669.7" y1="93.5" x2="666.7" y2="99.2"/>
<line class="st0" x1="672.3" y1="93.9" x2="669.7" y2="93.5"/>
<polyline class="st0" points="672.3,93.9 672.6,93.7 672.9,93.4 "/>
<line class="st0" x1="673.8" y1="92" x2="672.9" y2="93.4"/>
<polyline class="st0" points="673.8,92 673.9,91.6 674,91.1 "/>
<line class="st0" x1="674" y1="91.1" x2="673" y2="88.1"/>
<line class="st0" x1="676.8" y1="83" x2="673" y2="88.1"/>
<line class="st0" x1="678.8" y1="84.5" x2="676.8" y2="83"/>
<polyline class="st0" points="678.8,84.5 679.2,84.5 679.4,84.3 "/>
<line class="st0" x1="680.4" y1="83.1" x2="679.4" y2="84.3"/>
<line class="st0" x1="680.4" y1="83.1" x2="680.8" y2="82.2"/>
<line class="st0" x1="680.8" y1="82.2" x2="680.7" y2="78.5"/>
<line class="st0" x1="684.8" y1="74.5" x2="680.7" y2="78.5"/>
<line class="st0" x1="686.2" y1="77.1" x2="684.8" y2="74.5"/>
<polyline class="st0" points="686.7,77.1 686.7,77.1 686.6,77.2 686.5,77.2 686.4,77.2 686.4,77.2 686.3,77.2 686.2,77.1 
	686.2,77.1 "/>
<line class="st0" x1="687.9" y1="76.2" x2="686.7" y2="77.1"/>
<line class="st0" x1="687.9" y1="76.2" x2="688.3" y2="75.4"/>
<line class="st0" x1="688.3" y1="75.4" x2="689.1" y2="71.3"/>
<line class="st0" x1="693.3" y1="68.6" x2="689.1" y2="71.3"/>
<line class="st0" x1="693.9" y1="72" x2="693.3" y2="68.6"/>
<polyline class="st0" points="693.9,72 694,72.2 694.2,72.3 694.4,72.3 "/>
<line class="st0" x1="695.5" y1="71.8" x2="694.4" y2="72.3"/>
<polyline class="st0" points="695.5,71.8 695.8,71.5 696,71.1 "/>
<line class="st0" x1="696" y1="71.1" x2="697.5" y2="66.8"/>
<line class="st0" x1="701.6" y1="65.8" x2="697.5" y2="66.8"/>
<line class="st0" x1="701.4" y1="69.8" x2="701.6" y2="65.8"/>
<polyline class="st0" points="701.7,70.2 701.6,70.2 701.6,70.2 701.5,70.2 701.5,70.2 701.4,70.1 701.4,70 701.4,69.9 701.4,69.8 
	"/>
<line class="st0" x1="702.7" y1="70.2" x2="701.7" y2="70.2"/>
<polyline class="st0" points="702.7,70.2 703.1,70 703.4,69.7 "/>
<line class="st0" x1="703.4" y1="69.7" x2="705.5" y2="65.6"/>
<polyline class="st0" points="709.1,66.3 707.3,65.8 705.5,65.6 "/>
<line class="st0" x1="708.1" y1="70.5" x2="709.1" y2="66.3"/>
<polyline class="st0" points="708.3,71.2 708.2,71.1 708.1,71.1 708.1,71 708,70.9 708,70.8 708,70.7 708,70.6 708.1,70.5 "/>
<line class="st0" x1="709.1" y1="71.5" x2="708.3" y2="71.2"/>
<polyline class="st0" points="709.1,71.5 709.4,71.5 709.7,71.2 "/>
<line class="st0" x1="709.7" y1="71.2" x2="712.3" y2="67.7"/>
<polyline class="st0" points="715.2,69.9 713.9,68.7 712.3,67.7 "/>
<line class="st0" x1="713.4" y1="74.1" x2="715.2" y2="69.9"/>
<line class="st0" x1="713.4" y1="74.1" x2="713.4" y2="74.9"/>
<line class="st0" x1="714.1" y1="75.7" x2="713.4" y2="74.9"/>
<line class="st0" x1="729.2" y1="79.2" x2="728.6" y2="79.5"/>
<line class="st0" x1="558" y1="4.3" x2="558" y2="4.3"/>
<line class="st0" x1="662.5" y1="43.5" x2="653.8" y2="38"/>
<polyline class="st0" points="575.6,5.8 574.7,6.5 573.8,7.3 571.9,9.1 570.2,10.9 569.3,11.8 568.4,12.9 "/>
<polyline class="st0" points="727.3,79.6 726.3,79 725.2,78.6 724,78.2 722.9,77.9 721.7,77.7 720.5,77.6 719.2,77.6 717.9,77.7 
	716.6,77.9 715.3,78.2 714,78.5 712.7,78.9 711.4,79.4 710,80 708.7,80.7 707.3,81.4 706,82.2 704.6,83.2 703.3,84.1 702,85.1 
	700.6,86.2 699.3,87.4 698,88.7 696.8,90 695.5,91.3 694.3,92.7 691.9,95.7 689.6,98.9 687.5,102.2 "/>
<line class="st0" x1="566.9" y1="12.3" x2="557.3" y2="6.3"/>
<line class="st0" x1="705.4" y1="82.7" x2="705" y2="82.4"/>
<line class="st0" x1="560.3" y1="20.8" x2="558.9" y2="20.1"/>
<polyline class="st0" points="556.8,25.3 555.9,24.8 555.2,24.7 "/>
<polyline class="st0" points="551.2,27.3 551,27.9 551,28.8 "/>
<polyline class="st0" points="551.1,28.8 550.1,28.4 549,28.3 "/>
<polyline class="st0" points="546.9,29 546.3,29.7 545.7,30.6 "/>
<polyline class="st0" points="543.9,31 542.6,30.4 541.3,30.3 540.1,30.7 539,31.6 "/>
<polyline class="st0" points="536.3,31.6 535.2,30.7 533.9,30.4 532.6,30.5 531.4,31.1 "/>
<polyline class="st0" points="529.5,30.7 528.9,29.8 528,29 "/>
<polyline class="st0" points="526.3,28.4 525.2,28.6 524.1,29 "/>
<polyline class="st0" points="524.1,28.9 524.1,28.3 523.8,27.4 "/>
<line class="st0" x1="519.8" y1="24.9" x2="518.3" y2="25.4"/>
<line class="st0" x1="516.3" y1="20.3" x2="514.7" y2="21.1"/>
<line class="st0" x1="515.1" y1="15.6" x2="513.8" y2="16.9"/>
<line class="st0" x1="560.9" y1="16.7" x2="559.7" y2="15.4"/>
<polyline class="st0" points="562.6,12.7 562.1,11.6 561.8,11.1 561.4,10.6 560.7,9.5 559.9,8.5 559,7.6 557.9,6.7 556.8,5.9 
	555.6,5.1 "/>
<polyline class="st0" points="518.9,5.3 518.3,5.7 517.8,6 516.7,6.9 515.8,7.8 514.8,8.7 514.1,9.6 513.4,10.6 512.7,11.6 
	512.5,12.1 512.3,12.7 "/>
<line class="st0" x1="563.6" y1="26.1" x2="563.6" y2="17.2"/>
<line class="st0" x1="511.3" y1="17.2" x2="511.3" y2="26.1"/>
<polyline class="st0" points="512.2,30.6 512.5,31.4 512.9,32.1 513.5,32.8 514,33.6 514.5,34.3 515.1,35 515.8,35.6 516.5,36.3 
	517.3,36.9 518.1,37.5 519,38.1 519.9,38.6 520.8,39.1 521.7,39.6 522.8,40.1 523.8,40.5 524.9,40.9 526,41.3 527.1,41.6 
	528.2,41.9 529.4,42.2 530.5,42.4 531.8,42.6 532.9,42.7 534.2,42.9 535.4,43 536.6,43 537.8,43 540.3,42.9 541.5,42.8 542.7,42.6 
	"/>
<polyline class="st0" points="542.7,42.6 544.5,42.4 546.2,42 547.9,41.6 549.5,41.1 551,40.5 552.5,39.9 554,39.2 555.3,38.4 
	556.6,37.6 557.7,36.7 558.8,35.8 559.8,34.9 560.7,33.9 561.5,32.8 561.8,32.2 562.1,31.7 562.7,30.5 "/>
<polyline class="st0" points="517.7,22.8 518.3,23.6 519.1,24.3 519.9,25 520.9,25.7 521.8,26.4 522.8,27 523.9,27.5 525.1,28.1 "/>
<polyline class="st0" points="516.2,20.5 516.8,21.7 517.2,22.3 517.7,22.8 "/>
<line class="st0" x1="559.7" y1="16.2" x2="559.7" y2="13.1"/>
<polyline class="st0" points="544.7,29.7 545.9,29.4 547.1,29 548.3,28.7 549.4,28.2 550.5,27.7 551.6,27.2 552.6,26.7 553.5,26 "/>
<line class="st0" x1="544.4" y1="29.7" x2="544.7" y2="29.7"/>
<line class="st0" x1="543.6" y1="27.8" x2="544.3" y2="29.7"/>
<line class="st0" x1="539.7" y1="28.4" x2="543.7" y2="27.9"/>
<line class="st0" x1="523.3" y1="2.1" x2="521.7" y2="3.2"/>
<line class="st0" x1="515.1" y1="13.1" x2="515.1" y2="16.2"/>
<line class="st0" x1="515.4" y1="17.8" x2="516.2" y2="17.7"/>
<line class="st0" x1="553.2" y1="3.2" x2="551.6" y2="2.1"/>
<line class="st0" x1="550.5" y1="6.2" x2="550.5" y2="0"/>
<line class="st0" x1="524.4" y1="0" x2="524.4" y2="6.2"/>
<line class="st0" x1="552.8" y1="7.5" x2="552.8" y2="7.2"/>
<line class="st0" x1="552.8" y1="8.9" x2="552.8" y2="8.6"/>
<line class="st0" x1="552.8" y1="10.3" x2="552.8" y2="10"/>
<line class="st0" x1="552.8" y1="11.7" x2="552.8" y2="11.3"/>
<line class="st0" x1="522" y1="12" x2="522" y2="12.3"/>
<line class="st0" x1="522" y1="10.6" x2="522" y2="11"/>
<line class="st0" x1="522" y1="9.3" x2="522" y2="9.6"/>
<line class="st0" x1="522" y1="7.9" x2="522" y2="8.2"/>
<line class="st0" x1="522" y1="6.5" x2="522" y2="6.8"/>
<line class="st0" x1="554.3" y1="102.2" x2="554.3" y2="39"/>
<line class="st0" x1="520.5" y1="39" x2="520.5" y2="102.2"/>
<line class="st0" x1="734.1" y1="98.8" x2="734.7" y2="98.7"/>
<line class="st0" x1="721.6" y1="80.8" x2="721.5" y2="80.7"/>
<line class="st0" x1="722.7" y1="81.5" x2="722.4" y2="81.3"/>
<line class="st0" x1="723.7" y1="82.2" x2="723.4" y2="82"/>
<line class="st0" x1="718.7" y1="86.7" x2="719" y2="86.9"/>
<line class="st0" x1="739.3" y1="90.1" x2="739.2" y2="90"/>
<line class="st0" x1="719.5" y1="81.1" x2="719.4" y2="81.2"/>
<line class="st0" x1="719.9" y1="80.9" x2="719.9" y2="80.9"/>
<line class="st0" x1="717.8" y1="84.3" x2="717.8" y2="84.5"/>
<line class="st0" x1="706.2" y1="1.8" x2="738.8" y2="22.4"/>
<line class="st0" x1="706.2" y1="1.8" x2="704.5" y2="-0.2"/>
<line class="st0" x1="729.8" y1="30.5" x2="732.5" y2="32.4"/>
<line class="st0" x1="730.9" y1="27.5" x2="729.8" y2="30.5"/>
<line class="st0" x1="734.4" y1="27.1" x2="730.9" y2="27.5"/>
<line class="st0" x1="698.7" y1="10.8" x2="729.8" y2="30.5"/>
<line class="st0" x1="699.8" y1="7.8" x2="698.7" y2="10.8"/>
<line class="st0" x1="730.9" y1="27.5" x2="699.8" y2="7.8"/>
<line class="st0" x1="699.8" y1="7.8" x2="701.8" y2="6.5"/>
<line class="st0" x1="737.3" y1="26.1" x2="704.7" y2="5.6"/>
<line class="st0" x1="704.7" y1="5.6" x2="701.8" y2="6.5"/>
<line class="st0" x1="701.8" y1="13.4" x2="734.4" y2="33.9"/>
<line class="st0" x1="699.9" y1="11.8" x2="698.7" y2="10.8"/>
<line class="st0" x1="701.8" y1="13.4" x2="699.9" y2="11.8"/>
<line class="st0" x1="725.8" y1="42.9" x2="728.7" y2="44.5"/>
<line class="st0" x1="726.7" y1="39.9" x2="725.8" y2="42.9"/>
<line class="st0" x1="730.3" y1="39.1" x2="726.7" y2="39.9"/>
<line class="st0" x1="694.7" y1="23.3" x2="725.8" y2="42.9"/>
<line class="st0" x1="695.5" y1="20.3" x2="694.7" y2="23.3"/>
<line class="st0" x1="726.7" y1="39.9" x2="695.5" y2="20.3"/>
<line class="st0" x1="695.5" y1="20.3" x2="697.6" y2="18.5"/>
<line class="st0" x1="733.2" y1="37.8" x2="700.5" y2="17.2"/>
<line class="st0" x1="700.5" y1="17.2" x2="697.6" y2="18.5"/>
<line class="st0" x1="749.5" y1="0.7" x2="748.4" y2="0"/>
<line class="st0" x1="743.6" y1="0" x2="748.3" y2="2.9"/>
<line class="st0" x1="743.8" y1="11.8" x2="725.1" y2="0"/>
<line class="st0" x1="720.4" y1="0" x2="742.7" y2="14.1"/>
<line class="st0" x1="738.8" y1="23.1" x2="706.2" y2="2.6"/>
<line class="st0" x1="705.3" y1="4.9" x2="737.9" y2="25.5"/>
<line class="st0" x1="706.2" y1="2.6" x2="705.3" y2="4.9"/>
<line class="st0" x1="706.2" y1="2.6" x2="706.2" y2="1.8"/>
<polyline class="st0" points="704.7,5.6 705.1,5.3 705.3,4.9 "/>
<line class="st0" x1="723.3" y1="52.3" x2="722.6" y2="55.3"/>
<line class="st0" x1="726.9" y1="51.1" x2="723.3" y2="52.3"/>
<line class="st0" x1="722.6" y1="55.3" x2="725.6" y2="56.4"/>
<line class="st0" x1="691.5" y1="35.6" x2="722.6" y2="55.3"/>
<line class="st0" x1="692.1" y1="32.7" x2="691.5" y2="35.6"/>
<line class="st0" x1="723.3" y1="52.3" x2="692.1" y2="32.7"/>
<line class="st0" x1="692.1" y1="32.7" x2="694.3" y2="30.5"/>
<line class="st0" x1="729.8" y1="49.4" x2="697.2" y2="28.8"/>
<line class="st0" x1="697.2" y1="28.8" x2="694.3" y2="30.5"/>
<line class="st0" x1="734.5" y1="34.7" x2="701.9" y2="14.1"/>
<line class="st0" x1="701.1" y1="16.5" x2="733.7" y2="37"/>
<line class="st0" x1="701.9" y1="14.1" x2="701.1" y2="16.5"/>
<polyline class="st0" points="701.9,14.1 702,13.7 701.8,13.4 "/>
<line class="st0" x1="700.5" y1="17.2" x2="701.1" y2="16.5"/>
<line class="st0" x1="731" y1="46.3" x2="698.4" y2="25.7"/>
<line class="st0" x1="698.4" y1="25.7" x2="698.4" y2="25.6"/>
<line class="st0" x1="697.7" y1="28" x2="730.4" y2="48.6"/>
<line class="st0" x1="698.4" y1="25.7" x2="697.7" y2="28"/>
<line class="st0" x1="720.8" y1="64.6" x2="720.3" y2="67.5"/>
<line class="st0" x1="724.3" y1="63" x2="720.8" y2="64.6"/>
<line class="st0" x1="720.3" y1="67.5" x2="723.5" y2="68.2"/>
<line class="st0" x1="697.2" y1="28.8" x2="697.7" y2="28"/>
<line class="st0" x1="720.8" y1="64.6" x2="689.6" y2="44.9"/>
<line class="st0" x1="689.6" y1="44.9" x2="691.7" y2="42.4"/>
<line class="st0" x1="727.3" y1="60.9" x2="694.7" y2="40.3"/>
<line class="st0" x1="694.7" y1="40.3" x2="691.7" y2="42.4"/>
<polyline class="st0" points="752.1,95.4 750.9,94.9 749,94.5 746.9,94.3 744.7,94.3 742.4,94.7 740.1,95.3 738,96.1 "/>
<polyline class="st0" points="732.8,98.8 730.6,100.4 728.2,102.2 "/>
<polyline class="st0" points="752.1,75.1 750,75.2 747.2,75.6 744.5,76.3 741.6,77.2 738.8,78.4 735.9,79.9 733,81.6 730.1,83.5 
	727.2,85.7 724.3,88.1 721.5,90.7 718.7,93.6 716,96.6 713.3,99.8 711.5,102.2 "/>
<polyline class="st0" points="752.1,73 751.3,72.9 748.8,72.7 746.1,72.8 743.4,73.2 740.7,73.9 737.8,74.8 735,76 732.1,77.5 
	729.2,79.2 726.3,81.1 723.4,83.3 720.5,85.7 717.7,88.4 714.9,91.2 712.2,94.2 709.6,97.5 707,100.8 706,102.2 "/>
<polyline class="st0" points="705.8,102.2 706.7,100.9 709.3,97.5 711.9,94.4 714.5,91.4 717.3,88.6 720.1,86 722.9,83.6 
	725.8,81.4 728.6,79.5 "/>
<polyline class="st0" points="752.1,100.4 750.4,100.6 748.2,101.2 745.8,102.1 745.5,102.2 "/>
<polyline class="st0" points="742.8,102.2 743,102.1 745.4,101 747.7,100.1 750.1,99.5 752.1,99.2 "/>
<polyline class="st0" points="493.4,0 493.8,0.7 494.3,1.4 "/>
<polyline class="st0" points="500.2,0 499.9,0.1 499.5,0.3 499.1,0.4 498.8,0.5 498.4,0.6 498,0.7 497.7,0.8 497.3,0.9 496.9,1 
	496.5,1 496.2,1.1 495.8,1.2 495.4,1.3 495,1.3 494.3,1.4 "/>
<line class="st0" x1="499.4" y1="9.2" x2="501.5" y2="12.1"/>
<polyline class="st0" points="505.5,10.8 504.5,11.2 503.5,11.6 501.5,12.1 "/>
<line class="st0" x1="507.1" y1="19" x2="509.4" y2="21.6"/>
<line class="st0" x1="511.3" y1="20.8" x2="509.4" y2="21.6"/>
<polyline class="st0" points="575.6,5.3 575.6,5.4 575.5,5.7 "/>
<polyline class="st0" points="539.6,30.2 541.9,29.9 544.1,29.4 "/>
<polyline class="st0" points="512.2,12.9 511.6,14.6 511.3,16.3 511.3,18 511.6,19.8 512.1,21.4 "/>
<polyline class="st0" points="562.7,21.4 563.3,19.7 563.6,18 563.5,16.3 563.2,14.5 562.7,12.9 "/>
<polyline class="st0" points="562.7,30.3 563.3,28.3 563.6,26.1 "/>
<polyline class="st0" points="511.3,26.1 511.5,28.3 512.1,30.4 "/>
<polyline class="st0" points="542.3,31.2 539.8,31.5 537.3,31.6 534.8,31.5 532.2,31.2 529.8,30.8 527.4,30.2 525.2,29.4 
	523.1,28.6 521.2,27.5 519.4,26.4 517.8,25.1 516.5,23.7 515.4,22.3 514.5,20.8 514,19.2 513.7,17.6 513.6,16 513.8,14.5 
	514.3,12.9 515.1,11.3 515.5,10.7 "/>
<polyline class="st0" points="558.7,9.7 558.9,10 559.9,11.5 560.6,13.1 561.1,14.6 561.3,16.3 561.2,17.8 560.8,19.4 560.2,21 
	559.3,22.5 558.2,23.9 556.9,25.3 555.3,26.5 553.5,27.6 551.5,28.7 549.4,29.5 547.1,30.3 544.8,30.8 542.3,31.2 "/>
<polyline class="st0" points="560.8,16 560.1,14.5 559.7,13.8 "/>
<polyline class="st0" points="515.1,13.7 514.2,15.7 513.7,17.8 "/>
<polyline class="st0" points="561.2,17.8 561.2,17.6 560.8,16 "/>
<polyline class="st0" points="518.5,15.1 519.4,16.5 520.6,17.8 522,19.1 523.6,20.2 525.5,21.2 527.5,22 529.7,22.7 532,23.2 
	534.4,23.5 536.8,23.7 539.3,23.6 "/>
<line class="st0" x1="539.7" y1="27.1" x2="539.3" y2="23.6"/>
<polyline class="st0" points="516.2,17.4 517.1,18.9 518.3,20.3 519.7,21.6 521.3,22.8 523.2,23.9 525.2,24.9 527.4,25.7 
	529.7,26.3 532.2,26.8 534.7,27.1 537.2,27.2 539.7,27.1 "/>
<line class="st0" x1="518.5" y1="15.1" x2="516.2" y2="17.4"/>
<line class="st0" x1="539.7" y1="30.2" x2="539.7" y2="27.1"/>
<polyline class="st0" points="516.2,20.5 517.1,22 518.3,23.4 519.7,24.7 521.3,25.9 523.2,27 525.2,28 527.4,28.8 529.7,29.4 
	532.2,29.9 534.7,30.1 537.2,30.3 539.7,30.2 "/>
<line class="st0" x1="516.2" y1="17.4" x2="516.2" y2="20.5"/>
<polyline class="st0" points="540.7,21 538.7,21.2 536.5,21.2 534.5,21.1 532.4,20.7 530.4,20.3 528.6,19.6 526.9,18.8 525.4,17.9 
	524.1,16.8 523,15.7 522.2,14.4 521.6,13.1 521.3,11.8 521.3,10.5 521.6,9.2 522,8.2 "/>
<polyline class="st0" points="552.8,7.9 553.2,8.9 553.5,10.3 553.6,11.6 553.3,12.9 552.8,14.2 552,15.5 551,16.6 549.7,17.7 
	548.2,18.6 546.5,19.5 544.7,20.1 542.8,20.7 540.7,21 "/>
<line class="st0" x1="519.1" y1="15" x2="518.5" y2="15.1"/>
<line class="st0" x1="519.1" y1="15" x2="518.1" y2="12.1"/>
<line class="st0" x1="518.1" y1="12.1" x2="517.5" y2="12.2"/>
<polyline class="st0" points="524.2,1.6 523,2.3 521.4,3.5 520.1,4.8 519,6.2 518.2,7.6 517.7,9.1 517.5,10.6 517.5,12.2 "/>
<polyline class="st0" points="556.4,7.1 555.2,5.4 553.8,3.8 552.2,2.6 550.5,1.5 "/>
<line class="st0" x1="555.8" y1="7.2" x2="556.4" y2="7.1"/>
<line class="st0" x1="555.8" y1="7.2" x2="556.7" y2="10"/>
<line class="st0" x1="556.7" y1="10" x2="557.3" y2="9.9"/>
<polyline class="st0" points="543.8,23 546,22.5 548.1,21.7 550.1,20.8 551.9,19.7 553.5,18.6 554.8,17.3 555.9,15.9 556.7,14.5 
	557.2,12.9 557.4,11.4 557.3,9.9 "/>
<line class="st0" x1="543.6" y1="22.6" x2="543.8" y2="23"/>
<line class="st0" x1="543.6" y1="22.6" x2="539.1" y2="23.2"/>
<line class="st0" x1="539.1" y1="23.2" x2="539.3" y2="23.6"/>
<polyline class="st0" points="525.4,28.1 528.7,29.2 532.2,29.9 535.7,30.3 539.3,30.3 "/>
<polyline class="st0" points="539.7,30.2 539.7,30.3 539.6,30.4 539.4,30.4 539.3,30.3 "/>
<line class="st0" x1="543.8" y1="23" x2="544.2" y2="26.5"/>
<line class="st0" x1="544.2" y1="26.5" x2="544.2" y2="29.6"/>
<line class="st0" x1="543.6" y1="27.7" x2="544.2" y2="29.6"/>
<line class="st0" x1="543.6" y1="27.7" x2="543.6" y2="22.6"/>
<line class="st0" x1="559.6" y1="11.7" x2="557.3" y2="9.9"/>
<polyline class="st0" points="544.2,26.5 546.6,25.9 548.9,25.2 551,24.3 552.9,23.2 554.6,22.1 556.1,20.8 557.4,19.4 558.4,18 
	559.1,16.4 559.6,14.8 559.7,13.3 559.6,11.7 "/>
<polyline class="st0" points="553.6,25.9 554.6,25.2 556.1,23.9 557.4,22.5 558.4,21 559.1,19.5 559.6,18 559.7,16.3 559.7,16.2 "/>
<polyline class="st0" points="526.4,18.5 525.8,18.1 525.3,17.7 524.8,17.3 524.3,16.9 523.9,16.4 523.5,16 523.2,15.5 522.9,15.1 
	522.6,14.6 522.4,14.1 522.2,13.6 522.1,13.1 522,12.6 521.9,12.1 522,11.6 522,11.1 "/>
<polyline class="st0" points="522,10.7 522.1,10.5 522.1,10.2 "/>
<polyline class="st0" points="552.9,9 553.2,9.6 553.3,10.3 553.3,10.9 553.3,11.6 553.3,12.2 553.2,12.8 552.9,13.4 552.7,14 
	552.4,14.6 552,15.2 551.6,15.8 551.1,16.4 550.5,16.9 550,17.4 549.4,18 548.6,18.4 "/>
<polyline class="st0" points="552.8,11.9 552.7,13 552.6,13.5 552.5,14 552.3,14.6 552.1,15.1 551.8,15.6 551.4,16 "/>
<polyline class="st0" points="544.2,29.6 544.3,29.7 544.4,29.7 "/>
<line class="st0" x1="543.6" y1="27.7" x2="543.6" y2="27.8"/>
<line class="st0" x1="518.1" y1="15.4" x2="518.1" y2="12.1"/>
<line class="st0" x1="515.3" y1="14.6" x2="517.5" y2="12.2"/>
<line class="st0" x1="515.3" y1="17.6" x2="515.3" y2="14.6"/>
<polyline class="st0" points="521.7,3.2 520.3,4.1 518.8,5.4 517.5,6.8 516.5,8.3 515.8,9.8 515.3,11.4 515.1,12.9 515.3,14.6 "/>
<line class="st0" x1="515.1" y1="16.2" x2="515.3" y2="17.6"/>
<polyline class="st0" points="515.4,17.8 515.3,17.8 515.3,17.6 "/>
<polyline class="st0" points="558.7,8.8 557.6,7.1 556.3,5.6 554.8,4.3 553.2,3.2 "/>
<line class="st0" x1="556.4" y1="7.1" x2="558.7" y2="8.8"/>
<line class="st0" x1="558.7" y1="8.8" x2="558.7" y2="10.9"/>
<polyline class="st0" points="542.7,13.8 540.9,14.2 539,14.4 537.1,14.5 535.2,14.4 533.4,14.1 531.6,13.6 530,13 528.5,12.3 
	527.2,11.4 526.1,10.4 525.3,9.3 524.7,8.1 524.4,6.9 524.4,6.2 "/>
<polyline class="st0" points="550.5,6.2 550.4,7.3 550,8.5 549.3,9.7 548.4,10.7 547.3,11.7 545.9,12.5 544.4,13.2 542.7,13.8 "/>
<polyline class="st0" points="531.8,15.3 530.3,14.8 529.5,14.6 528.8,14.3 528.1,14 527.5,13.7 526.9,13.4 526.3,13 525.7,12.6 
	525.2,12.3 524.7,11.8 524.2,11.4 523.9,10.9 523.5,10.5 523.1,10 522.8,9.5 522.6,9 522.4,8.5 522.3,8 522.1,7.5 522.1,7 522,6.5 
	522.1,6 522.2,5.4 522.3,4.9 522.4,4.4 522.6,3.9 522.9,3.4 523.2,2.9 523.6,2.5 524.4,1.5 "/>
<polyline class="st0" points="552.1,4.5 552.4,4.9 552.6,5.3 552.7,5.8 552.8,6.2 552.8,7.1 552.8,8 552.6,8.9 552.3,9.7 
	551.9,10.6 551.3,11.4 550.7,12.2 550,12.9 549.1,13.7 548.2,14.3 547.1,14.9 546,15.5 544.8,15.9 543.6,16.3 "/>
<polyline class="st0" points="543.6,16.3 541.8,16.8 540.8,16.9 539.9,17.1 538.9,17.2 538,17.2 536.9,17.2 536,17.2 535,17.2 
	534.1,17 533.1,16.9 532.2,16.7 531.3,16.5 530.4,16.3 529.5,16 528.7,15.7 527.9,15.3 527.2,14.9 526.5,14.5 525.8,14.1 
	525.2,13.6 524.7,13.1 524.1,12.6 523.7,12.1 523.3,11.6 522.9,11 522.6,10.4 522.4,9.9 522.2,9.3 522.1,8.7 522,8.1 522.1,7.5 "/>
<polyline class="st0" points="552.7,7.9 552.8,8.3 552.8,8.7 552.8,9.1 552.8,9.5 552.6,10.2 552.4,10.9 552,11.7 551.6,12.4 
	551.1,13.1 550.6,13.7 549.9,14.4 549.2,15 548.4,15.5 547.6,16.1 546.6,16.5 545.7,17 543.6,17.7 "/>
<polyline class="st0" points="543.6,17.7 541.8,18.1 540.8,18.3 539.9,18.5 538.9,18.5 538,18.6 536.9,18.6 536,18.6 535,18.5 
	534.1,18.4 533.1,18.3 532.2,18.1 531.3,17.9 530.4,17.6 529.5,17.4 528.7,17 527.9,16.7 527.2,16.3 526.5,15.9 525.8,15.5 
	525.2,15 524.7,14.5 524.1,14 523.7,13.5 523.3,12.9 522.9,12.4 522.6,11.8 522.4,11.2 522.2,10.6 522.1,10 522,9.5 522.1,8.8 "/>
<polyline class="st0" points="552.7,9.3 552.8,9.7 552.8,10.1 552.8,10.5 552.8,10.8 552.6,11.6 552.4,12.3 552,13 551.6,13.8 
	551.1,14.5 550.5,15.1 549.9,15.7 549.2,16.3 548.4,16.9 547.6,17.4 546.6,17.9 545.7,18.3 543.6,19.1 "/>
<polyline class="st0" points="543.6,19.1 541.8,19.5 540.8,19.7 539.9,19.8 538.9,19.9 538,20 536.9,20 536,20 535,19.9 534.1,19.8 
	533.1,19.7 532.2,19.5 531.3,19.2 530.4,19 529.5,18.7 528.7,18.4 527.9,18 527.2,17.7 526.5,17.3 525.8,16.8 525.2,16.4 
	524.7,15.9 524.1,15.4 523.7,14.8 523.3,14.3 522.9,13.7 522.6,13.2 522.4,12.6 522.2,12 522.1,11.4 522,10.8 522.1,10.2 "/>
<polyline class="st0" points="552.7,10.7 552.8,11.1 552.8,11.4 552.8,11.8 552.8,12.2 552.6,12.9 552.4,13.7 552,14.4 551.6,15.1 
	551.1,15.8 550.5,16.5 549.9,17.1 549.2,17.7 548.4,18.3 547.6,18.8 546.6,19.3 545.7,19.7 543.6,20.4 "/>
<line class="st0" x1="543.6" y1="20.4" x2="542.3" y2="20.7"/>
<polyline class="st0" points="522.2,12.7 522.1,12.4 522,12.1 522.1,11.6 "/>
<polyline class="st0" points="550.4,17 550.7,16.7 551,16.4 551.5,15.8 551.8,15.1 552.2,14.4 552.5,13.8 552.6,13.1 552.7,12.3 
	552.8,11.7 "/>
<polyline class="st0" points="522.1,11 522,11.6 522.1,12.1 522.3,12.7 522.5,13.3 522.8,13.9 523.1,14.4 523.5,15 523.9,15.5 
	524.4,16 524.9,16.5 525.5,16.9 526.1,17.4 526.8,17.8 527.5,18.2 528.2,18.5 529,18.9 529.8,19.1 530.7,19.4 531.6,19.7 
	532.4,19.9 533.4,20 534.3,20.2 535.2,20.3 536.1,20.3 538.1,20.3 539,20.3 540,20.2 540.9,20 541.8,19.8 543.6,19.4 "/>
<polyline class="st0" points="543.6,19.4 545.6,18.7 546.5,18.3 547.4,17.9 548.2,17.4 548.9,16.8 549.7,16.3 550.3,15.7 
	550.9,15.1 551.4,14.5 551.8,13.8 552.2,13.1 552.4,12.4 552.6,11.7 552.7,11 552.8,10.3 "/>
<polyline class="st0" points="522.1,9.6 522,10.2 522.1,10.8 522.3,11.3 522.5,11.9 522.8,12.5 523.1,13 523.5,13.6 523.9,14.1 
	524.4,14.6 524.9,15.1 525.5,15.6 526.1,16 526.8,16.4 527.5,16.8 528.2,17.2 529,17.5 529.8,17.8 530.7,18 531.6,18.3 532.4,18.5 
	533.4,18.6 534.3,18.8 535.2,18.9 536.1,18.9 538.1,18.9 539,18.9 540,18.8 540.9,18.6 541.8,18.5 543.6,18 "/>
<polyline class="st0" points="543.6,18 545.6,17.4 546.5,16.9 547.4,16.5 548.2,16 548.9,15.5 549.7,14.9 550.3,14.3 550.9,13.7 
	551.4,13.1 551.8,12.4 552.2,11.7 552.4,11.1 552.6,10.3 552.7,9.6 552.8,8.9 "/>
<polyline class="st0" points="522.1,8.2 522,8.8 522.1,9.4 522.3,10 522.5,10.6 522.8,11.1 523.1,11.7 523.5,12.2 523.9,12.7 
	524.4,13.2 524.9,13.7 525.5,14.2 526.1,14.6 526.8,15.1 527.5,15.4 528.2,15.8 529,16.1 529.8,16.4 530.7,16.7 531.6,16.9 
	532.4,17.1 533.4,17.3 534.3,17.4 535.2,17.5 536.1,17.6 538.1,17.6 539,17.5 540,17.4 540.9,17.3 541.8,17.1 543.6,16.7 "/>
<polyline class="st0" points="543.6,16.7 545.6,16 546.5,15.6 547.4,15.1 548.2,14.6 548.9,14.1 549.7,13.5 550.3,13 550.9,12.3 
	551.4,11.7 551.8,11.1 552.2,10.4 552.4,9.7 552.6,8.9 552.7,8.3 552.8,7.5 "/>
<polyline class="st0" points="522.1,6.8 522,7.4 522.1,8 522.3,8.6 522.5,9.2 522.8,9.7 523.1,10.3 523.5,10.8 523.9,11.4 
	524.4,11.9 524.9,12.3 525.5,12.8 526.1,13.3 526.8,13.7 527.5,14 528.2,14.4 529,14.7 529.8,15.1 530.7,15.3 531.6,15.6 
	532.4,15.7 533.4,15.9 534.3,16.1 535.2,16.2 536.1,16.2 538.1,16.2 539,16.1 540,16 540.9,15.9 541.8,15.7 543.6,15.3 "/>
<polyline class="st0" points="543.6,15.3 544.9,14.8 546.3,14.3 546.8,14 547.4,13.7 548.5,13 549.5,12.3 550,11.9 550.4,11.5 
	550.8,11.1 551.1,10.6 551.8,9.8 "/>
<polyline class="st0" points="551.8,9.8 551.8,9.6 551.8,9.5 551.9,9.3 552.1,8.8 552.3,8.3 552.4,7.7 552.5,7.2 552.5,6.7 
	552.5,6.1 552.4,5.6 552.4,5.1 552.2,4.6 552,4.1 551.8,3.6 551.3,2.6 550.9,2.1 550.5,1.7 "/>
<polyline class="st0" points="524.4,1.9 524,2.3 523.6,2.8 523.4,3.2 523.1,3.7 522.9,4.2 522.8,4.7 522.7,5.2 522.6,5.7 522.5,6.2 
	522.5,6.6 522.6,7.2 522.7,7.7 522.8,8.2 523,8.6 523.2,9.1 523.5,9.6 523.7,10 524.1,10.5 524.4,10.9 524.8,11.4 525.3,11.8 
	525.7,12.2 526.2,12.6 526.8,12.9 527.9,13.6 529.1,14.2 530.5,14.8 531.1,15 531.5,15.1 531.8,15.3 "/>
<polyline class="st0" points="551.8,9.8 550.8,11 549.6,12.2 548.1,13.2 546.5,14.1 544.6,14.8 542.6,15.4 540.5,15.7 538.3,15.9 
	536.1,15.9 533.9,15.7 531.8,15.3 "/>
<polyline class="st0" points="505.3,102.2 506.7,100.6 508.3,99 510,97.5 511.8,96.1 513.8,94.8 515.9,93.5 518.2,92.4 520.5,91.4 
	"/>
<polyline class="st0" points="516.8,99.5 517.5,98.4 518.4,97.3 518.8,96.8 519.3,96.3 519.9,95.8 520.5,95.3 "/>
<polyline class="st0" points="562.7,92.8 558.6,90.7 554.3,89.1 "/>
<polyline class="st0" points="570,98.8 570.2,99.1 571.5,100.9 572.3,102.2 "/>
<polyline class="st0" points="514.8,102.2 515.1,101.9 515.3,101.5 515.8,100.9 516.3,100.2 516.8,99.5 "/>
<polyline class="st0" points="582.1,102.2 582.5,99.2 583.5,94.4 584.6,89.5 585.9,84.6 587.4,79.7 589,74.8 590.8,69.9 592.8,65.1 
	594.9,60.3 597.2,55.5 599.6,50.9 602.2,46.3 604.9,41.8 607.7,37.4 610.6,33.2 613.6,29.1 616.7,25.2 619.9,21.4 623.2,17.9 
	626.5,14.5 629.9,11.3 633.3,8.3 636.7,5.5 640.2,3 643.7,0.7 644.9,0 "/>
<polyline class="st0" points="700.7,12.5 700.9,13 701.6,14.8 "/>
<line class="st0" x1="576.5" y1="102.2" x2="576.7" y2="100.9"/>
<polyline class="st0" points="576.7,100.9 576.7,100.4 576.7,100.2 576.6,100 576.5,99.9 576.4,99.8 576.1,99.7 "/>
<line class="st0" x1="576.1" y1="99.7" x2="567.6" y2="98.5"/>
<line class="st0" x1="569.9" y1="89" x2="567.6" y2="98.5"/>
<polyline class="st0" points="569.9,89 572.3,88.2 574.7,87.3 577.1,86.4 579.5,85.4 "/>
<polyline class="st0" points="579.5,85.4 579.9,85.2 580.2,84.9 580.5,84.4 580.7,83.9 "/>
<line class="st0" x1="580.7" y1="83.9" x2="581.2" y2="82"/>
<polyline class="st0" points="581.2,82 581.3,81.5 581.3,81.3 581.3,81.1 581.2,80.9 581.1,80.8 580.9,80.6 "/>
<line class="st0" x1="580.9" y1="80.6" x2="573.6" y2="76.7"/>
<line class="st0" x1="577.1" y1="67.1" x2="573.6" y2="76.7"/>
<polyline class="st0" points="577.1,67.1 579.3,67 581.5,66.8 583.8,66.6 586.1,66.3 "/>
<polyline class="st0" points="586.1,66.3 586.5,66.1 586.8,65.9 587.1,65.5 587.4,65.1 "/>
<line class="st0" x1="587.4" y1="65.1" x2="588.1" y2="63.1"/>
<polyline class="st0" points="588.1,63.1 588.3,62.6 588.4,62.3 588.3,62.1 588.3,61.9 588.2,61.7 588.1,61.5 "/>
<line class="st0" x1="588.1" y1="61.5" x2="582.2" y2="55"/>
<line class="st0" x1="586.8" y1="45.8" x2="582.2" y2="55"/>
<polyline class="st0" points="586.8,45.8 588.7,46.4 590.8,46.9 592.8,47.3 594.9,47.6 "/>
<polyline class="st0" points="594.9,47.6 595.2,47.5 595.4,47.5 595.5,47.4 595.7,47.3 595.9,47.1 596.2,46.7 "/>
<line class="st0" x1="596.2" y1="46.7" x2="597.2" y2="44.8"/>
<polyline class="st0" points="597.2,44.8 597.4,44.3 597.5,43.9 597.4,43.4 597.4,43 "/>
<line class="st0" x1="597.4" y1="43" x2="593.1" y2="34.4"/>
<line class="st0" x1="598.7" y1="25.7" x2="593.1" y2="34.4"/>
<polyline class="st0" points="598.7,25.7 600.3,27 602,28.1 603.8,29.2 605.5,30.2 "/>
<polyline class="st0" points="605.5,30.2 605.8,30.3 605.9,30.3 606.1,30.2 606.3,30.1 606.5,30 606.8,29.6 "/>
<line class="st0" x1="606.8" y1="29.6" x2="608" y2="27.9"/>
<polyline class="st0" points="608,27.9 608.2,27.5 608.4,27 608.4,26.5 608.4,26 "/>
<line class="st0" x1="608.4" y1="26" x2="606.1" y2="15.4"/>
<line class="st0" x1="612.2" y1="7.8" x2="606.1" y2="15.4"/>
<polyline class="st0" points="612.2,7.8 613.5,9.6 614.8,11.4 616.2,13 617.6,14.7 "/>
<polyline class="st0" points="617.6,14.7 617.9,14.9 618,14.9 618.2,14.9 618.3,14.8 618.5,14.7 618.8,14.5 "/>
<line class="st0" x1="618.8" y1="14.5" x2="620.1" y2="13"/>
<polyline class="st0" points="620.1,13 620.4,12.6 620.6,12.1 620.8,11.6 620.8,11.1 "/>
<line class="st0" x1="620.8" y1="11.1" x2="620.4" y2="0"/>
<polyline class="st0" points="629.9,0 630.1,0.4 630.3,0.9 630.7,1.7 "/>
<polyline class="st0" points="630.7,1.7 630.9,2 631,2.1 631.1,2.1 631.3,2.1 631.5,2.1 631.8,1.8 "/>
<polyline class="st0" points="714.7,75.6 714.6,75.7 714.5,75.7 714.4,75.8 714.3,75.8 714.2,75.8 714.2,75.8 714.1,75.7 
	714.1,75.7 "/>
<line class="st0" x1="714.7" y1="75.6" x2="717.6" y2="72.8"/>
<polyline class="st0" points="719.5,76.5 718.6,74.6 717.6,72.8 "/>
<line class="st0" x1="718.7" y1="77.7" x2="719.5" y2="76.5"/>
<line class="st0" x1="666.1" y1="92.5" x2="664" y2="96.4"/>
<line class="st0" x1="666.1" y1="92.5" x2="669.7" y2="93.5"/>
<line class="st0" x1="664" y1="96.4" x2="666.7" y2="99.2"/>
<line class="st0" x1="666.1" y1="92.5" x2="635.2" y2="73"/>
<line class="st0" x1="664" y1="96.4" x2="633.1" y2="76.9"/>
<line class="st0" x1="635.2" y1="73" x2="633.1" y2="76.9"/>
<line class="st0" x1="673.7" y1="80.8" x2="671.2" y2="84.3"/>
<line class="st0" x1="673.7" y1="80.8" x2="676.8" y2="83"/>
<line class="st0" x1="671.2" y1="84.3" x2="673" y2="88.1"/>
<line class="st0" x1="637.1" y1="72.9" x2="639.6" y2="73.3"/>
<line class="st0" x1="672.3" y1="93.9" x2="639.6" y2="73.3"/>
<line class="st0" x1="635.2" y1="73" x2="637.1" y2="72.9"/>
<line class="st0" x1="635.8" y1="80.8" x2="668.4" y2="101.4"/>
<line class="st0" x1="634.1" y1="78.7" x2="635.8" y2="80.8"/>
<line class="st0" x1="633.1" y1="76.9" x2="634.1" y2="78.7"/>
<line class="st0" x1="673.7" y1="80.8" x2="642.8" y2="61.3"/>
<line class="st0" x1="671.2" y1="84.3" x2="640.3" y2="64.8"/>
<line class="st0" x1="642.8" y1="61.3" x2="640.3" y2="64.8"/>
<line class="st0" x1="655.2" y1="102.2" x2="629.3" y2="85.9"/>
<line class="st0" x1="647.2" y1="102.2" x2="627.9" y2="90.1"/>
<line class="st0" x1="629.3" y1="85.9" x2="627.9" y2="90.1"/>
<line class="st0" x1="641.4" y1="70.6" x2="674" y2="91.1"/>
<line class="st0" x1="640.4" y1="67.5" x2="641.4" y2="70.6"/>
<line class="st0" x1="640.3" y1="64.8" x2="640.4" y2="67.5"/>
<line class="st0" x1="631.6" y1="84.5" x2="634.5" y2="83.8"/>
<line class="st0" x1="663.7" y1="102.2" x2="634.5" y2="83.8"/>
<line class="st0" x1="629.3" y1="85.9" x2="631.6" y2="84.5"/>
<line class="st0" x1="682.5" y1="71.2" x2="679.7" y2="74"/>
<line class="st0" x1="682.5" y1="71.2" x2="684.8" y2="74.5"/>
<line class="st0" x1="679.7" y1="74" x2="680.7" y2="78.5"/>
<line class="st0" x1="648.2" y1="61.7" x2="680.8" y2="82.2"/>
<line class="st0" x1="648" y1="57.9" x2="648.2" y2="61.7"/>
<line class="st0" x1="648.8" y1="54.4" x2="648" y2="57.9"/>
<line class="st0" x1="679.7" y1="74" x2="648.8" y2="54.4"/>
<line class="st0" x1="682.5" y1="71.2" x2="651.6" y2="51.7"/>
<line class="st0" x1="651.6" y1="51.7" x2="648.8" y2="54.4"/>
<polyline class="st0" points="681.9,102.2 682.8,100.7 684.2,98.6 685.8,96.6 687.4,94.8 689.1,93.2 690.8,91.8 692.5,90.7 
	694.2,89.7 696,89 697.6,88.6 698.1,88.5 "/>
<polyline class="st0" points="677.5,102.2 677.6,102.1 679,99.5 680.5,96.9 682.2,94.6 684,92.4 685.8,90.3 687.7,88.4 689.6,86.8 
	691.6,85.4 693.6,84.2 695.5,83.3 697.5,82.6 699.4,82.1 701.1,82 702.9,82.1 704.5,82.5 705.2,82.7 "/>
<line class="st0" x1="628" y1="96.5" x2="631" y2="94.7"/>
<line class="st0" x1="643" y1="102.2" x2="631" y2="94.7"/>
<line class="st0" x1="630.6" y1="102.2" x2="625.6" y2="99.1"/>
<line class="st0" x1="625.6" y1="99.1" x2="628" y2="96.5"/>
<line class="st0" x1="625.6" y1="99.1" x2="624.9" y2="103.1"/>
<line class="st0" x1="640.3" y1="72.9" x2="672.9" y2="93.4"/>
<line class="st0" x1="641.1" y1="71.4" x2="640.3" y2="72.9"/>
<line class="st0" x1="673.8" y1="92" x2="641.1" y2="71.4"/>
<polyline class="st0" points="639.6,73.3 640,73.1 640.3,72.9 "/>
<line class="st0" x1="635.1" y1="83.2" x2="665.3" y2="102.2"/>
<line class="st0" x1="635.7" y1="81.6" x2="635.1" y2="83.2"/>
<line class="st0" x1="668.3" y1="102.2" x2="635.7" y2="81.6"/>
<polyline class="st0" points="635.7,81.6 635.8,81.2 635.8,80.8 "/>
<polyline class="st0" points="641.1,71.4 641.4,71 641.4,70.6 "/>
<polyline class="st0" points="634.5,83.8 634.8,83.5 635.1,83.2 "/>
<line class="st0" x1="646.8" y1="63.7" x2="679.4" y2="84.3"/>
<line class="st0" x1="646.7" y1="63.8" x2="646.8" y2="63.7"/>
<line class="st0" x1="647.8" y1="62.6" x2="646.8" y2="63.7"/>
<line class="st0" x1="680.4" y1="83.1" x2="647.8" y2="62.6"/>
<line class="st0" x1="631.5" y1="93.9" x2="644.8" y2="102.2"/>
<line class="st0" x1="631.9" y1="92.6" x2="631.5" y2="93.9"/>
<line class="st0" x1="647.8" y1="62.6" x2="648.2" y2="61.7"/>
<line class="st0" x1="688.9" y1="66.3" x2="689.1" y2="71.3"/>
<line class="st0" x1="656.4" y1="50.7" x2="655.8" y2="54.3"/>
<line class="st0" x1="658" y1="46.7" x2="656.4" y2="50.7"/>
<line class="st0" x1="688.9" y1="66.3" x2="658" y2="46.7"/>
<line class="st0" x1="631" y1="94.7" x2="631.5" y2="93.9"/>
<line class="st0" x1="691.9" y1="64.5" x2="693.3" y2="68.6"/>
<line class="st0" x1="691.9" y1="64.5" x2="688.9" y2="66.3"/>
<line class="st0" x1="691.9" y1="64.5" x2="660.9" y2="45"/>
<line class="st0" x1="660.9" y1="45" x2="658" y2="46.7"/>
<polyline class="st0" points="697.3,89.3 695.3,89.6 693.4,90.3 691.6,91.2 "/>
<line class="st0" x1="698.3" y1="61.7" x2="697.5" y2="66.8"/>
<line class="st0" x1="667.3" y1="42.2" x2="664.9" y2="46.3"/>
<line class="st0" x1="698.3" y1="61.7" x2="667.3" y2="42.2"/>
<line class="st0" x1="664.9" y1="46.3" x2="664.6" y2="47.2"/>
<line class="st0" x1="701.1" y1="61" x2="701.6" y2="65.8"/>
<line class="st0" x1="701.1" y1="61" x2="698.3" y2="61.7"/>
<line class="st0" x1="701.1" y1="61" x2="670.2" y2="41.5"/>
<line class="st0" x1="670.2" y1="41.5" x2="667.3" y2="42.2"/>
<line class="st0" x1="706.9" y1="60.7" x2="705.5" y2="65.6"/>
<line class="st0" x1="676" y1="41.2" x2="673.9" y2="43.8"/>
<line class="st0" x1="706.9" y1="60.7" x2="676" y2="41.2"/>
<line class="st0" x1="709.4" y1="61.2" x2="709.1" y2="66.3"/>
<line class="st0" x1="709.4" y1="61.2" x2="706.9" y2="60.7"/>
<line class="st0" x1="709.4" y1="61.2" x2="678.5" y2="41.6"/>
<line class="st0" x1="678.5" y1="41.6" x2="676" y2="41.2"/>
<line class="st0" x1="714.4" y1="63.3" x2="712.3" y2="67.7"/>
<line class="st0" x1="683.4" y1="43.8" x2="682.8" y2="44.3"/>
<line class="st0" x1="714.4" y1="63.3" x2="683.4" y2="43.8"/>
<line class="st0" x1="716.3" y1="64.8" x2="714.4" y2="63.3"/>
<line class="st0" x1="716.3" y1="64.8" x2="715.2" y2="69.9"/>
<line class="st0" x1="719.9" y1="69.3" x2="717.6" y2="72.8"/>
<line class="st0" x1="719.9" y1="69.3" x2="715.9" y2="66.8"/>
<line class="st0" x1="721.2" y1="71.8" x2="719.9" y2="69.3"/>
<line class="st0" x1="721.2" y1="71.8" x2="719.5" y2="76.5"/>
<polyline class="st0" points="752.1,4.7 750.4,7.9 747.9,13 745.5,18.2 743.2,23.4 741.2,28.6 739.3,33.9 737.5,39.2 736,44.5 
	734.6,49.8 733.3,55 732.3,60.2 731.5,65.3 730.8,70.4 730.4,75.4 730.1,78.6 "/>
<line class="st0" x1="722.7" y1="74.6" x2="722.4" y2="77.9"/>
<line class="st0" x1="725.6" y1="72.1" x2="722.7" y2="74.6"/>
<line class="st0" x1="725.6" y1="72.1" x2="726" y2="71.3"/>
<line class="st0" x1="726.3" y1="69" x2="726" y2="71.3"/>
<polyline class="st0" points="726.1,68.5 726.1,68.5 726.2,68.5 726.2,68.5 726.3,68.6 726.3,68.7 726.3,68.8 726.3,68.9 726.3,69 
	"/>
<line class="st0" x1="723.5" y1="68.2" x2="726.1" y2="68.5"/>
<line class="st0" x1="724.3" y1="63" x2="723.5" y2="68.2"/>
<line class="st0" x1="727.3" y1="60.9" x2="724.3" y2="63"/>
<line class="st0" x1="727.3" y1="60.9" x2="727.8" y2="60"/>
<line class="st0" x1="728.2" y1="57.7" x2="727.8" y2="60"/>
<polyline class="st0" points="728,57.1 728.1,57.2 728.2,57.2 728.2,57.2 728.2,57.3 728.2,57.4 728.2,57.5 728.2,57.6 728.2,57.7 
	"/>
<line class="st0" x1="725.6" y1="56.4" x2="728" y2="57.1"/>
<line class="st0" x1="726.9" y1="51.1" x2="725.6" y2="56.4"/>
<line class="st0" x1="729.8" y1="49.4" x2="726.9" y2="51.1"/>
<line class="st0" x1="729.8" y1="49.4" x2="730.4" y2="48.6"/>
<line class="st0" x1="731" y1="46.3" x2="730.4" y2="48.6"/>
<polyline class="st0" points="730.9,45.6 730.9,45.6 730.9,45.7 731,45.7 731,45.8 731,45.9 731,46 731,46.1 731,46.3 "/>
<line class="st0" x1="728.7" y1="44.5" x2="730.9" y2="45.6"/>
<line class="st0" x1="730.3" y1="39.1" x2="728.7" y2="44.5"/>
<line class="st0" x1="733.2" y1="37.8" x2="730.3" y2="39.1"/>
<line class="st0" x1="733.2" y1="37.8" x2="733.7" y2="37"/>
<line class="st0" x1="734.5" y1="34.7" x2="733.7" y2="37"/>
<polyline class="st0" points="734.5,34.7 734.6,34.3 734.4,33.9 "/>
<line class="st0" x1="732.5" y1="32.4" x2="734.4" y2="33.9"/>
<line class="st0" x1="734.4" y1="27.1" x2="732.5" y2="32.4"/>
<line class="st0" x1="737.3" y1="26.1" x2="734.4" y2="27.1"/>
<polyline class="st0" points="737.3,26.1 737.6,25.9 737.9,25.5 "/>
<line class="st0" x1="738.8" y1="23.1" x2="737.9" y2="25.5"/>
<line class="st0" x1="738.8" y1="23.1" x2="738.8" y2="22.4"/>
<line class="st0" x1="737.1" y1="20.4" x2="738.8" y2="22.4"/>
<line class="st0" x1="739.4" y1="15.1" x2="737.1" y2="20.4"/>
<line class="st0" x1="742.1" y1="14.7" x2="739.4" y2="15.1"/>
<polyline class="st0" points="742.1,14.7 742.5,14.5 742.7,14.1 "/>
<line class="st0" x1="743.8" y1="11.8" x2="742.7" y2="14.1"/>
<polyline class="st0" points="743.8,11.8 744,11.4 743.9,11 "/>
<line class="st0" x1="742.4" y1="8.7" x2="743.9" y2="11"/>
<line class="st0" x1="745" y1="3.5" x2="742.4" y2="8.7"/>
<line class="st0" x1="747.7" y1="3.5" x2="745" y2="3.5"/>
<polyline class="st0" points="747.7,3.5 748,3.3 748.3,2.9 "/>
<line class="st0" x1="749.5" y1="0.7" x2="748.3" y2="2.9"/>
<polyline class="st0" points="749.5,0.7 749.6,0.3 749.6,-0.2 "/>
<polyline class="st0" points="742.8,61.7 744.5,60.3 746.1,59.1 747.8,58.1 749.5,57.4 751.1,57 752.1,56.8 "/>
<polyline class="st0" points="742.8,61.7 740.5,64.3 738.3,67.1 736.4,70.1 734.8,73.3 733.5,76.7 "/>
<polyline class="st0" points="752.1,30.2 751.4,30.1 750.1,29.6 748.9,28.9 747.9,27.9 747,26.6 746.3,25.2 745.7,23.6 745.3,21.7 
	745.2,19.7 745.2,18.9 "/>
<line class="st0" x1="740.2" y1="6" x2="742.4" y2="8.7"/>
<line class="st0" x1="741.7" y1="3.1" x2="740.2" y2="6"/>
<line class="st0" x1="745" y1="3.5" x2="741.7" y2="3.1"/>
<line class="st0" x1="730.7" y1="0" x2="740.2" y2="6"/>
<line class="st0" x1="741.7" y1="3.1" x2="736.8" y2="0"/>
<line class="st0" x1="736" y1="15.1" x2="734.7" y2="18.1"/>
<line class="st0" x1="739.4" y1="15.1" x2="736" y2="15.1"/>
<line class="st0" x1="734.7" y1="18.1" x2="737.1" y2="20.4"/>
<line class="st0" x1="747.7" y1="3.5" x2="742.1" y2="0"/>
<line class="st0" x1="726.5" y1="0" x2="743.9" y2="11"/>
<line class="st0" x1="705.9" y1="0" x2="734.7" y2="18.1"/>
<line class="st0" x1="736" y1="15.1" x2="711.9" y2="0"/>
<line class="st0" x1="742.1" y1="14.7" x2="718.9" y2="0"/>
<line class="st0" x1="716.3" y1="65" x2="720.3" y2="67.5"/>
<line class="st0" x1="689.6" y1="44.9" x2="689.2" y2="47.5"/>
<line class="st0" x1="695.2" y1="39.5" x2="727.8" y2="60"/>
<line class="st0" x1="695.5" y1="38" x2="695.2" y2="39.5"/>
<line class="st0" x1="694.7" y1="40.3" x2="695.2" y2="39.5"/>
<line class="st0" x1="719.1" y1="77.2" x2="719" y2="77.7"/>
<line class="st0" x1="722.7" y1="74.6" x2="719.6" y2="76.3"/>
<polyline class="st0" points="745.2,18.8 745.2,19.1 745.5,21 745.9,22.6 746.5,24.2 747.3,25.4 748.3,26.5 749.4,27.3 750.6,27.8 
	752,28.1 752.1,28.1 "/>
<polyline class="st0" points="745.3,20 747.2,19 749,17.7 750.6,16.3 "/>
<line class="st0" x1="752.1" y1="14.8" x2="750.6" y2="16.3"/>
<line class="st0" x1="749.8" y1="16.8" x2="752.1" y2="14.4"/>
<polyline class="st0" points="746.8,19.2 748.2,18.2 749.8,16.8 "/>
<polyline class="st0" points="752.1,57.7 751.4,57.6 749.9,57.7 748.4,58.1 746.8,58.8 745.8,59.3 "/>
<polyline class="st0" points="744.8,73 745.9,70.2 746.7,67.4 747.2,64.5 747.4,61.5 747.3,58.5 "/>
<polyline class="st0" points="744.3,73.1 745.6,70 746.5,66.8 747.2,63.6 747.5,60.3 "/>
<polyline class="st0" points="752.1,4.8 750.3,8.3 748.6,12 747.2,15.8 745.9,19.7 "/>
<polyline class="st0" points="513.9,10 513,9 510.6,6.4 508.2,3.6 505.9,0.5 505.5,0 "/>
<polyline class="st0" points="512.5,10.8 512.7,10.7 512.9,10.7 513.1,10.7 513.2,10.9 "/>
<polyline class="st0" points="506.9,13.8 508.4,13.2 509.8,12.5 511.2,11.7 512.5,10.8 "/>
<line class="st0" x1="505.1" y1="11.9" x2="506.9" y2="13.8"/>
<polyline class="st0" points="508.2,6.1 507.3,7.4 506.5,8.9 505.7,10.4 505.1,11.9 "/>
<polyline class="st0" points="508.2,5.4 508.3,5.5 508.4,5.7 508.3,5.9 508.2,6.1 "/>
<line class="st0" x1="507.4" y1="4.4" x2="508.2" y2="5.4"/>
<polyline class="st0" points="506.8,4.3 506.9,4.2 507.1,4.2 507.3,4.3 507.4,4.4 "/>
<polyline class="st0" points="500.8,6.6 502.4,6.2 503.9,5.7 505.3,5 506.8,4.3 "/>
<line class="st0" x1="499.2" y1="4.4" x2="500.8" y2="6.6"/>
<polyline class="st0" points="501.8,0 501.6,0.3 501.5,0.5 501.2,0.8 501.1,1 500.9,1.3 500.7,1.5 500.6,1.8 500.4,2.1 500.2,2.4 
	500.1,2.6 499.9,3 499.8,3.2 499.6,3.5 499.5,3.8 499.2,4.4 "/>
<line class="st0" x1="575.5" y1="5.7" x2="575.5" y2="5.7"/>
<polyline class="st0" points="509.4,21.6 508,17.2 506.9,13.8 "/>
<polyline class="st0" points="501.5,12.1 501.1,9 500.8,6.6 "/>
<line class="st0" x1="494.3" y1="1.4" x2="494.8" y2="0"/>
<polyline class="st0" points="505.1,11.9 506.2,15.9 507.1,19 "/>
<polyline class="st0" points="499.2,4.4 499.3,7.1 499.4,9.2 "/>
<polyline class="st0" points="575.2,6.1 575.3,5.6 575.3,4.6 "/>
<line class="st0" x1="575" y1="0.1" x2="575" y2="0"/>
<line class="st0" x1="575.5" y1="5.7" x2="575.5" y2="4.8"/>
<line class="st0" x1="519.7" y1="57.4" x2="520.5" y2="57.3"/>
<line class="st0" x1="519.6" y1="57.2" x2="519.7" y2="57.4"/>
<line class="st0" x1="520.5" y1="55.9" x2="519.6" y2="57.2"/>
<polyline class="st0" points="515.8,49.1 516.9,49.2 518.1,49.3 519.3,49.3 520.5,49.1 "/>
<line class="st0" x1="515.7" y1="48.8" x2="515.8" y2="49.1"/>
<polyline class="st0" points="520.5,44.4 519.2,45.4 518.5,45.9 517.9,46.5 517.3,47 516.7,47.6 515.7,48.8 "/>
<polyline class="st0" points="514.5,38.1 515.9,38.7 516.6,39 517.3,39.2 518.1,39.4 518.9,39.6 519.7,39.6 520.5,39.6 "/>
<line class="st0" x1="514.5" y1="37.8" x2="514.5" y2="38.1"/>
<polyline class="st0" points="516.4,36.2 515.9,36.6 515.4,36.9 514.5,37.8 "/>
<polyline class="st0" points="558,4.3 556.6,3.6 555.1,3.3 553.6,3.4 "/>
<polyline class="st0" points="522.4,2.2 522,1.6 521.8,1.4 521.6,1.1 521.5,0.9 521.2,0.6 521.1,0.3 520.9,0 "/>
<polyline class="st0" points="514.5,5.8 515.6,5.5 516.7,5.2 517.3,5.1 517.9,5.1 519,5.2 "/>
<line class="st0" x1="516.1" y1="7.4" x2="514.5" y2="5.8"/>
<line class="st0" x1="515.6" y1="7.9" x2="514.4" y2="6.1"/>
<line class="st0" x1="514.4" y1="6.1" x2="515.9" y2="7.6"/>
<line class="st0" x1="514.5" y1="5.8" x2="514.4" y2="6.1"/>
<line class="st0" x1="511.3" y1="16.5" x2="511.1" y2="16.2"/>
<polyline class="st0" points="522.5,2.6 522.5,2.4 522.4,2.2 "/>
<line class="st0" x1="511.1" y1="16.2" x2="511.1" y2="16.5"/>
<line class="st0" x1="511.1" y1="16.5" x2="511.3" y2="17"/>
<polyline class="st0" points="514.5,37.8 511.9,31.3 509.9,26.2 "/>
<line class="st0" x1="509.9" y1="26.2" x2="511.3" y2="25.1"/>
<polyline class="st0" points="509.9,26.4 512.5,32.9 514.5,38.1 "/>
<line class="st0" x1="509.9" y1="26.2" x2="509.9" y2="26.4"/>
<polyline class="st0" points="515.7,48.8 512.9,41 510.8,34.8 "/>
<line class="st0" x1="510.8" y1="34.8" x2="512.5" y2="33.1"/>
<polyline class="st0" points="560.9,8.6 560.4,7.2 559.7,5.9 558.8,4.9 557.6,4.1 556.3,3.6 555,3.3 553.6,3.4 "/>
<polyline class="st0" points="510.8,35 513.6,42.9 515.8,49.1 "/>
<line class="st0" x1="510.8" y1="34.8" x2="510.8" y2="35"/>
<line class="st0" x1="519.6" y1="57.2" x2="516.7" y2="49.2"/>
<polyline class="st0" points="576.4,55.1 574.4,54.1 572.2,53.1 570,52.1 567.6,51 565.2,49.9 562.8,48.9 557.7,46.9 "/>
<polyline class="st0" points="554.3,44.2 556.1,45.5 557.7,46.9 "/>
<polyline class="st0" points="582.5,42.3 580.4,41.3 578.3,40.1 576.1,39 573.8,37.9 571.4,36.7 569,35.4 564.2,32.8 "/>
<line class="st0" x1="564.2" y1="32.8" x2="561.4" y2="32.8"/>
<polyline class="st0" points="576.4,56.6 578.4,57.6 580.2,58.5 581.1,59 581.9,59.4 582.7,59.9 583.4,60.3 584.1,60.7 584.9,61.1 
	585.5,61.4 586.1,61.8 586.7,62.2 587.2,62.5 588.1,63.1 "/>
<polyline class="st0" points="576.4,56.6 576.6,55.9 576.4,55.1 "/>
<line class="st0" x1="583.8" y1="41.3" x2="584.8" y2="39.4"/>
<polyline class="st0" points="574.5,59.9 575.2,59.4 575.7,58.6 "/>
<polyline class="st0" points="575.7,58.6 577.6,59.5 579.4,60.5 580.3,60.9 581.1,61.3 581.9,61.8 582.7,62.2 583.4,62.6 584.1,63 
	584.7,63.4 585.3,63.7 585.9,64.1 586.4,64.4 587.4,65.1 "/>
<line class="st0" x1="566.8" y1="12.3" x2="569.7" y2="15.1"/>
<line class="st0" x1="574.5" y1="15.1" x2="566.8" y2="12.3"/>
<line class="st0" x1="575.7" y1="58.6" x2="576.4" y2="56.6"/>
<polyline class="st0" points="594.7,23.4 596.7,24.3 598.7,25.2 599.6,25.6 600.5,25.9 601.4,26.3 602.2,26.6 603,26.9 603.8,27.1 
	604.6,27.3 605.3,27.5 606,27.6 606.7,27.8 608,27.9 "/>
<polyline class="st0" points="594.7,23.4 595.2,22.5 595.2,21.6 "/>
<line class="st0" x1="578.3" y1="2.4" x2="574" y2="1.6"/>
<polyline class="st0" points="595.2,21.6 593.1,20.6 591,19.4 588.8,18.2 586.6,16.9 584.3,15.5 582,14 579.7,12.5 577.4,11 "/>
<polyline class="st0" points="574,1.6 574.9,3.8 575.8,6.2 576.6,8.6 577.4,11 "/>
<line class="st0" x1="593.6" y1="25.1" x2="594.7" y2="23.4"/>
<polyline class="st0" points="574.5,59.9 572.4,58.9 570.3,57.8 568,56.8 565.7,55.8 563.3,54.8 560.8,53.7 555.8,51.7 "/>
<line class="st0" x1="555.8" y1="51.7" x2="554.3" y2="52.1"/>
<polyline class="st0" points="568.5,77.8 569.2,77.2 569.6,76.4 "/>
<polyline class="st0" points="569.6,76.4 571.5,77.3 573.3,78.3 574.1,78.8 574.9,79.3 575.7,79.8 576.4,80.3 577.1,80.8 
	577.7,81.2 578.3,81.7 578.9,82.2 579.4,82.6 579.8,83.1 580.7,83.9 "/>
<line class="st0" x1="569.6" y1="76.4" x2="570.2" y2="74.4"/>
<line class="st0" x1="566.8" y1="12.3" x2="563.6" y2="17.5"/>
<polyline class="st0" points="575.1,0 574.5,0.8 574,1.6 "/>
<polyline class="st0" points="583.8,41.3 581.7,40.2 579.6,39.1 577.4,38 575,36.8 572.7,35.6 570.4,34.4 565.5,31.9 "/>
<polyline class="st0" points="565.5,31.9 565.2,32.3 564.9,32.6 564.5,32.8 564.2,32.8 "/>
<polyline class="st0" points="584.8,39.4 582.7,38.4 580.6,37.3 578.3,36.2 576.1,35 573.7,33.8 571.3,32.6 566.5,30 "/>
<polyline class="st0" points="566.7,28.3 566.8,28.7 566.8,28.8 566.8,29.1 566.8,29.5 566.5,30 "/>
<line class="st0" x1="566.5" y1="30" x2="565.5" y2="31.9"/>
<polyline class="st0" points="593.6,25.1 591.5,24 589.4,22.9 587.2,21.6 585,20.3 582.7,19 580.4,17.5 578.2,16 575.9,14.5 "/>
<polyline class="st0" points="575.9,14.5 575.6,14.9 575.3,15 575.2,15.1 575,15.1 574.8,15.2 574.5,15.1 "/>
<polyline class="st0" points="576.4,56.6 574.4,55.6 572.3,54.6 570,53.6 567.7,52.6 565.3,51.5 562.9,50.5 557.9,48.5 "/>
<polyline class="st0" points="557.7,46.9 558,47.1 558,47.3 558,47.5 558.1,47.7 558,48 557.9,48.5 "/>
<polyline class="st0" points="575.7,58.6 573.6,57.6 571.5,56.6 569.2,55.5 566.9,54.5 564.5,53.4 562.1,52.4 557.1,50.4 "/>
<polyline class="st0" points="557.1,50.4 556.9,50.9 556.5,51.3 556.1,51.5 555.8,51.7 "/>
<polyline class="st0" points="594.7,23.4 592.7,22.3 590.5,21.2 588.4,20 586.2,18.6 583.9,17.3 581.6,15.8 579.3,14.3 577,12.8 "/>
<polyline class="st0" points="577.4,11 577.5,11.4 577.4,11.8 577.3,12.3 577,12.8 "/>
<line class="st0" x1="557.9" y1="48.5" x2="557.1" y2="50.4"/>
<line class="st0" x1="577" y1="12.8" x2="575.9" y2="14.5"/>
<line class="st0" x1="582.9" y1="97.5" x2="582.8" y2="97.7"/>
<line class="st0" x1="639.2" y1="60.4" x2="639.2" y2="60.7"/>
<line class="st0" x1="648" y1="55.4" x2="648" y2="55.1"/>
<line class="st0" x1="648" y1="55.1" x2="647" y2="55.7"/>
<line class="st0" x1="640.2" y1="59.8" x2="639.2" y2="60.4"/>
<polyline class="st0" points="616.1,96.3 616.2,93.4 616.6,90.3 617.1,87.2 617.8,84 618.7,80.8 619.7,77.6 620.9,74.4 622.3,71.3 
	623.8,68.1 625.5,65.1 627.3,62.2 629.1,59.5 631.2,56.8 633.2,54.3 635.4,52 637.6,49.9 639.8,48 642.1,46.3 644.4,44.9 
	646.7,43.7 648.9,42.8 651.1,42.1 653.2,41.7 655.3,41.5 657.3,41.7 659.2,42 661,42.7 662.7,43.6 664.2,44.8 665.2,45.8 "/>
<polyline class="st0" points="616.4,102.2 616.3,101.9 616.1,99.2 616.1,96.3 "/>
<polyline class="st0" points="629.8,11.3 629.4,12.1 629,12.8 "/>
<line class="st0" x1="421" y1="50.3" x2="419" y2="102.2"/>
<polyline class="st0" points="425.5,43.7 424.2,44.6 423,45.7 422,47.1 421.4,48.7 421,50.3 "/>
<line class="st0" x1="436.3" y1="36.8" x2="425.5" y2="43.7"/>
<line class="st0" x1="466.8" y1="60.7" x2="466.8" y2="0"/>
<line class="st0" x1="466.8" y1="60.7" x2="465.2" y2="102.2"/>
<polyline class="st0" points="469,57.4 468.2,58 467.5,58.8 467,59.7 466.8,60.7 "/>
<line class="st0" x1="503.9" y1="35.4" x2="469" y2="57.4"/>
<line class="st0" x1="513" y1="41.1" x2="503.9" y2="35.4"/>
<line class="st0" x1="662.7" y1="8.3" x2="662.7" y2="8.5"/>
<line class="st0" x1="503.9" y1="35.4" x2="503.9" y2="11.4"/>
<line class="st0" x1="469" y1="57.4" x2="469" y2="0"/>
<line class="st0" x1="683.2" y1="72.2" x2="688.3" y2="75.4"/>
<line class="st0" x1="685.9" y1="76.6" x2="686.7" y2="77.1"/>
<line class="st0" x1="687.9" y1="76.2" x2="684.6" y2="74.2"/>
<line class="st0" x1="693.5" y1="69.5" x2="696" y2="71.1"/>
<line class="st0" x1="693.9" y1="72" x2="694.4" y2="72.3"/>
<line class="st0" x1="695.5" y1="71.8" x2="693.7" y2="70.7"/>
<line class="st0" x1="701.5" y1="68.5" x2="703.4" y2="69.7"/>
<line class="st0" x1="701.4" y1="70.1" x2="701.7" y2="70.2"/>
<line class="st0" x1="702.7" y1="70.2" x2="701.4" y2="69.4"/>
<line class="st0" x1="708.1" y1="70.2" x2="709.7" y2="71.2"/>
<line class="st0" x1="708.2" y1="71.1" x2="708.3" y2="71.2"/>
<line class="st0" x1="709.1" y1="71.5" x2="708" y2="70.8"/>
<line class="st0" x1="713.4" y1="74.8" x2="714.7" y2="75.6"/>
<line class="st0" x1="728.2" y1="57.7" x2="726.6" y2="56.7"/>
<line class="st0" x1="725.6" y1="72.1" x2="716" y2="66.1"/>
<line class="st0" x1="726.3" y1="69" x2="725.3" y2="68.4"/>
<line class="st0" x1="716.3" y1="65.1" x2="726" y2="71.3"/>
<line class="st0" x1="661.8" y1="10.2" x2="663.4" y2="7.1"/>
<line class="st0" x1="676.4" y1="40.9" x2="676.3" y2="41.3"/>
<line class="st0" x1="728" y1="79.9" x2="727.4" y2="79.6"/>
<polyline class="st0" points="648.6,55.3 647.3,55.6 645.5,56.4 643.6,57.3 641.8,58.6 639.9,60 638.2,61.7 636.4,63.6 634.7,65.7 
	633.1,68 631.7,70.3 630.4,72.7 629.2,75.3 628.1,77.9 627.3,80.5 626.6,83.1 626,85.6 625.7,88.1 625.6,90.6 625.7,92.9 625.9,95 
	626.3,97 626.7,98 "/>
<line class="st0" x1="565.7" y1="14" x2="563.4" y2="15.4"/>
<polygon class="st0" points="452.8,19.5 452,19.1 451.1,18.9 450.1,18.9 449.2,19 448.3,19.3 447.6,19.7 447.1,20.3 446.9,20.9 
	447,21.5 447.3,22.1 447.9,22.6 448.7,23 449.6,23.2 450.6,23.2 451.6,23.1 452.5,22.8 453.1,22.4 453.6,21.8 453.8,21.2 
	453.8,20.6 453.4,20 "/>
<polygon class="st0" points="451.2,62.7 450.4,62.3 449.5,62.1 448.5,62 447.5,62.2 446.7,62.4 446,62.9 445.5,63.4 445.3,64 
	445.4,64.6 445.7,65.2 446.3,65.7 447.1,66.1 448,66.3 449,66.4 450,66.3 450.8,65.9 451.5,65.5 452,65 452.2,64.4 452.2,63.7 
	451.8,63.2 "/>
<line class="st0" x1="464.7" y1="0" x2="460.7" y2="102.2"/>
<line class="st0" x1="520.5" y1="79.1" x2="483.8" y2="102.2"/>
<line class="st0" x1="495" y1="102.2" x2="520.5" y2="86.2"/>
<line class="st0" x1="437.8" y1="0" x2="433.8" y2="102.2"/>
<line class="st0" x1="631.8" y1="1.8" x2="633.1" y2="0.7"/>
<polyline class="st0" points="633.1,0.7 633.2,0.6 633.3,0.5 633.4,0.4 633.4,0.4 633.4,0.4 633.5,0.3 633.5,0.3 633.5,0.2 
	633.6,0.2 633.6,0.1 633.6,0.1 633.7,0 633.7,0 "/>
<line class="st0" x1="586.8" y1="45.8" x2="582.6" y2="45.2"/>
<line class="st0" x1="579.2" y1="52.1" x2="582.2" y2="55"/>
<line class="st0" x1="582.6" y1="45.2" x2="579.2" y2="52.1"/>
<line class="st0" x1="598.7" y1="25.7" x2="594.3" y2="25"/>
<line class="st0" x1="590.2" y1="31.5" x2="593.1" y2="34.4"/>
<line class="st0" x1="594.3" y1="25" x2="590.2" y2="31.5"/>
<line class="st0" x1="573.4" y1="42.4" x2="582.5" y2="42.3"/>
<polyline class="st0" points="582.5,42.3 584.5,43.2 586.4,44.1 587.3,44.5 588.1,44.9 588.9,45.3 589.7,45.6 590.5,45.9 
	591.3,46.3 592,46.5 592.6,46.8 593.2,47 593.8,47.2 594.9,47.6 "/>
<polyline class="st0" points="573.4,42.4 575,43 575.8,43.3 576.5,43.6 577.2,43.9 577.9,44.1 578.5,44.3 579.1,44.5 579.7,44.7 
	580.2,44.8 580.7,44.9 581.2,45.1 581.6,45.1 582,45.2 582.6,45.2 "/>
<line class="st0" x1="557.9" y1="36.6" x2="555.1" y2="42.6"/>
<polyline class="st0" points="573.4,42.4 571.8,41.7 570.1,40.9 568.3,40.1 566.5,39.3 562.7,37.6 558.8,35.8 "/>
<polyline class="st0" points="579.2,52.1 578.6,51.9 578.3,51.7 578,51.5 577.6,51.4 577.1,51.1 576.6,50.9 576.1,50.7 575.6,50.4 
	574.9,50.1 574.3,49.8 573.6,49.6 572.1,48.9 570.6,48.3 "/>
<polyline class="st0" points="555.1,42.6 559.3,44 561.3,44.7 563.3,45.4 565.2,46.1 567.1,46.9 568.9,47.5 570.6,48.3 "/>
<line class="st0" x1="569.7" y1="15.1" x2="565.7" y2="21.7"/>
<polyline class="st0" points="584.3,23.1 582.5,22.3 580.8,21.5 579,20.6 577.2,19.6 575.3,18.5 573.4,17.4 569.7,15.1 "/>
<polyline class="st0" points="584.3,23.1 585.9,23.7 586.7,24 587.5,24.3 588.2,24.5 588.9,24.7 589.6,24.9 590.2,25 590.8,25.1 
	591.5,25.2 592,25.3 592.5,25.3 593,25.3 593.5,25.2 594.3,25 "/>
<polyline class="st0" points="590.2,31.5 589.5,31.4 589.2,31.4 588.7,31.3 588.3,31.2 587.8,31.1 587.2,31 586.6,30.8 586,30.6 
	585.4,30.4 584.7,30.1 584,29.9 582.5,29.2 580.9,28.6 "/>
<polyline class="st0" points="565.7,21.7 569.7,23.6 573.6,25.4 575.6,26.2 577.4,27.1 579.2,27.8 580.9,28.6 "/>
<polyline class="st0" points="607.4,90.8 607.5,87.9 607.8,84.8 608.3,81.7 609.1,78.5 609.9,75.3 611,72.1 612.2,68.9 613.6,65.7 
	615.1,62.7 616.8,59.6 618.6,56.7 620.5,53.9 622.5,51.3 624.5,48.8 626.7,46.5 628.9,44.4 631.1,42.5 633.4,40.8 635.7,39.4 
	637.9,38.2 640.2,37.3 642.4,36.6 644.6,36.2 646.6,36 648.6,36.2 650.5,36.6 652.3,37.2 653.8,38 "/>
<polyline class="st0" points="609.1,102.2 608.7,101.3 608.1,98.9 607.7,96.4 607.4,93.7 607.4,90.8 "/>
<polyline class="st0" points="643.7,9.9 643.6,8.3 643.3,7 642.9,5.8 642.3,4.8 641.5,4 640.6,3.6 639.7,3.3 "/>
<polyline class="st0" points="629.5,11.6 629.3,12 628.6,13.7 628,15.5 627.6,17.3 627.4,18.9 627.4,20.5 627.5,22 627.9,23.3 
	628.4,24.3 629.1,25.2 629.9,25.9 630.9,26.2 632,26.3 633.2,26.1 634.4,25.7 635.6,25 636.9,24.1 638.1,22.9 639.2,21.6 
	640.3,20.1 641.3,18.5 642.1,16.8 642.7,15 643.2,13.2 643.5,11.5 643.7,9.9 "/>
<line class="st0" x1="643.7" y1="9.9" x2="643.8" y2="9.9"/>
<polygon class="st0" points="676.4,7.3 676.4,5.8 676.1,4.4 675.7,3.2 675,2.2 674.3,1.5 673.4,1 672.3,0.8 671.2,0.8 670,1.1 
	668.8,1.7 667.5,2.5 666.3,3.5 665.1,4.8 664,6.2 663,7.8 662.1,9.5 661.4,11.2 660.8,12.9 660.4,14.7 660.2,16.4 660.1,18 
	660.3,19.4 660.7,20.7 661.2,21.8 661.9,22.7 662.7,23.3 663.7,23.7 664.8,23.7 666,23.6 667.2,23.1 668.4,22.5 669.7,21.5 
	670.9,20.3 672,19 673.1,17.5 674,15.9 674.9,14.2 675.5,12.4 676,10.7 676.3,8.9 "/>
<polyline class="st0" points="689.5,41.2 689.4,39.6 689.1,38.3 688.7,37.1 688.1,36.1 687.3,35.3 686.4,34.8 685.3,34.6 
	684.2,34.6 683,35 681.8,35.5 680.5,36.3 679.3,37.4 678.1,38.6 677,40.1 676.3,41.2 "/>
<polyline class="st0" points="688.3,46.9 689.1,44.1 689.5,41.2 "/>
<polyline class="st0" points="596,97.7 595.9,96.2 595.6,94.8 595.2,93.6 594.6,92.7 593.8,91.9 592.9,91.4 591.8,91.2 590.7,91.2 
	589.5,91.5 588.3,92.1 587,92.9 585.8,94 584.6,95.2 583.5,96.6 582.8,97.6 "/>
<polyline class="st0" points="595.2,102.2 595.5,101.1 595.8,99.4 596,97.7 "/>
<polyline class="st0" points="610.3,47.3 610.2,45.8 610,44.4 609.6,43.2 608.9,42.3 608.1,41.5 607.3,41 606.2,40.8 605.4,40.8 "/>
<polyline class="st0" points="594.6,60.9 595.1,61.8 595.8,62.7 596.6,63.3 597.6,63.7 598.7,63.8 599.8,63.6 601.1,63.1 
	602.3,62.4 603.5,61.5 604.8,60.4 605.9,59 607,57.5 607.9,55.9 608.7,54.2 609.4,52.5 609.9,50.7 610.2,49 610.3,47.3 "/>
<line class="st0" x1="577.1" y1="67.1" x2="573.1" y2="66.6"/>
<line class="st0" x1="570.5" y1="73.8" x2="573.6" y2="76.7"/>
<line class="st0" x1="573.1" y1="66.6" x2="570.5" y2="73.8"/>
<polyline class="st0" points="585,37.7 587,38.6 588.8,39.6 589.7,40 590.6,40.3 591.4,40.7 592.2,41.1 593,41.4 593.7,41.7 
	594.4,42 595.1,42.3 595.7,42.5 596.3,42.7 597.4,43 "/>
<line class="st0" x1="585" y1="37.7" x2="580.9" y2="28.6"/>
<polyline class="st0" points="576.4,55.1 578.4,56 580.2,57 581.1,57.4 581.9,57.8 582.7,58.3 583.4,58.7 584.1,59.1 584.9,59.5 
	585.5,59.8 586.1,60.2 586.6,60.5 587.1,60.8 588.1,61.5 "/>
<line class="st0" x1="576.4" y1="55.1" x2="570.6" y2="48.3"/>
<line class="st0" x1="564.7" y1="62.8" x2="574.5" y2="59.9"/>
<polyline class="st0" points="574.5,59.9 576.4,60.8 578.2,61.7 579.1,62.2 579.9,62.6 580.7,63 581.5,63.4 582.2,63.9 582.9,64.2 
	583.5,64.6 584.1,65 584.6,65.3 585.2,65.6 586.1,66.3 "/>
<polyline class="st0" points="564.7,62.8 566.2,63.4 567,63.7 567.6,64 568.3,64.3 568.9,64.6 569.5,64.9 570.1,65.1 570.6,65.4 
	571.1,65.6 571.5,65.8 571.9,66 572.3,66.2 572.6,66.3 573.1,66.6 "/>
<line class="st0" x1="612.2" y1="7.8" x2="607.8" y2="6.9"/>
<line class="st0" x1="603.2" y1="12.6" x2="606.1" y2="15.4"/>
<line class="st0" x1="607.8" y1="6.9" x2="603.2" y2="12.6"/>
<polyline class="st0" points="564.7,62.8 562.3,61.8 561.1,61.3 559.8,60.8 558.5,60.3 557.2,59.8 554.3,58.8 "/>
<polyline class="st0" points="570.5,73.8 570,73.3 569.8,73 569.5,72.7 569.2,72.4 568.8,72.1 568.3,71.8 567.8,71.5 567.3,71.2 
	566.8,70.8 566.1,70.5 565.5,70.2 564.8,69.8 564.1,69.5 562.6,68.8 "/>
<polyline class="st0" points="554.3,66 556.6,66.7 558.7,67.4 559.7,67.7 560.7,68 562.6,68.8 "/>
<polyline class="st0" points="580.1,0 579.5,0.8 578.9,1.6 578.3,2.4 "/>
<polyline class="st0" points="596.9,5.6 596.3,5.4 595.7,5.1 595.4,4.9 595.1,4.8 594.8,4.7 594.5,4.5 594.2,4.3 593.9,4.2 
	593.6,4.1 593.3,3.9 593,3.7 592.7,3.6 592.4,3.4 592.1,3.2 591.8,3 591.6,2.8 591.2,2.6 590.9,2.5 590.6,2.3 590.3,2.1 590,1.9 
	589.7,1.7 589.4,1.5 589.1,1.3 588.8,1.1 588.5,0.9 588.2,0.6 587.9,0.4 587.6,0.2 587.3,0 "/>
<polyline class="st0" points="596.9,5.6 598.5,6.3 599.3,6.6 600.1,6.8 600.9,7.1 601.7,7.2 602.4,7.3 603.1,7.5 603.8,7.5 
	604.4,7.5 605.1,7.5 605.7,7.5 606.2,7.4 606.8,7.2 607.8,6.9 "/>
<polyline class="st0" points="603.2,12.6 602.3,12.8 601.9,12.8 601.4,12.9 600.8,12.8 600.3,12.8 599.6,12.7 599,12.5 598.4,12.4 
	597.7,12.2 596.9,12 596.2,11.7 594.6,11.2 593,10.5 "/>
<polyline class="st0" points="578.3,2.4 582.1,4.7 583.9,5.9 585.8,6.9 587.7,7.9 589.5,8.9 591.3,9.7 593,10.5 "/>
<polyline class="st0" points="595.2,21.6 597.2,22.5 599.2,23.4 600.1,23.8 601,24.2 601.9,24.5 602.7,24.8 603.5,25.1 604.3,25.3 
	605.1,25.5 605.8,25.7 606.5,25.8 607.2,25.9 608.4,26 "/>
<line class="st0" x1="595.2" y1="21.6" x2="593" y2="10.5"/>
<line class="st0" x1="569.9" y1="89" x2="566.1" y2="88.4"/>
<line class="st0" x1="564.4" y1="95.6" x2="567.6" y2="98.5"/>
<line class="st0" x1="566.1" y1="88.4" x2="564.4" y2="95.6"/>
<line class="st0" x1="558.4" y1="83.4" x2="568.5" y2="77.8"/>
<polyline class="st0" points="568.5,77.8 570.4,78.8 572.2,79.8 573.1,80.3 573.8,80.8 574.6,81.3 575.3,81.7 576,82.2 576.6,82.7 
	577.2,83.2 577.8,83.6 578.2,84.1 578.7,84.5 579.5,85.4 "/>
<polyline class="st0" points="558.4,83.4 559.9,84.1 560.6,84.4 561.3,84.8 561.9,85.1 562.5,85.5 563,85.8 563.6,86.1 564.1,86.4 
	564.5,86.7 564.9,87.1 565.2,87.3 565.5,87.7 565.7,87.9 566.1,88.4 "/>
<polyline class="st0" points="558.4,83.4 556.5,82.6 555.4,82.2 554.3,81.9 "/>
<polyline class="st0" points="564.4,95.6 564.1,94.8 563.9,94.4 563.6,94 563.3,93.6 563,93.2 562.6,92.8 562.1,92.4 561.6,92 
	561.1,91.6 560.5,91.3 559.9,90.9 559.3,90.5 558.5,90.1 557.1,89.4 "/>
<line class="st0" x1="554.3" y1="88.4" x2="557.1" y2="89.4"/>
<line class="st0" x1="565.7" y1="21.7" x2="563.6" y2="21.4"/>
<polyline class="st0" points="585,37.7 582.9,36.7 580.8,35.6 578.5,34.5 576.3,33.3 573.9,32.1 571.5,30.9 566.7,28.3 "/>
<polyline class="st0" points="563.6,23.7 564.4,24.8 565.2,25.9 566.7,28.3 "/>
<polyline class="st0" points="582.5,42.3 583.3,41.9 583.8,41.3 "/>
<polyline class="st0" points="583.8,41.3 585.7,42.2 587.6,43.1 588.5,43.5 589.4,43.9 590.2,44.3 591,44.7 591.8,45 592.5,45.3 
	593.2,45.6 593.9,45.8 594.5,46.1 595.1,46.3 596.2,46.7 "/>
<polyline class="st0" points="584.8,39.4 586.7,40.3 588.6,41.3 589.5,41.7 590.3,42.1 591.2,42.4 592,42.8 592.7,43.1 593.5,43.5 
	594.2,43.7 594.9,44 595.5,44.2 596.1,44.5 597.2,44.8 "/>
<polyline class="st0" points="584.8,39.4 585.1,38.6 585,37.7 "/>
<line class="st0" x1="555.1" y1="42.6" x2="554.3" y2="42.5"/>
<polyline class="st0" points="692.3,0 694.2,2 696.1,4.4 697.9,7 699.2,9.4 "/>
<polyline class="st0" points="542.8,33.3 540.1,33.6 537.5,33.7 534.8,33.6 532.1,33.3 529.5,32.9 527,32.3 524.6,31.6 522.3,30.7 
	520.2,29.6 518.3,28.4 516.5,27.1 515,25.7 513.7,24.2 512.7,22.6 512.1,21.4 "/>
<polyline class="st0" points="562.7,21.4 562.1,22.6 561.1,24.2 559.8,25.7 558.4,27.1 556.6,28.4 554.7,29.6 552.6,30.6 
	550.3,31.6 547.9,32.3 545.4,32.9 542.8,33.3 "/>
<polyline class="st0" points="542.6,32.2 545.2,31.8 547.7,31.2 550,30.4 552.3,29.5 554.4,28.5 556.2,27.3 557.9,26 559.4,24.6 
	560.6,23.1 561.5,21.5 562.2,19.9 562.7,18.3 562.8,16.6 562.7,14.9 562.2,13.3 561.6,11.6 560.6,10 559.4,8.6 558,7.2 556.9,6.3 
	"/>
<polyline class="st0" points="517.9,6.3 516.9,7.1 515.5,8.5 514.3,10 513.3,11.6 512.6,13.2 512.2,14.8 512.1,16.5 512.2,18.2 
	512.6,19.8 513.3,21.4 514.2,23 515.4,24.5 516.9,25.9 518.5,27.2 520.4,28.4 522.5,29.4 524.7,30.4 527.1,31.1 529.5,31.7 
	532.1,32.2 534.7,32.4 537.4,32.5 540,32.5 542.6,32.2 "/>
<polyline class="st0" points="542.8,42.3 545.4,41.8 547.9,41.3 550.3,40.5 552.6,39.6 554.7,38.5 556.6,37.3 558.4,36 559.8,34.6 
	561.1,33.1 562.1,31.6 562.7,30.3 "/>
<polyline class="st0" points="512.1,30.4 512.7,31.6 513.7,33.1 515,34.6 516.5,36.1 518.3,37.3 520.2,38.5 522.3,39.6 524.6,40.5 
	527,41.3 529.5,41.8 532.1,42.3 534.8,42.5 537.5,42.6 540.1,42.5 542.8,42.3 "/>
<polyline class="st0" points="544.2,29.6 547.5,28.8 550.6,27.5 553.6,25.9 "/>
<line class="st0" x1="539.7" y1="28.3" x2="543.6" y2="27.7"/>
<line class="st0" x1="515.3" y1="17.6" x2="516.2" y2="17.5"/>
<line class="st0" x1="514.5" y1="102.2" x2="516.8" y2="99.5"/>
<line class="st0" x1="516.8" y1="99.5" x2="516.9" y2="99.5"/>
<line class="st0" x1="512.5" y1="10.8" x2="512.9" y2="11.4"/>
<line class="st0" x1="506.8" y1="4.3" x2="507.9" y2="6.5"/>
<line class="st0" x1="507.4" y1="4.4" x2="508.3" y2="5.9"/>
<line class="st0" x1="522.8" y1="2.4" x2="522.4" y2="2.2"/>
<polyline class="st0" points="689.1,0 689.9,1.2 691.7,4 693.2,7 694.5,10.2 695.7,13.6 696.6,17.2 697.1,19 "/>
<line class="st0" x1="698.1" y1="25.4" x2="698.2" y2="26.2"/>
<polyline class="st0" points="695.2,29.9 695.2,29.1 694.8,25.1 694.2,21.2 693.4,17.5 692.4,14 691.3,10.6 689.9,7.5 688.4,4.6 
	686.8,1.9 685.3,0 "/>
<line class="st0" x1="584.3" y1="23.1" x2="589.7" y2="24.9"/>
<line class="st0" x1="569.6" y1="72.9" x2="562.6" y2="68.8"/>
<polyline class="st0" points="614,10.3 615,10.6 615.9,10.8 616.8,11 617.7,11.1 618.5,11.2 619.3,11.2 620.8,11.1 "/>
<line class="st0" x1="606.7" y1="7.2" x2="606.6" y2="0"/>
<polyline class="st0" points="591.2,25.2 589.2,24.2 587.2,23.1 585.2,21.9 583,20.7 580.9,19.3 578.8,18 574.5,15.1 "/>
<polyline class="st0" points="603.3,28.9 604.3,29.2 605.2,29.4 606,29.5 606.8,29.6 "/>
<polyline class="st0" points="569.9,73 568.2,72.2 566.4,71.4 564.6,70.6 562.6,69.8 560.6,69.1 558.6,68.4 556.5,67.7 554.3,67 "/>
<line class="st0" x1="570.2" y1="74.4" x2="572.4" y2="75.6"/>
<polyline class="st0" points="577.8,79 578.8,79.8 579.3,80.1 579.8,80.5 580.2,80.9 580.6,81.3 581.2,82 "/>
<line class="st0" x1="570.2" y1="74.4" x2="570.2" y2="73.5"/>
<polyline class="st0" points="570.2,98.9 570.8,99.3 571,99.5 571.3,99.7 571.6,99.9 571.8,100.1 572,100.2 572.1,100.3 
	572.2,100.4 572.3,100.5 572.4,100.6 572.6,100.7 572.7,100.9 572.8,100.9 572.9,101 573,101.2 573.1,101.3 573.2,101.4 
	573.4,101.6 573.6,101.8 573.8,102 574,102.2 "/>
<line class="st0" x1="617.4" y1="14.5" x2="618.8" y2="14.5"/>
<polyline class="st0" points="615.9,12.7 617.1,12.9 617.6,13 618.1,13 619.1,13 620.1,13 "/>
<polyline class="st0" points="606.5,7.3 605.8,6.9 605.1,6.6 604.8,6.4 604.4,6.2 604.1,6 603.7,5.8 603.3,5.6 603,5.4 602.6,5.2 
	602.3,4.9 601.9,4.7 601.5,4.5 601.2,4.3 600.8,4.1 600.5,3.8 600.1,3.6 599.7,3.3 599.4,3.1 599,2.9 598.6,2.6 598.3,2.4 
	597.9,2.1 597.5,1.9 597.2,1.6 596.8,1.3 596.4,1.1 596.1,0.8 595.7,0.5 595.3,0.3 595,0 "/>
<polyline class="st0" points="568.5,77.8 565.3,76.4 563.6,75.6 561.9,74.9 560.1,74.2 558.2,73.5 554.3,72.3 "/>
<line class="st0" x1="575.9" y1="99.7" x2="576.7" y2="100.9"/>
<polyline class="st0" points="573.7,99.3 574,99.7 574.2,99.9 574.4,100.1 574.6,100.3 574.8,100.4 574.9,100.6 575.1,100.8 
	575.2,100.9 575.4,101.1 575.5,101.3 575.6,101.5 575.8,101.7 575.9,101.9 576,102.1 576.1,102.2 "/>
<line class="st0" x1="630.8" y1="1.9" x2="631.8" y2="1.8"/>
<line class="st0" x1="630.3" y1="0.9" x2="633.1" y2="0.7"/>
<polyline class="st0" points="570.2,74.4 568.4,73.6 566.6,72.7 564.7,72 562.8,71.2 560.7,70.4 558.7,69.7 556.5,68.9 554.3,68.3 
	"/>
<polyline class="st0" points="595.3,4.9 595.1,4.8 595,4.6 594.7,4.5 594.5,4.3 594.3,4.2 594.2,4.1 593.9,3.9 593.7,3.8 593.5,3.6 
	593.4,3.5 592.9,3.2 592.6,2.9 592.1,2.6 591.8,2.2 591.3,1.9 591,1.6 590.5,1.3 589.8,0.6 589,0 "/>
<polyline class="st0" points="569.6,76.4 567.9,75.5 566.2,74.8 564.4,74 562.5,73.2 560.5,72.5 558.5,71.7 556.5,71 554.3,70.4 "/>
<polyline class="st0" points="602.9,7.4 602.2,7.1 601.9,6.9 601.6,6.7 601.4,6.6 601.2,6.5 601.1,6.4 600.9,6.3 600.6,6.1 
	600.2,5.9 599.9,5.7 599.5,5.5 599.2,5.2 598.9,5 598.5,4.8 598.2,4.5 597.8,4.3 597.5,4.1 597.1,3.8 596.8,3.6 596.5,3.3 
	596.1,3.1 595.8,2.8 595.4,2.6 595.1,2.3 594.7,2.1 594.4,1.8 594.1,1.6 593.7,1.3 593.4,1 593.1,0.8 592.7,0.5 592.3,0.3 592,0 "/>
<polyline class="st0" points="575.8,6.3 572.3,9.5 569.1,13 "/>
<polyline class="st0" points="727.4,79.6 726.9,79.3 725,78.5 723,78.1 720.9,77.8 718.8,77.9 716.5,78.2 714.2,78.8 711.9,79.6 
	709.5,80.8 707.1,82.2 704.7,83.8 702.3,85.6 699.9,87.7 697.6,90 695.3,92.4 693.1,95.1 691.1,98 689.1,100.9 688.3,102.2 "/>
</svg>
