<?xml version="1.0" encoding="utf-8"?>
<!-- Generator: Adobe Illustrator 19.2.1, SVG Export Plug-In . SVG Version: 6.00 Build 0)  -->
<svg version="1.1" id="Capa_1" xmlns="http://www.w3.org/2000/svg" xmlns:xlink="http://www.w3.org/1999/xlink" x="0px" y="0px"
	 viewBox="0 0 409.5 307" style="enable-background:new 0 0 409.5 307;" xml:space="preserve">
<style type="text/css">
	.st0{fill:#FF9900;}
</style>
<path class="st0" d="M0,30.4c1.7-8.2,4.8-15.7,11.3-21.5C18.3,2.7,26.6,0,35.8,0C119.9,0,204,0,288.2,0c21.4,0,35.9,14.4,36,35.8
	c0.1,26.3,0,52.5,0,78.8c0,1.6,0,3.2,0,4.6c7.6,1.9,15.1,3.3,22.2,5.7c35.6,11.9,61.1,45.5,62.9,83.1c0.4,7.4,0.5,15.1-1.1,22.2
	c-3,13.4-12.1,21.8-25.4,24.8c-13.5,3-24.9-1.3-33.9-11.9c-0.3-0.4-0.7-0.8-1.3-1.5c-10,10.3-22,15.6-36.5,14.1
	c-10.3-1.1-19.3-5.5-26.2-13.1c-15.9-17.7-16-40.5-0.2-58.2c12.6-14.2,37.4-20.5,59.1-3.1c8.9-5,15.1,0.7,14.7,9.5
	c-0.5,10.4-0.2,20.8-0.1,31.2c0.1,8.1,5.7,14.9,13.2,16.5c7.9,1.7,15.7-2,19-9.1c1-2.1,1.6-4.6,1.8-6.9c3.1-44.4-25-76.6-61.4-84.3
	c-42.4-9-85.2,20.9-91.1,63.6c-5.6,41.1,19.6,77.8,60,86.7c16.6,3.6,32.8,1.6,48.3-5.6c1.9-0.9,3.8-1.9,5.8-2.8
	c5.2-2.2,9.8-0.8,12,3.6c2.1,4.3,0.5,8.8-4.2,11.5c-9,5.1-18.6,8.8-28.8,10.5c-47.9,7.9-90.6-17.5-106.4-63.5
	c-1.1-3.2-2.9-3.1-5.4-3.1c-61.3,0-122.6,0-184,0c-12.5,0-23.3-3.7-30.5-14.3c-3.2-4.7-4.6-10.6-6.8-15.9C0,149.3,0,89.9,0,30.4z
	 M305.6,27.7c-1.2,0.9-2.2,1.6-3.1,2.3c-40.1,32.9-80.2,65.8-120.2,98.7c-12.7,10.4-27.4,10.5-40.1,0.1
	C105.9,99.1,69.7,69.3,33.4,39.6c-4.8-3.9-9.7-7.9-15.3-12.5c-0.4,3.9-1,6.9-1,9.9C17,92,17,147,17,202.1c0,13.1,6.6,19.7,19.7,19.7
	c60.4,0,120.8,0,181.2,0c1.4,0,2.8-0.1,4.4-0.2c-1.7-25.8,5.1-48.6,21.5-68.2c16.5-19.7,37.8-30.5,63.1-33.5
	C308.4,105.5,307.5,32.5,305.6,27.7z M33.3,17.3c1.8,1.5,2.8,2.4,3.9,3.3c38.6,31.7,77.3,63.4,115.9,95.1c5.9,4.8,12.2,4.9,18.1,0
	c38.7-31.8,77.5-63.6,116.2-95.4c1-0.8,1.9-1.7,3.4-3C204.8,17.3,119.5,17.3,33.3,17.3z M290.3,213.4c0.1,14,11.4,25.4,25.4,25.5
	c13.9,0.1,25.8-11.8,25.7-25.7c-0.1-14.1-11.8-25.5-25.9-25.4C301.4,188,290.2,199.4,290.3,213.4z"/>
</svg>
