<?xml version="1.0" encoding="utf-8"?>
<!-- Generator: Adobe Illustrator 19.2.1, SVG Export Plug-In . SVG Version: 6.00 Build 0)  -->
<svg version="1.1" id="Capa_1" xmlns="http://www.w3.org/2000/svg" xmlns:xlink="http://www.w3.org/1999/xlink" x="0px" y="0px"
	 viewBox="0 0 340.3 314.8" style="enable-background:new 0 0 340.3 314.8;" xml:space="preserve">
<style type="text/css">
	.st0{fill:#FF9933;stroke:#000000;stroke-miterlimit:10;}
	.st1{fill:#FFFFFF;}
</style>
<path class="st0" d="M324.2,89.7c-8.4,6.6-16.1,12.6-23.7,18.6c-27.4,21.5-54.8,43.1-82.2,64.6c-13.4,10.5-25.4,10.5-38.8-0.1
	c-24.7-19.5-49.5-38.9-74.3-58.3c-2.2-1.7-4.8-2.8-7.2-4.2c0.6-0.7,1.1-1.3,1.7-2c-5,2.9-10.2,5.4-14.8,8.7
	c-7.5,5.4-7.4,13.4-6.1,21.4c0.5,2.8,1.7,5.5,3.1,7.9c11.4,19.9,23.1,39.7,34.5,59.7c2.9,5.1,7,8.8,12.1,11.3
	c6.1,3.1,12.1,3.4,18.1-0.5c3.8-2.5,7.8-4.5,11.7-6.8c12.7-7.3,25.9-6.4,37.3,2.9c2.9,2.4,5.8,4.9,8.1,7.8
	c12,15.3,23.1,31.1,28.6,50.1c1.2,4,1.5,8.4,1.4,12.6c-0.2,6.7-3.5,11.8-9.4,15.2c-41,24.2-80.7,20.6-119.2-5.8
	c-16.4-11.2-29.9-25.6-40.2-42.5c-16.4-27-32.5-54.2-47.5-82c-13-24.1-19.5-50.3-17-78c3-34.1,18.9-60.8,48.1-79.1
	c1.5-0.9,3.1-1.7,4.5-2.6C63.3,1.7,72.6,4.8,80,11c8,6.7,13.9,15,18.8,24.1c4,7.3,7.8,14.8,11.4,22.4c1.1,2.3,2.5,2.3,4.5,2.3
	c21.9,0,43.7,0,65.6,0c44.7,0,89.5,0,134.2,0c6.6,0,12.7,1.1,17.9,5.3c4.9,4,7.8,9,7.8,15.5c0,49.6,0.1,99.2,0,148.9
	c0,12-10.2,21-23.6,21c-24.2,0.1-48.5,0-72.7,0c-0.5,0-1,0-1.5,0c-4.6-0.3-7.9-3.6-8-7.9c-0.1-4.4,3-7.6,7.6-8.1
	c1.4-0.1,2.7-0.1,4.1-0.1c22.5,0,45,0,67.5,0c1.7,0,3.5,0,5.2-0.3c3.4-0.5,5.4-2.4,5.3-6.1c0-0.9,0-1.7,0-2.6c0-43.5,0-87,0-130.5
	C324.2,93.5,324.2,92.1,324.2,89.7z M167.9,298.7c15-0.2,28.4-2.9,40.7-9.6c11-6,11.3-7.1,6.6-18.9c-5.1-13-12.7-24.6-21.1-35.6
	c-2.6-3.5-5.8-6.5-9.1-9.4c-5.6-4.8-11.7-5.6-18.2-1.3c-4,2.6-8.3,4.7-12.3,7.1c-9.3,5.7-19.1,6.1-29.1,2.4
	c-9.6-3.5-17.2-9.5-22.3-18.4c-11.8-20.4-23.8-40.8-35.5-61.2c-11.6-20.1-5.7-42.1,14.2-53.7c3.9-2.3,7.7-4.6,11.7-6.7
	c5-2.8,6.8-7.1,6.5-12.5c-0.1-2.2-0.4-4.5-1-6.6c-5.3-17.3-13.8-32.9-25.2-46.8c-1.8-2.2-4.2-4-6.6-5.5c-1-0.6-2.9-0.7-4-0.1
	c-3.7,1.8-7.4,3.7-10.7,6.2c-23.1,17-35.3,40-36.1,68.7c-0.7,25.1,6.4,48.4,18.5,70.1c13.1,23.5,26.9,46.8,40.6,70
	c7.4,12.5,16.6,23.7,27.5,33.5C121.6,287.2,143,298.2,167.9,298.7z M315.6,76c-67.1,0-133.3,0-199.7,0c0.7,8.2-0.6,15.8-5.2,22.5
	c1.9,1.4,3.6,2.7,5.3,4c24.2,19,48.3,37.9,72.5,56.9c8.8,6.9,12.4,6.8,21.1,0c24.3-19.1,48.7-38.3,73.1-57.4
	C293.3,93.5,304.1,85,315.6,76z"/>
<path class="st1" d="M167.9,298.7c-24.9-0.4-46.3-11.5-65.1-28.5c-10.8-9.8-20-21-27.5-33.5c-13.7-23.2-27.4-46.4-40.6-70
	c-12.1-21.7-19.2-45-18.5-70.1c0.8-28.7,13-51.7,36.1-68.7c3.3-2.4,7-4.3,10.7-6.2c1.1-0.5,3-0.5,4,0.1c2.4,1.5,4.8,3.3,6.6,5.5
	c11.4,14,19.9,29.6,25.2,46.8c0.7,2.1,0.9,4.4,1,6.6c0.3,5.4-1.6,9.8-6.5,12.5c-3.9,2.2-7.8,4.5-11.7,6.7
	c-19.9,11.6-25.8,33.6-14.2,53.7c11.8,20.5,23.7,40.8,35.5,61.2c5.2,8.9,12.8,14.9,22.3,18.4c10.1,3.7,19.8,3.3,29.1-2.4
	c4.1-2.5,8.3-4.5,12.3-7.1c6.5-4.3,12.6-3.5,18.2,1.3c3.3,2.8,6.5,5.9,9.1,9.4c8.4,11.1,16,22.6,21.1,35.6
	c4.7,11.9,4.3,12.9-6.6,18.9C196.3,295.7,183,298.5,167.9,298.7z"/>
<path class="st1" d="M315.6,76c-11.5,9-22.2,17.5-33,26c-24.4,19.1-48.7,38.2-73.1,57.4c-8.7,6.9-12.3,6.9-21.1,0
	c-24.2-19-48.3-37.9-72.5-56.9c-1.7-1.3-3.4-2.5-5.3-4c4.7-6.7,6-14.3,5.2-22.5C182.3,76,248.5,76,315.6,76z"/>
</svg>
