<?xml version="1.0" encoding="utf-8"?>
<!-- Generator: Adobe Illustrator 19.2.1, SVG Export Plug-In . SVG Version: 6.00 Build 0)  -->
<svg version="1.1" id="Capa_1" xmlns="http://www.w3.org/2000/svg" xmlns:xlink="http://www.w3.org/1999/xlink" x="0px" y="0px"
	 viewBox="0 0 326.8 384" style="enable-background:new 0 0 326.8 384;" xml:space="preserve">
<style type="text/css">
	.st0{fill:#FF9900;}
</style>
<path class="st0" d="M207,0c3.3,1.1,6.7,1.8,9.8,3.4c13.4,6.8,20.2,17.9,20.2,32.8c0.1,47.2,0,94.5,0,141.7c0,55.9,0,111.7,0,167.6
	c0,20.7-9.5,33-29.5,38c-0.2,0.1-0.4,0.3-0.6,0.5c-59,0-118,0-177,0c-2.6-0.8-5.2-1.5-7.7-2.5C8.3,376,0,363.1,0,346.9
	C0,243.6,0,140.4,0,37.1c0-1,0-2,0-3C0.7,23,5,13.6,14.2,7.3C18.9,4,24.7,2.4,30,0C89,0,148,0,207,0z M224,319.9
	c0-85.3,0-170.5,0-255.6c-70.5,0-140.7,0-210.9,0c0,85.4,0,170.4,0,255.6C83.5,319.9,153.6,319.9,224,319.9z M12.8,333
	c0,4.9,0,9.4,0,13.8c0,15,9.4,24.3,24.3,24.3c26.6,0,53.2,0,79.9,0c28.1,0,56.2,0,84.4,0c11.6,0,21-7.6,22.5-19
	c0.8-6.2,0.1-12.6,0.1-19.2C153.6,333,83.5,333,12.8,333z M12.5,50.9c71,0,141.2,0,211.7,0c0-4.6,0-9,0-13.4
	c0-15.6-9.1-24.7-24.6-24.7c-45.1,0-90.2,0-135.3,0c-9.7,0-19.5-0.1-29.2,0C24.6,12.9,15.3,20,13.7,30
	C12.5,36.7,12.8,43.8,12.5,50.9z"/>
<path class="st0" d="M286.6,123.6c1-0.7,2-1.2,2.9-2c2.2-2,4.3-4.1,6.5-6.1c37.8,37.2,41.8,102.3,6.7,144.3
	c-3.2-2.5-6.3-5.1-9.7-7.8c14.9-19.3,22.1-40.9,21-65C312.8,162.9,303.6,142,286.6,123.6z"/>
<path class="st0" d="M261.4,148.7c2.9-2.8,5.9-5.6,8.8-8.4c25.8,25.8,27.8,69,4.4,97.3c-3.1-2.5-6.3-5.1-9.4-7.6
	C283.9,201.8,282.7,174.9,261.4,148.7z"/>
<path class="st0" d="M91.4,173.9c6.9,23.7,20.7,42.3,41.3,55.8c3.4-3.7,6.6-7.3,9.8-10.8c2.6-2.8,5.7-3.1,9.3-1.9
	c16.5,5.3,33,10.5,49.6,15.6c3.7,1.1,5.5,3.4,6.4,7c7.2,28.9-17.6,55.2-47.3,49.5c-55.6-10.7-93.1-43.1-112-96.4
	c-7.8-21.9-9.5-44.7-5-67.6c5.2-26.8,36.6-40.3,60-26.2c3.1,1.9,4.6,4.2,4.6,7.9c0.1,17.5,0.3,35,0.6,52.5c0.1,4.1-1.2,7.1-4.9,8.8
	C99.7,170.2,95.8,171.9,91.4,173.9z M95.7,133.8c-0.1,0-0.3,0-0.4,0c0-7.2-0.1-14.5,0.1-21.7c0.1-2.5-0.9-3.4-3.1-4.2
	c-16.3-5.8-34.2,4.8-36.7,21.8c-3.1,21.2-1.6,42,6,62c18.4,48.1,53.1,76.9,104.1,85.3c16.8,2.8,32.4-12.9,30.4-29.7
	c-0.3-2.1-1-3.2-3.2-3.9c-11.8-3.6-23.6-7.4-35.4-11.1c-9.4-2.9-10.6-2.3-14.5,7.1c-0.2,0.5-0.4,0.9-0.6,1.4c-2,4.6-5.6,6-10,3.5
	C103,227.8,84.7,203,77.4,170c-1.2-5.2,1.5-8.2,6.9-8.8c2.8-0.3,5.6-1.1,8.4-1.7c2.2-0.5,3.1-1.9,3-4.3
	C95.5,148.1,95.7,141,95.7,133.8z"/>
<path class="st0" d="M95.6,25.4c14.9,0,29.1,0,43.6,0c0,4.2,0,8.2,0,12.5c-14.6,0-29,0-43.6,0C95.6,33.6,95.6,29.5,95.6,25.4z"/>
</svg>
