<?xml version="1.0" encoding="utf-8"?>
<!-- Generator: Adobe Illustrator 19.2.1, SVG Export Plug-In . SVG Version: 6.00 Build 0)  -->
<svg version="1.1" id="Capa_1" xmlns="http://www.w3.org/2000/svg" xmlns:xlink="http://www.w3.org/1999/xlink" x="0px" y="0px"
	 viewBox="0 0 376.9 392.9" style="enable-background:new 0 0 376.9 392.9;" xml:space="preserve">
<style type="text/css">
	.st0{fill:#FF9900;stroke:#000000;stroke-width:0.5;stroke-miterlimit:10;}
</style>
<path class="st0" d="M147.6,5.8c5.8,1.5,11.8,2.4,17.5,4.5c45.9,16.6,62.1,72.9,32.2,111.3c-1.4,1.8-2.6,3.7-3.6,5.7
	c-17.1,33.6-34.2,67.3-51.2,101c-0.6,1.1-1.2,2.2-2,3.8c-0.7-1.3-1.4-2.3-1.9-3.4c-17.6-34.8-35.2-69.6-52.9-104.3
	c-3.4-6.7-8.2-12.7-11.1-19.6C56.5,62,84.2,13.4,130,6.6c1.1-0.2,2.1-0.5,3.2-0.8C138,5.8,142.8,5.8,147.6,5.8z M96.6,77.5
	c0,24.3,19.5,43.9,43.8,44.1c24.4,0.1,44.2-19.6,44.2-44c0-24.3-19.5-43.9-43.8-44.1C116.5,33.3,96.6,53.1,96.6,77.5z"/>
<path class="st0" d="M143.8,259.1c1.8-3.7,3.5-7.6,5.7-11.1c0.9-1.4,2.8-2.9,4.5-3.1c27-4.2,54-8.3,80.5-12.3
	c4-43.4,7.9-86.5,11.9-130.5c-9.3,4.4-18,8.6-27.3,13c1.6-5.5,3-10.5,4.6-15.4c0.2-0.8,1.4-1.3,2.3-1.7
	c10.8-5.2,21.5-10.4,32.4-15.4c1.2-0.6,3-0.7,4.2-0.3c37.4,14.1,74.8,28.3,112.2,42.5c0.6,0.2,1.1,0.5,1.8,0.9
	c-1.6,12.5-3.1,25-4.7,37.5c-3.4,26.9-6.6,53.8-10.4,80.6c-1.7,11.9,0.8,23.3,2,34.9c2.9,26.5,6.3,53,9.4,79.5
	c1.2,9.6,2.3,19.3,3.5,28.9c0.2,1.7,0.3,3.5,0.5,5.8c-8.4-1.9-16.4-3.8-24.4-5.6c-29.7-6.9-59.3-13.9-89.1-20.4
	c-4.2-0.9-8.9,0.5-13.4,1.3c-39.1,7.4-78.1,15.1-117.2,22.2c-5.1,0.9-10.7-0.6-15.9-1.6C79.6,382,42.4,375,5.2,368
	c-1.4-0.3-2.7-0.6-4.6-1c0.7-6.3,1.4-12.6,2.1-19c3.1-26.4,6.3-52.8,9.5-79.2c1.5-12.5,3.3-24.9,4.3-37.4c0.4-4.8-0.8-9.8-1.4-14.6
	c-5-38.6-9.9-77.2-14.9-115.8c-0.1-1.1-0.1-2.2-0.2-3.9c1.3,0.4,2.3,0.7,3.3,1.1c21.5,9,42.9,18.1,64.3,27.2c1.6,0.7,3.3,2,4.2,3.5
	c3.1,4.7,5.8,9.6,8.6,14.5c-0.2,0.2-0.4,0.5-0.7,0.7c-21.4-9-42.7-18-64.8-27.3c5,39.5,9.9,78.5,14.9,118.3
	c31.1,4.8,63.2,9.8,95.8,14.8c-0.8-7.1-1.4-13.1-2.1-19.1c0.2-0.1,0.4-0.2,0.6-0.3c4.9,9.6,9.8,19.2,14.8,29
	C140.6,259.4,142.2,259.3,143.8,259.1c-1.3,1.8-3.4,3.5-3.7,5.4c-0.9,5.6-1.1,11.3-1.7,16.9c-2.6,25.3-5.3,50.6-8,75.9
	c-0.7,7-1.4,13.9-2.2,21.4c41.9-8,83-15.8,124.2-23.7c0-0.2,0-0.4-0.1-0.6c-1.6,0-3.2,0-5,0c-3.6-36.5-7.1-72.8-10.7-109.4
	c-9.8,1.5-19.3,2.9-28.7,4.3C186.7,252.5,165.3,255.8,143.8,259.1z M349.1,242.7c4.6-36.6,9.2-72.7,13.8-108.8
	c-1.4-0.6-2.5-1.1-3.7-1.6c-22.8-8.7-45.6-17.3-68.4-26c-8.8-3.3-17.6-6.7-26.5-10c-4.5-1.7-4.5-1.7-5,2.9c-0.3,2.8-0.5,5.5-0.8,8.3
	c-3.4,36.6-6.9,73.2-10.3,109.8c-0.4,4.2-0.5,8.4-0.7,12.6C281.7,234.2,315.2,238.5,349.1,242.7z M127.8,262.8
	c-34.1-5.2-67-10.3-100.4-15.4c-4.4,36.7-8.7,73-13,109.5c34.1,6.4,67.6,12.7,101.7,19.1C120,337.6,123.9,299.8,127.8,262.8z
	 M260,353.1c34.4,7.9,68.2,15.7,102.5,23.6c-4.9-41-9.7-81.2-14.5-121.5c-33-4.2-65.7-8.3-98.8-12.5
	C252.9,280.2,256.4,316.6,260,353.1z"/>
</svg>
